<?xml version="1.0" encoding="utf-8"?>
<svg xmlns="http://www.w3.org/2000/svg" xmlns:xlink="http://www.w3.org/1999/xlink" width="600" height="400" viewBox="0 0 2400 1600">
<defs>
  <clipPath id="clip6800">
    <rect x="0" y="0" width="2400" height="1600"/>
  </clipPath>
</defs>
<path clip-path="url(#clip6800)" d="
M0 1600 L2400 1600 L2400 0 L0 0  Z
  " fill="#ffffff" fill-rule="evenodd" fill-opacity="1"/>
<defs>
  <clipPath id="clip6801">
    <rect x="480" y="0" width="1681" height="1600"/>
  </clipPath>
</defs>
<path clip-path="url(#clip6800)" d="
M547.267 1487.47 L1987.5 1487.47 L1987.5 47.2441 L547.267 47.2441  Z
  " fill="#ffffff" fill-rule="evenodd" fill-opacity="1"/>
<defs>
  <clipPath id="clip6802">
    <rect x="547" y="47" width="1441" height="1441"/>
  </clipPath>
</defs>
<polyline clip-path="url(#clip6802)" style="stroke:#000000; stroke-width:2; stroke-opacity:0.1; fill:none" points="
  721.84,1487.47 721.84,47.2441 
  "/>
<polyline clip-path="url(#clip6802)" style="stroke:#000000; stroke-width:2; stroke-opacity:0.1; fill:none" points="
  994.611,1487.47 994.611,47.2441 
  "/>
<polyline clip-path="url(#clip6802)" style="stroke:#000000; stroke-width:2; stroke-opacity:0.1; fill:none" points="
  1267.38,1487.47 1267.38,47.2441 
  "/>
<polyline clip-path="url(#clip6802)" style="stroke:#000000; stroke-width:2; stroke-opacity:0.1; fill:none" points="
  1540.15,1487.47 1540.15,47.2441 
  "/>
<polyline clip-path="url(#clip6802)" style="stroke:#000000; stroke-width:2; stroke-opacity:0.1; fill:none" points="
  1812.92,1487.47 1812.92,47.2441 
  "/>
<polyline clip-path="url(#clip6802)" style="stroke:#000000; stroke-width:2; stroke-opacity:0.1; fill:none" points="
  547.267,1312.9 1987.5,1312.9 
  "/>
<polyline clip-path="url(#clip6802)" style="stroke:#000000; stroke-width:2; stroke-opacity:0.1; fill:none" points="
  547.267,1040.13 1987.5,1040.13 
  "/>
<polyline clip-path="url(#clip6802)" style="stroke:#000000; stroke-width:2; stroke-opacity:0.1; fill:none" points="
  547.267,767.359 1987.5,767.359 
  "/>
<polyline clip-path="url(#clip6802)" style="stroke:#000000; stroke-width:2; stroke-opacity:0.1; fill:none" points="
  547.267,494.588 1987.5,494.588 
  "/>
<polyline clip-path="url(#clip6802)" style="stroke:#000000; stroke-width:2; stroke-opacity:0.1; fill:none" points="
  547.267,221.818 1987.5,221.818 
  "/>
<polyline clip-path="url(#clip6800)" style="stroke:#000000; stroke-width:4; stroke-opacity:1; fill:none" points="
  547.267,1487.47 1987.5,1487.47 
  "/>
<polyline clip-path="url(#clip6800)" style="stroke:#000000; stroke-width:4; stroke-opacity:1; fill:none" points="
  547.267,1487.47 547.267,47.2441 
  "/>
<polyline clip-path="url(#clip6800)" style="stroke:#000000; stroke-width:4; stroke-opacity:1; fill:none" points="
  721.84,1487.47 721.84,1470.19 
  "/>
<polyline clip-path="url(#clip6800)" style="stroke:#000000; stroke-width:4; stroke-opacity:1; fill:none" points="
  994.611,1487.47 994.611,1470.19 
  "/>
<polyline clip-path="url(#clip6800)" style="stroke:#000000; stroke-width:4; stroke-opacity:1; fill:none" points="
  1267.38,1487.47 1267.38,1470.19 
  "/>
<polyline clip-path="url(#clip6800)" style="stroke:#000000; stroke-width:4; stroke-opacity:1; fill:none" points="
  1540.15,1487.47 1540.15,1470.19 
  "/>
<polyline clip-path="url(#clip6800)" style="stroke:#000000; stroke-width:4; stroke-opacity:1; fill:none" points="
  1812.92,1487.47 1812.92,1470.19 
  "/>
<polyline clip-path="url(#clip6800)" style="stroke:#000000; stroke-width:4; stroke-opacity:1; fill:none" points="
  547.267,1312.9 564.549,1312.9 
  "/>
<polyline clip-path="url(#clip6800)" style="stroke:#000000; stroke-width:4; stroke-opacity:1; fill:none" points="
  547.267,1040.13 564.549,1040.13 
  "/>
<polyline clip-path="url(#clip6800)" style="stroke:#000000; stroke-width:4; stroke-opacity:1; fill:none" points="
  547.267,767.359 564.549,767.359 
  "/>
<polyline clip-path="url(#clip6800)" style="stroke:#000000; stroke-width:4; stroke-opacity:1; fill:none" points="
  547.267,494.588 564.549,494.588 
  "/>
<polyline clip-path="url(#clip6800)" style="stroke:#000000; stroke-width:4; stroke-opacity:1; fill:none" points="
  547.267,221.818 564.549,221.818 
  "/>
<g clip-path="url(#clip6800)">
<text style="fill:#000000; fill-opacity:1; font-family:Arial,Helvetica Neue,Helvetica,sans-serif; font-size:48px; text-anchor:middle;" transform="rotate(0, 721.84, 1541.47)" x="721.84" y="1541.47">-5.0</text>
</g>
<g clip-path="url(#clip6800)">
<text style="fill:#000000; fill-opacity:1; font-family:Arial,Helvetica Neue,Helvetica,sans-serif; font-size:48px; text-anchor:middle;" transform="rotate(0, 994.611, 1541.47)" x="994.611" y="1541.47">-2.5</text>
</g>
<g clip-path="url(#clip6800)">
<text style="fill:#000000; fill-opacity:1; font-family:Arial,Helvetica Neue,Helvetica,sans-serif; font-size:48px; text-anchor:middle;" transform="rotate(0, 1267.38, 1541.47)" x="1267.38" y="1541.47">0.0</text>
</g>
<g clip-path="url(#clip6800)">
<text style="fill:#000000; fill-opacity:1; font-family:Arial,Helvetica Neue,Helvetica,sans-serif; font-size:48px; text-anchor:middle;" transform="rotate(0, 1540.15, 1541.47)" x="1540.15" y="1541.47">2.5</text>
</g>
<g clip-path="url(#clip6800)">
<text style="fill:#000000; fill-opacity:1; font-family:Arial,Helvetica Neue,Helvetica,sans-serif; font-size:48px; text-anchor:middle;" transform="rotate(0, 1812.92, 1541.47)" x="1812.92" y="1541.47">5.0</text>
</g>
<g clip-path="url(#clip6800)">
<text style="fill:#000000; fill-opacity:1; font-family:Arial,Helvetica Neue,Helvetica,sans-serif; font-size:48px; text-anchor:end;" transform="rotate(0, 523.267, 1330.4)" x="523.267" y="1330.4">-5.0</text>
</g>
<g clip-path="url(#clip6800)">
<text style="fill:#000000; fill-opacity:1; font-family:Arial,Helvetica Neue,Helvetica,sans-serif; font-size:48px; text-anchor:end;" transform="rotate(0, 523.267, 1057.63)" x="523.267" y="1057.63">-2.5</text>
</g>
<g clip-path="url(#clip6800)">
<text style="fill:#000000; fill-opacity:1; font-family:Arial,Helvetica Neue,Helvetica,sans-serif; font-size:48px; text-anchor:end;" transform="rotate(0, 523.267, 784.859)" x="523.267" y="784.859">0.0</text>
</g>
<g clip-path="url(#clip6800)">
<text style="fill:#000000; fill-opacity:1; font-family:Arial,Helvetica Neue,Helvetica,sans-serif; font-size:48px; text-anchor:end;" transform="rotate(0, 523.267, 512.088)" x="523.267" y="512.088">2.5</text>
</g>
<g clip-path="url(#clip6800)">
<text style="fill:#000000; fill-opacity:1; font-family:Arial,Helvetica Neue,Helvetica,sans-serif; font-size:48px; text-anchor:end;" transform="rotate(0, 523.267, 239.318)" x="523.267" y="239.318">5.0</text>
</g>
<polyline clip-path="url(#clip6802)" style="stroke:#009af9; stroke-width:4; stroke-opacity:1; fill:none" points="
  44910.7,873634 44867.1,872326 44823.5,871018 44779.9,869712 44736.3,868408 44692.8,867104 44649.3,865802 44605.8,864501 44562.3,863202 44518.8,861904 
  44475.4,860607 44432,859311 44388.6,858017 44345.2,856724 44301.9,855432 44258.5,854142 44215.2,852853 44172,851565 44128.7,850278 44085.4,848993 
  44042.2,847709 43999,846427 43955.9,845145 43912.7,843865 43869.6,842587 43826.5,841309 43783.4,840033 43740.3,838758 43697.3,837485 43654.3,836213 
  43611.3,834942 43568.3,833672 43525.3,832404 43482.4,831136 43439.5,829871 43396.6,828606 43353.7,827343 43310.9,826081 43268,824820 43225.2,823561 
  43182.5,822303 43139.7,821046 43097,819791 43054.2,818536 43011.6,817283 42968.9,816032 42926.2,814781 42883.6,813532 42841,812284 42798.4,811038 
  42755.8,809792 42713.3,808548 42670.8,807306 42628.3,806064 42585.8,804824 42543.4,803585 42500.9,802347 42458.5,801111 42416.1,799876 42373.8,798642 
  42331.4,797410 42289.1,796178 42246.8,794948 42204.5,793719 42162.3,792492 42120,791266 42077.8,790041 42035.6,788817 41993.4,787595 41951.3,786374 
  41909.2,785154 41867.1,783935 41825,782718 41782.9,781502 41740.9,780287 41698.9,779073 41656.9,777861 41614.9,776650 41572.9,775440 41531,774232 
  41489.1,773024 41447.2,771818 41405.3,770613 41363.5,769410 41321.7,768208 41279.9,767007 41238.1,765807 41196.3,764608 41154.6,763411 41112.9,762215 
  41071.2,761020 41029.5,759827 40987.9,758635 40946.3,757444 40904.7,756254 40863.1,755066 40821.5,753878 40780,752692 40738.5,751508 40697,750324 
  40655.5,749142 40614.1,747961 40572.6,746781 40531.2,745602 40489.8,744425 40448.5,743249 40407.1,742074 40365.8,740901 40324.5,739728 40283.2,738557 
  40242,737387 40200.8,736219 40159.5,735051 40118.4,733885 40077.2,732720 40036,731557 39994.9,730394 39953.8,729233 39912.7,728073 39871.7,726914 
  39830.6,725757 39789.6,724600 39748.6,723445 39707.7,722292 39666.7,721139 39625.8,719988 39584.9,718838 39544,717689 39503.1,716541 39462.3,715394 
  39421.5,714249 39380.7,713105 39339.9,711962 39299.2,710821 39258.4,709681 39217.7,708541 39177,707403 39136.4,706267 39095.7,705131 39055.1,703997 
  39014.5,702864 38973.9,701732 38933.4,700602 38892.9,699472 38852.3,698344 38811.8,697217 38771.4,696091 38730.9,694967 38690.5,693844 38650.1,692722 
  38609.7,691601 38569.4,690481 38529,689363 38488.7,688245 38448.4,687129 38408.1,686014 38367.9,684901 38327.7,683788 38287.5,682677 38247.3,681567 
  38207.1,680458 38167,679351 38126.9,678244 38086.8,677139 38046.7,676035 38006.6,674933 37966.6,673831 37926.6,672731 37886.6,671631 37846.6,670533 
  37806.7,669437 37766.8,668341 37726.9,667247 37687,666154 37647.1,665062 37607.3,663971 37567.5,662881 37527.7,661793 37487.9,660706 37448.2,659619 
  37408.4,658535 37368.7,657451 37329.1,656369 37289.4,655287 37249.8,654207 37210.1,653128 37170.5,652051 37131,650974 37091.4,649899 37051.9,648825 
  37012.4,647752 36972.9,646680 36933.4,645609 36894,644540 36854.6,643472 36815.2,642405 36775.8,641339 36736.4,640274 36697.1,639211 36657.8,638149 
  36618.5,637087 36579.2,636027 36540,634969 36500.8,633911 36461.6,632855 36422.4,631799 36383.2,630745 36344.1,629693 36305,628641 36265.9,627590 
  36226.8,626541 36187.7,625493 36148.7,624446 36109.7,623400 36070.7,622355 36031.8,621312 35992.8,620269 35953.9,619228 35915,618188 35876.1,617149 
  35837.3,616112 35798.4,615075 35759.6,614040 35720.9,613006 35682.1,611972 35643.3,610941 35604.6,609910 35565.9,608880 35527.2,607852 35488.6,606825 
  35449.9,605799 35411.3,604774 35372.7,603750 35334.2,602728 35295.6,601706 35257.1,600686 35218.6,599667 35180.1,598649 35141.7,597632 35103.2,596616 
  35064.8,595602 35026.4,594588 34988,593576 34949.7,592565 34911.3,591555 34873,590547 34834.8,589539 34796.5,588533 34758.2,587527 34720,586523 
  34681.8,585520 34643.6,584518 34605.5,583518 34567.4,582518 34529.2,581520 34491.2,580522 34453.1,579526 34415,578531 34377,577537 34339,576545 
  34301,575553 34263.1,574562 34225.1,573573 34187.2,572585 34149.3,571598 34111.5,570612 34073.6,569627 34035.8,568644 33998,567661 33960.2,566680 
  33922.4,565700 33884.7,564721 33847,563743 33809.3,562766 33771.6,561790 33733.9,560816 33696.3,559842 33658.7,558870 33621.1,557899 33583.5,556929 
  33546,555960 33508.5,554992 33471,554025 33433.5,553060 33396,552095 33358.6,551132 33321.2,550170 33283.8,549209 33246.4,548249 33209.1,547290 
  33171.8,546332 33134.5,545376 33097.2,544420 33059.9,543466 33022.7,542513 32985.5,541561 32948.3,540610 32911.1,539660 32873.9,538711 32836.8,537763 
  32799.7,536817 32762.6,535871 32725.6,534927 32688.5,533984 32651.5,533042 32614.5,532101 32577.5,531161 32540.6,530222 32503.6,529285 32466.7,528348 
  32429.8,527413 32393,526478 32356.1,525545 32319.3,524613 32282.5,523682 32245.7,522752 32208.9,521823 32172.2,520896 32135.5,519969 32098.8,519044 
  32062.1,518119 32025.5,517196 31988.9,516274 31952.2,515353 31915.7,514433 31879.1,513514 31842.6,512596 31806,511679 31769.5,510764 31733.1,509849 
  31696.6,508936 31660.2,508023 31623.8,507112 31587.4,506202 31551,505293 31514.7,504385 31478.4,503478 31442.1,502572 31405.8,501668 31369.5,500764 
  31333.3,499861 31297.1,498960 31260.9,498060 31224.7,497160 31188.6,496262 31152.4,495365 31116.3,494469 31080.3,493574 31044.2,492680 31008.2,491788 
  30972.1,490896 30936.1,490005 30900.2,489116 30864.2,488227 30828.3,487340 30792.4,486454 30756.5,485568 30720.6,484684 30684.8,483801 30649,482919 
  30613.2,482038 30577.4,481158 30541.6,480280 30505.9,479402 30470.2,478525 30434.5,477650 30398.8,476775 30363.2,475902 30327.6,475030 30292,474158 
  30256.4,473288 30220.8,472419 30185.3,471551 30149.8,470684 30114.3,469818 30078.8,468953 30043.4,468089 30007.9,467227 29972.5,466365 29937.1,465504 
  29901.8,464645 29866.4,463786 29831.1,462929 29795.8,462072 29760.6,461217 29725.3,460363 29690.1,459510 29654.9,458657 29619.7,457806 29584.5,456956 
  29549.4,456107 29514.2,455259 29479.1,454412 29444.1,453567 29409,452722 29374,451878 29339,451035 29304,450194 29269,449353 29234.1,448514 
  29199.1,447675 29164.2,446838 29129.3,446001 29094.5,445166 29059.6,444332 29024.8,443499 28990,442666 28955.3,441835 28920.5,441005 28885.8,440176 
  28851.1,439348 28816.4,438521 28781.7,437695 28747.1,436870 28712.5,436046 28677.9,435223 28643.3,434402 28608.7,433581 28574.2,432761 28539.7,431943 
  28505.2,431125 28470.7,430308 28436.3,429493 28401.9,428678 28367.5,427865 28333.1,427052 28298.7,426241 28264.4,425430 28230.1,424621 28195.8,423812 
  28161.5,423005 28127.3,422199 28093,421394 28058.8,420589 28024.6,419786 27990.5,418984 27956.3,418183 27922.2,417382 27888.1,416583 27854.1,415785 
  27820,414988 27786,414192 27752,413397 27718,412603 27684,411810 27650.1,411018 27616.1,410227 27582.2,409437 27548.4,408648 27514.5,407860 
  27480.7,407073 27446.9,406287 27413.1,405503 27379.3,404719 27345.6,403936 27311.8,403154 27278.1,402373 27244.4,401593 27210.8,400815 27177.1,400037 
  27143.5,399260 27109.9,398484 27076.4,397709 27042.8,396936 27009.3,396163 26975.8,395391 26942.3,394620 26908.8,393851 26875.4,393082 26842,392314 
  26808.6,391547 26775.2,390782 26741.8,390017 26708.5,389253 26675.2,388490 26641.9,387729 26608.6,386968 26575.4,386208 26542.2,385450 26509,384692 
  26475.8,383935 26442.6,383179 26409.5,382425 26376.4,381671 26343.3,380918 26310.2,380166 26277.2,379415 26244.1,378666 26211.1,377917 26178.1,377169 
  26145.2,376422 26112.2,375676 26079.3,374931 26046.4,374188 26013.6,373445 25980.7,372703 25947.9,371962 25915.1,371222 25882.3,370483 25849.5,369745 
  25816.8,369008 25784,368272 25751.3,367537 25718.7,366803 25686,366070 25653.4,365338 25620.8,364607 25588.2,363877 25555.6,363148 25523.1,362420 
  25490.5,361692 25458,360966 25425.5,360241 25393.1,359517 25360.7,358793 25328.2,358071 25295.8,357350 25263.5,356629 25231.1,355910 25198.8,355191 
  25166.5,354474 25134.2,353758 25101.9,353042 25069.7,352327 25037.5,351614 25005.3,350901 24973.1,350190 24940.9,349479 24908.8,348769 24876.7,348060 
  24844.6,347353 24812.5,346646 24780.5,345940 24748.5,345235 24716.5,344531 24684.5,343828 24652.5,343126 24620.6,342425 24588.7,341725 24556.8,341026 
  24524.9,340327 24493.1,339630 24461.2,338934 24429.4,338239 24397.7,337544 24365.9,336851 24334.2,336158 24302.4,335467 24270.7,334776 24239.1,334087 
  24207.4,333398 24175.8,332710 24144.2,332023 24112.6,331338 24081,330653 24049.5,329969 24018,329286 23986.5,328604 23955,327923 23923.5,327242 
  23892.1,326563 23860.7,325885 23829.3,325208 23797.9,324531 23766.6,323856 23735.3,323181 23703.9,322508 23672.7,321835 23641.4,321163 23610.2,320493 
  23579,319823 23547.8,319154 23516.6,318486 23485.4,317819 23454.3,317153 23423.2,316488 23392.1,315824 23361.1,315160 23330,314498 23299,313837 
  23268,313176 23237,312517 23206.1,311858 23175.1,311200 23144.2,310543 23113.3,309888 23082.5,309233 23051.6,308579 23020.8,307926 22990,307273 
  22959.2,306622 22928.5,305972 22897.7,305323 22867,304674 22836.3,304027 22805.6,303380 22775,302734 22744.4,302090 22713.8,301446 22683.2,300803 
  22652.6,300161 22622.1,299520 22591.6,298879 22561.1,298240 22530.6,297602 22500.1,296964 22469.7,296328 22439.3,295692 22408.9,295058 22378.6,294424 
  22348.2,293791 22317.9,293159 22287.6,292528 22257.3,291898 22227.1,291268 22196.8,290640 22166.6,290013 22136.4,289386 22106.3,288761 22076.1,288136 
  22046,287512 22015.9,286889 21985.8,286267 21955.7,285646 21925.7,285026 21895.7,284407 21865.7,283788 21835.7,283171 21805.8,282554 21775.8,281938 
  21745.9,281324 21716,280710 21686.2,280097 21656.3,279484 21626.5,278873 21596.7,278263 21567,277654 21537.2,277045 21507.5,276437 21477.8,275831 
  21448.1,275225 21418.4,274620 21388.8,274016 21359.1,273412 21329.5,272810 21300,272209 21270.4,271608 21240.9,271009 21211.3,270410 21181.9,269812 
  21152.4,269215 21122.9,268619 21093.5,268024 21064.1,267429 21034.7,266836 21005.4,266243 20976,265651 20946.7,265061 20917.4,264471 20888.1,263882 
  20858.9,263293 20829.7,262706 20800.4,262120 20771.3,261534 20742.1,260950 20713,260366 20683.8,259783 20654.7,259201 20625.7,258620 20596.6,258039 
  20567.6,257460 20538.6,256881 20509.6,256304 20480.6,255727 20451.6,255151 20422.7,254576 20393.8,254001 20364.9,253428 20336.1,252856 20307.2,252284 
  20278.4,251713 20249.6,251143 20220.9,250574 20192.1,250006 20163.4,249439 20134.7,248872 20106,248307 20077.3,247742 20048.7,247178 20020.1,246615 
  19991.5,246053 19962.9,245492 19934.3,244931 19905.8,244372 19877.3,243813 19848.8,243255 19820.3,242698 19791.9,242142 19763.5,241587 19735.1,241032 
  19706.7,240478 19678.3,239926 19650,239374 19621.7,238823 19593.4,238273 19565.1,237723 19536.9,237175 19508.7,236627 19480.5,236080 19452.3,235534 
  19424.1,234989 19396,234445 19367.9,233901 19339.8,233359 19311.7,232817 19283.6,232276 19255.6,231736 19227.6,231197 19199.6,230658 19171.6,230121 
  19143.7,229584 19115.8,229048 19087.9,228513 19060,227979 19032.1,227446 19004.3,226913 18976.5,226382 18948.7,225851 18920.9,225321 18893.2,224791 
  18865.5,224263 18837.8,223736 18810.1,223209 18782.4,222683 18754.8,222158 18727.2,221634 18699.6,221110 18672,220588 18644.5,220066 18616.9,219545 
  18589.4,219025 18561.9,218506 18534.5,217987 18507,217470 18479.6,216953 18452.2,216437 18424.8,215922 18397.5,215408 18370.2,214894 18342.9,214382 
  18315.6,213870 18288.3,213359 18261.1,212848 18233.8,212339 18206.6,211830 18179.5,211323 18152.3,210816 18125.2,210310 18098,209804 18071,209300 
  18043.9,208796 18016.8,208293 17989.8,207791 17962.8,207290 17935.8,206789 17908.9,206290 17881.9,205791 17855,205293 17828.1,204796 17801.2,204299 
  17774.4,203804 17747.6,203309 17720.8,202815 17694,202322 17667.2,201829 17640.5,201338 17613.7,200847 17587,200357 17560.4,199868 17533.7,199379 
  17507.1,198892 17480.5,198405 17453.9,197919 17427.3,197434 17400.8,196949 17374.2,196466 17347.7,195983 17321.3,195501 17294.8,195020 17268.4,194539 
  17241.9,194060 17215.5,193581 17189.2,193103 17162.8,192625 17136.5,192149 17110.2,191673 17083.9,191198 17057.6,190724 17031.4,190251 17005.2,189778 
  16979,189307 16952.8,188836 16926.7,188366 16900.5,187896 16874.4,187428 16848.3,186960 16822.3,186493 16796.2,186026 16770.2,185561 16744.2,185096 
  16718.2,184632 16692.3,184169 16666.3,183707 16640.4,183245 16614.5,182784 16588.7,182324 16562.8,181865 16537,181407 16511.2,180949 16485.4,180492 
  16459.6,180036 16433.9,179581 16408.2,179126 16382.5,178672 16356.8,178219 16331.2,177767 16305.5,177315 16279.9,176864 16254.3,176414 16228.8,175965 
  16203.2,175517 16177.7,175069 16152.2,174622 16126.7,174176 16101.3,173731 16075.8,173286 16050.4,172842 16025,172399 15999.7,171957 15974.3,171515 
  15949,171074 15923.7,170634 15898.4,170195 15873.2,169756 15847.9,169318 15822.7,168881 15797.5,168445 15772.3,168010 15747.2,167575 15722.1,167141 
  15697,166708 15671.9,166275 15646.8,165843 15621.8,165412 15596.8,164982 15571.8,164553 15546.8,164124 15521.8,163696 15496.9,163269 15472,162842 
  15447.1,162416 15422.2,161991 15397.4,161567 15372.6,161143 15347.8,160721 15323,160299 15298.2,159877 15273.5,159457 15248.8,159037 15224.1,158618 
  15199.4,158200 15174.8,157782 15150.2,157365 15125.6,156949 15101,156534 15076.4,156119 15051.9,155705 15027.4,155292 15002.9,154879 14978.4,154468 
  14953.9,154057 14929.5,153647 14905.1,153237 14880.7,152828 14856.4,152420 14832,152013 14807.7,151606 14783.4,151201 14759.1,150795 14734.9,150391 
  14710.6,149987 14686.4,149584 14662.2,149182 14638.1,148781 14613.9,148380 14589.8,147980 14565.7,147581 14541.6,147182 14517.5,146784 14493.5,146387 
  14469.5,145991 14445.5,145595 14421.5,145200 14397.6,144806 14373.7,144412 14349.7,144019 14325.9,143627 14302,143236 14278.2,142845 14254.3,142455 
  14230.5,142066 14206.8,141677 14183,141290 14159.3,140902 14135.6,140516 14111.9,140130 14088.2,139745 14064.6,139361 14041,138977 14017.4,138595 
  13993.8,138212 13970.2,137831 13946.7,137450 13923.2,137070 13899.7,136691 13876.2,136312 13852.8,135934 13829.3,135557 13805.9,135181 13782.6,134805 
  13759.2,134430 13735.9,134055 13712.5,133682 13689.3,133309 13666,132936 13642.7,132565 13619.5,132194 13596.3,131824 13573.1,131454 13549.9,131085 
  13526.8,130717 13503.7,130350 13480.6,129983 13457.5,129617 13434.5,129252 13411.4,128887 13388.4,128523 13365.4,128160 13342.5,127797 13319.5,127435 
  13296.6,127074 13273.7,126713 13250.8,126354 13227.9,125994 13205.1,125636 13182.3,125278 13159.5,124921 13136.7,124565 13114,124209 13091.2,123854 
  13068.5,123499 13045.9,123146 13023.2,122793 13000.6,122440 12977.9,122089 12955.3,121738 12932.8,121387 12910.2,121038 12887.7,120689 12865.2,120341 
  12842.7,119993 12820.2,119646 12797.8,119300 12775.4,118954 12753,118609 12730.6,118265 12708.2,117922 12685.9,117579 12663.6,117236 12641.3,116895 
  12619,116554 12596.8,116214 12574.5,115874 12552.3,115535 12530.2,115197 12508,114860 12485.9,114523 12463.7,114187 12441.7,113851 12419.6,113516 
  12397.5,113182 12375.5,112848 12353.5,112515 12331.5,112183 12309.5,111851 12287.6,111521 12265.7,111190 12243.8,110861 12221.9,110532 12200.1,110203 
  12178.2,109876 12156.4,109549 12134.6,109222 12112.9,108897 12091.1,108572 12069.4,108247 12047.7,107924 12026,107600 12004.3,107278 11982.7,106956 
  11961.1,106635 11939.5,106315 11917.9,105995 11896.4,105676 11874.9,105357 11853.3,105039 11831.9,104722 11810.4,104405 11789,104089 11767.5,103774 
  11746.2,103459 11724.8,103145 11703.4,102832 11682.1,102519 11660.8,102207 11639.5,101895 11618.2,101585 11597,101274 11575.8,100965 11554.6,100656 
  11533.4,100348 11512.2,100040 11491.1,99732.9 11470,99426.5 11448.9,99120.8 11427.8,98815.7 11406.8,98511.2 11385.8,98207.3 11364.8,97904.1 11343.8,97601.4 
  11322.8,97299.5 11301.9,96998.1 11281,96697.4 11260.1,96397.3 11239.2,96097.8 11218.3,95799 11197.5,95500.8 11176.7,95203.2 11155.9,94906.2 11135.2,94609.9 
  11114.4,94314.2 11093.7,94019.1 11073,93724.6 11052.3,93430.7 11031.7,93137.5 11011,92844.9 10990.4,92552.9 10969.8,92261.5 10949.3,91970.7 10928.7,91680.6 
  10908.2,91391 10887.7,91102.1 10867.2,90813.8 10846.8,90526.1 10826.3,90239.1 10805.9,89952.6 10785.5,89666.7 10765.1,89381.5 10744.8,89096.9 10724.5,88812.9 
  10704.2,88529.4 10683.9,88246.7 10663.6,87964.5 10643.4,87682.9 10623.2,87401.9 10603,87121.5 10582.8,86841.8 10562.6,86562.6 10542.5,86284 10522.4,86006.1 
  10502.3,85728.7 10482.3,85452 10462.2,85175.9 10442.2,84900.3 10422.2,84625.4 10402.2,84351 10382.3,84077.3 10362.3,83804.1 10342.4,83531.6 10322.5,83259.6 
  10302.6,82988.3 10282.8,82717.5 10263,82447.3 10243.2,82177.8 10223.4,81908.8 10203.6,81640.4 10183.9,81372.6 10164.2,81105.4 10144.5,80838.8 10124.8,80572.8 
  10105.2,80307.4 10085.5,80042.5 10065.9,79778.3 10046.3,79514.6 10026.8,79251.5 10007.2,78989.1 9987.72,78727.2 9968.22,78465.8 9948.74,78205.1 9929.29,77945 
  9909.86,77685.4 9890.45,77426.4 9871.06,77168 9851.69,76910.2 9832.35,76652.9 9813.02,76396.3 9793.72,76140.2 9774.44,75884.7 9755.18,75629.8 9735.95,75375.4 
  9716.74,75121.7 9697.54,74868.5 9678.37,74615.9 9659.22,74363.8 9640.1,74112.3 9620.99,73861.5 9601.91,73611.1 9582.85,73361.4 9563.81,73112.2 9544.79,72863.6 
  9525.8,72615.6 9506.82,72368.1 9487.87,72121.2 9468.94,71874.9 9450.03,71629.1 9431.14,71383.9 9412.28,71139.3 9393.44,70895.2 9374.61,70651.7 9355.82,70408.8 
  9337.04,70166.4 9318.28,69924.6 9299.55,69683.3 9280.84,69442.7 9262.15,69202.5 9243.48,68963 9224.83,68724 9206.21,68485.5 9187.6,68247.6 9169.02,68010.3 
  9150.46,67773.5 9131.93,67537.3 9113.41,67301.7 9094.92,67066.6 9076.44,66832 9057.99,66598 9039.56,66364.6 9021.16,66131.7 9002.77,65899.4 8984.41,65667.6 
  8966.07,65436.3 8947.75,65205.6 8929.45,64975.5 8911.18,64745.9 8892.92,64516.9 8874.69,64288.4 8856.48,64060.4 8838.29,63833 8820.13,63606.2 8801.98,63379.9 
  8783.86,63154.1 8765.76,62928.9 8747.68,62704.2 8729.62,62480.1 8711.58,62256.5 8693.57,62033.4 8675.58,61810.9 8657.61,61588.9 8639.66,61367.5 8621.73,61146.6 
  8603.83,60926.2 8585.95,60706.4 8568.09,60487.1 8550.25,60268.4 8532.43,60050.1 8514.63,59832.5 8496.86,59615.3 8479.11,59398.7 8461.38,59182.6 8443.67,58967 
  8425.98,58752 8408.32,58537.5 8390.68,58323.6 8373.05,58110.1 8355.46,57897.2 8337.88,57684.9 8320.32,57473 8302.79,57261.7 8285.28,57050.9 8267.79,56840.6 
  8250.32,56630.9 8232.87,56421.6 8215.45,56212.9 8198.04,56004.7 8180.66,55797.1 8163.3,55589.9 8145.97,55383.3 8128.65,55177.2 8111.36,54971.6 8094.09,54766.6 
  8076.84,54562 8059.61,54358 8042.4,54154.5 8025.22,53951.5 8008.05,53749 7990.91,53547.1 7973.79,53345.6 7956.7,53144.7 7939.62,52944.3 7922.57,52744.4 
  7905.54,52545 7888.53,52346.1 7871.54,52147.7 7854.57,51949.8 7837.63,51752.5 7820.7,51555.6 7803.8,51359.3 7786.92,51163.4 7770.07,50968.1 7753.23,50773.3 
  7736.42,50578.9 7719.63,50385.1 7702.86,50191.8 7686.11,49999 7669.38,49806.7 7652.68,49614.9 7635.99,49423.6 7619.33,49232.8 7602.69,49042.4 7586.08,48852.6 
  7569.48,48663.3 7552.91,48474.5 7536.36,48286.2 7519.83,48098.4 7503.32,47911 7486.83,47724.2 7470.37,47537.9 7453.93,47352 7437.5,47166.7 7421.11,46981.8 
  7404.73,46797.5 7388.37,46613.6 7372.04,46430.2 7355.73,46247.3 7339.44,46064.9 7323.17,45883 7306.92,45701.5 7290.7,45520.6 7274.5,45340.2 7258.32,45160.2 
  7242.16,44980.7 7226.02,44801.7 7209.9,44623.2 7193.81,44445.1 7177.74,44267.6 7161.69,44090.5 7145.66,43913.9 7129.66,43737.8 7113.67,43562.2 7097.71,43387 
  7081.77,43212.4 7065.85,43038.2 7049.95,42864.5 7034.08,42691.2 7018.22,42518.5 7002.39,42346.2 6986.58,42174.4 6970.79,42003 6955.03,41832.2 6939.28,41661.8 
  6923.56,41491.8 6907.86,41322.4 6892.18,41153.4 6876.52,40984.9 6860.89,40816.9 6845.28,40649.3 6829.68,40482.2 6814.11,40315.6 6798.57,40149.4 6783.04,39983.7 
  6767.54,39818.4 6752.05,39653.7 6736.59,39489.4 6721.15,39325.5 6705.74,39162.1 6690.34,38999.2 6674.97,38836.8 6659.62,38674.8 6644.29,38513.2 6628.98,38352.2 
  6613.69,38191.5 6598.43,38031.4 6583.19,37871.7 6567.97,37712.4 6552.77,37553.6 6537.59,37395.3 6522.43,37237.4 6507.3,37080 6492.19,36923 6477.1,36766.5 
  6462.03,36610.4 6446.99,36454.8 6431.96,36299.7 6416.96,36145 6401.98,35990.7 6387.02,35836.9 6372.08,35683.5 6357.17,35530.6 6342.27,35378.1 6327.4,35226.1 
  6312.55,35074.5 6297.73,34923.4 6282.92,34772.7 6268.14,34622.5 6253.37,34472.7 6238.63,34323.3 6223.91,34174.4 6209.22,34025.9 6194.54,33877.9 6179.89,33730.3 
  6165.26,33583.1 6150.65,33436.4 6136.06,33290.1 6121.49,33144.3 6106.95,32998.9 6092.43,32853.9 6077.93,32709.4 6063.45,32565.3 6048.99,32421.6 6034.56,32278.4 
  6020.14,32135.6 6005.75,31993.2 5991.38,31851.3 5977.03,31709.8 5962.71,31568.7 5948.4,31428.1 5934.12,31287.8 5919.86,31148.1 5905.62,31008.7 5891.41,30869.8 
  5877.21,30731.2 5863.04,30593.2 5848.89,30455.5 5834.76,30318.3 5820.65,30181.5 5806.56,30045.1 5792.5,29909.1 5778.46,29773.6 5764.44,29638.5 5750.44,29503.7 
  5736.46,29369.5 5722.51,29235.6 5708.57,29102.2 5694.66,28969.1 5680.77,28836.5 5666.9,28704.3 5653.06,28572.6 5639.23,28441.2 5625.43,28310.2 5611.65,28179.7 
  5597.89,28049.6 5584.16,27919.9 5570.44,27790.6 5556.75,27661.7 5543.08,27533.2 5529.43,27405.1 5515.8,27277.5 5502.19,27150.2 5488.61,27023.4 5475.05,26897 
  5461.51,26770.9 5447.99,26645.3 5434.49,26520.1 5421.02,26395.3 5407.56,26270.9 5394.13,26146.9 5380.72,26023.3 5367.34,25900.1 5353.97,25777.3 5340.63,25654.9 
  5327.3,25532.9 5314,25411.3 5300.73,25290.1 5287.47,25169.3 5274.23,25048.9 5261.02,24928.9 5247.83,24809.3 5234.66,24690.1 5221.51,24571.2 5208.39,24452.8 
  5195.28,24334.8 5182.2,24217.1 5169.14,24099.9 5156.1,23983 5143.09,23866.6 5130.09,23750.5 5117.12,23634.8 5104.17,23519.5 5091.24,23404.6 5078.33,23290.1 
  5065.44,23175.9 5052.58,23062.2 5039.74,22948.8 5026.92,22835.8 5014.12,22723.2 5001.34,22611 4988.59,22499.2 4975.86,22387.8 4963.14,22276.7 4950.46,22166 
  4937.79,22055.7 4925.14,21945.8 4912.52,21836.2 4899.92,21727.1 4887.34,21618.3 4874.78,21509.9 4862.24,21401.9 4849.73,21294.2 4837.23,21186.9 4824.76,21080 
  4812.31,20973.5 4799.89,20867.3 4787.48,20761.5 4775.1,20656.1 4762.73,20551.1 4750.39,20446.4 4738.08,20342.1 4725.78,20238.1 4713.5,20134.6 4701.25,20031.4 
  4689.02,19928.5 4676.81,19826.1 4664.62,19724 4652.46,19622.2 4640.31,19520.9 4628.19,19419.9 4616.09,19319.2 4604.01,19218.9 4591.96,19119 4579.92,19019.5 
  4567.91,18920.3 4555.92,18821.4 4543.95,18723 4532,18624.8 4520.08,18527.1 4508.17,18429.7 4496.29,18332.6 4484.43,18235.9 4472.59,18139.6 4460.78,18043.6 
  4448.98,17948 4437.21,17852.7 4425.46,17757.8 4413.73,17663.2 4402.02,17569 4390.34,17475.2 4378.67,17381.7 4367.03,17288.5 4355.41,17195.7 4343.81,17103.2 
  4332.24,17011.1 4320.68,16919.3 4309.15,16827.9 4297.64,16736.8 4286.15,16646.1 4274.68,16555.7 4263.24,16465.6 4251.81,16375.9 4240.41,16286.6 4229.03,16197.5 
  4217.67,16108.9 4206.34,16020.5 4195.02,15932.5 4183.73,15844.9 4172.46,15757.6 4161.21,15670.6 4149.98,15583.9 4138.78,15497.6 4127.59,15411.6 4116.43,15326 
  4105.29,15240.7 4094.17,15155.7 4083.08,15071.1 4072,14986.8 4060.95,14902.8 4049.92,14819.2 4038.91,14735.9 4027.92,14652.9 4016.96,14570.2 4006.01,14487.9 
  3995.09,14405.9 3984.19,14324.2 3973.31,14242.9 3962.46,14161.9 3951.62,14081.2 3940.81,14000.8 3930.02,13920.8 3919.25,13841.1 3908.5,13761.7 3897.78,13682.6 
  3887.07,13603.9 3876.39,13525.4 3865.73,13447.3 3855.09,13369.5 3844.48,13292 3833.88,13214.9 3823.31,13138.1 3812.76,13061.5 3802.23,12985.3 3791.72,12909.4 
  3781.24,12833.9 3770.78,12758.6 3760.33,12683.7 3749.91,12609 3739.52,12534.7 3729.14,12460.7 3718.79,12387 3708.45,12313.6 3698.14,12240.5 3687.85,12167.8 
  3677.59,12095.3 3667.34,12023.2 3657.12,11951.3 3646.92,11879.8 3636.74,11808.5 3626.58,11737.6 3616.44,11667 3606.33,11596.7 3596.23,11526.7 3586.16,11456.9 
  3576.12,11387.5 3566.09,11318.4 3556.08,11249.6 3546.1,11181.1 3536.14,11112.9 3526.2,11045 3516.28,10977.4 3506.38,10910 3496.51,10843 3486.66,10776.3 
  3476.83,10709.9 3467.02,10643.7 3457.23,10577.9 3447.47,10512.3 3437.72,10447.1 3428,10382.1 3418.3,10317.4 3408.62,10253.1 3398.97,10189 3389.33,10125.2 
  3379.72,10061.6 3370.13,9998.42 3360.56,9935.48 3351.01,9872.83 3341.49,9810.46 3331.99,9748.38 3322.5,9686.59 3313.04,9625.08 3303.61,9563.85 3294.19,9502.9 
  3284.8,9442.24 3275.42,9381.86 3266.07,9321.76 3256.74,9261.94 3247.44,9202.39 3238.15,9143.13 3228.89,9084.15 3219.65,9025.44 3210.43,8967.01 3201.23,8908.86 
  3192.05,8850.98 3182.9,8793.38 3173.77,8736.05 3164.66,8679 3155.57,8622.21 3146.5,8565.7 3137.46,8509.47 3128.43,8453.5 3119.43,8397.8 3110.45,8342.38 
  3101.49,8287.22 3092.56,8232.33 3083.64,8177.71 3074.75,8123.35 3065.88,8069.26 3057.03,8015.44 3048.21,7961.89 3039.4,7908.59 3030.62,7855.56 3021.86,7802.8 
  3013.12,7750.3 3004.4,7698.05 2995.7,7646.07 2987.03,7594.36 2978.38,7542.9 2969.75,7491.7 2961.14,7440.75 2952.55,7390.07 2943.99,7339.64 2935.44,7289.47 
  2926.92,7239.56 2918.42,7189.9 2909.94,7140.5 2901.49,7091.35 2893.05,7042.45 2884.64,6993.81 2876.25,6945.41 2867.88,6897.27 2859.54,6849.38 2851.21,6801.74 
  2842.91,6754.35 2834.63,6707.21 2826.37,6660.32 2818.13,6613.67 2809.91,6567.27 2801.72,6521.12 2793.55,6475.21 2785.4,6429.55 2777.27,6384.13 2769.16,6338.96 
  2761.08,6294.03 2753.01,6249.34 2744.97,6204.89 2736.95,6160.68 2728.95,6116.71 2720.98,6072.99 2713.02,6029.5 2705.09,5986.25 2697.18,5943.23 2689.29,5900.46 
  2681.43,5857.92 2673.58,5815.62 2665.76,5773.55 2657.96,5731.71 2650.18,5690.11 2642.42,5648.75 2634.68,5607.61 2626.97,5566.71 2619.28,5526.04 2611.61,5485.59 
  2603.96,5445.38 2596.33,5405.4 2588.73,5365.64 2581.15,5326.12 2573.58,5286.82 2566.04,5247.75 2558.53,5208.9 2551.03,5170.28 2543.56,5131.88 2536.11,5093.71 
  2528.67,5055.76 2521.27,5018.03 2513.88,4980.52 2506.51,4943.24 2499.17,4906.17 2491.85,4869.33 2484.55,4832.71 2477.27,4796.3 2470.02,4760.11 2462.78,4724.14 
  2455.57,4688.39 2448.38,4652.85 2441.21,4617.53 2434.07,4582.42 2426.94,4547.53 2419.84,4512.85 2412.76,4478.38 2405.7,4444.12 2398.66,4410.08 2391.65,4376.25 
  2384.65,4342.62 2377.68,4309.21 2370.73,4276 2363.8,4243.01 2356.89,4210.22 2350.01,4177.64 2343.15,4145.26 2336.31,4113.09 2329.49,4081.13 2322.69,4049.36 
  2315.91,4017.81 2309.16,3986.45 2302.43,3955.3 2295.72,3924.35 2289.03,3893.6 2282.36,3863.05 2275.72,3832.7 2269.1,3802.55 2262.49,3772.6 2255.91,3742.84 
  2249.36,3713.29 2242.82,3683.92 2236.31,3654.76 2229.82,3625.79 2223.35,3597.01 2216.9,3568.43 2210.47,3540.04 2204.07,3511.85 2197.68,3483.84 2191.32,3456.03 
  2184.98,3428.4 2178.67,3400.97 2172.37,3373.73 2166.1,3346.67 2159.84,3319.8 2153.61,3293.12 2147.41,3266.63 2141.22,3240.32 2135.06,3214.2 2128.91,3188.26 
  2122.79,3162.51 2116.69,3136.94 2110.62,3111.55 2104.56,3086.34 2098.53,3061.32 2092.51,3036.47 2086.52,3011.81 2080.56,2987.32 2074.61,2963.02 2068.68,2938.89 
  2062.78,2914.94 2056.9,2891.17 2051.04,2867.57 2045.2,2844.15 2039.39,2820.9 2033.6,2797.83 2027.82,2774.93 2022.07,2752.2 2016.35,2729.64 2010.64,2707.26 
  2004.95,2685.05 1999.29,2663.01 1993.65,2641.13 1988.03,2619.43 1982.43,2597.89 1976.86,2576.53 1971.31,2555.33 1965.77,2534.29 1960.26,2513.42 1954.78,2492.72 
  1949.31,2472.18 1943.86,2451.8 1938.44,2431.59 1933.04,2411.54 1927.66,2391.65 1922.31,2371.92 1916.97,2352.35 1911.66,2332.95 1906.36,2313.7 1901.09,2294.61 
  1895.85,2275.67 1890.62,2256.9 1885.42,2238.28 1880.23,2219.82 1875.07,2201.51 1869.93,2183.35 1864.82,2165.35 1859.72,2147.51 1854.65,2129.81 1849.6,2112.27 
  1844.57,2094.88 1839.56,2077.64 1834.57,2060.55 1829.61,2043.61 1824.66,2026.82 1819.74,2010.17 1814.84,1993.67 1809.97,1977.32 1805.11,1961.12 1800.28,1945.06 
  1795.47,1929.15 1790.68,1913.37 1785.91,1897.75 1781.16,1882.26 1776.44,1866.92 1771.74,1851.72 1767.05,1836.66 1762.4,1821.74 1757.76,1806.96 1753.14,1792.32 
  1748.55,1777.81 1743.98,1763.45 1739.43,1749.22 1734.9,1735.12 1730.39,1721.16 1725.91,1707.34 1721.45,1693.65 1717.01,1680.1 1712.59,1666.68 1708.19,1653.39 
  1703.82,1640.23 1699.46,1627.2 1695.13,1614.3 1690.82,1601.53 1686.53,1588.89 1682.27,1576.38 1678.02,1564 1673.8,1551.75 1669.6,1539.62 1665.42,1527.61 
  1661.26,1515.73 1657.13,1503.98 1653.01,1492.35 1648.92,1480.84 1644.85,1469.46 1640.81,1458.19 1636.78,1447.05 1632.78,1436.03 1628.79,1425.13 1624.83,1414.34 
  1620.89,1403.68 1616.98,1393.13 1613.08,1382.7 1609.21,1372.39 1605.36,1362.19 1601.53,1352.11 1597.72,1342.14 1593.93,1332.29 1590.17,1322.55 1586.43,1312.92 
  1582.71,1303.41 1579.01,1294 1575.33,1284.71 1571.67,1275.53 1568.04,1266.45 1564.43,1257.49 1560.84,1248.63 1557.27,1239.88 1553.73,1231.24 1550.2,1222.7 
  1546.7,1214.27 1543.22,1205.94 1539.76,1197.72 1536.32,1189.6 1532.91,1181.58 1529.51,1173.67 1526.14,1165.85 1522.79,1158.14 1519.47,1150.53 1516.16,1143.01 
  1512.88,1135.6 1509.61,1128.28 1506.37,1121.07 1503.15,1113.94 1499.96,1106.92 1496.78,1099.99 1493.63,1093.16 1490.5,1086.41 1487.39,1079.77 1484.3,1073.21 
  1481.23,1066.75 1478.19,1060.38 1475.17,1054.1 1472.17,1047.92 1469.19,1041.82 1466.23,1035.81 1463.3,1029.89 1460.38,1024.05 1457.49,1018.31 1454.62,1012.64 
  1451.78,1007.07 1448.95,1001.58 1446.15,996.176 1443.36,990.855 1440.6,985.617 1437.86,980.462 1435.15,975.388 1432.45,970.396 1429.78,965.484 1427.13,960.652 
  1424.5,955.899 1421.89,951.224 1419.3,946.628 1416.74,942.109 1414.2,937.666 1411.68,933.3 1409.18,929.008 1406.7,924.792 1404.25,920.649 1401.81,916.579 
  1399.4,912.583 1397.01,908.658 1394.65,904.805 1392.3,901.022 1389.98,897.309 1387.67,893.666 1385.39,890.092 1383.14,886.585 1380.9,883.146 1378.68,879.774 
  1376.49,876.468 1374.32,873.227 1372.17,870.051 1370.04,866.94 1367.94,863.892 1365.85,860.906 1363.79,857.983 1361.75,855.122 1359.73,852.321 1357.73,849.58 
  1355.76,846.899 1353.81,844.277 1351.88,841.714 1349.97,839.208 1348.08,836.758 1346.21,834.366 1344.37,832.028 1342.55,829.746 1340.75,827.518 1338.97,825.344 
  1337.21,823.223 1335.48,821.154 1333.76,819.137 1332.07,817.171 1330.4,815.255 1328.76,813.39 1327.13,811.573 1325.53,809.804 1323.94,808.084 1322.38,806.411 
  1320.85,804.784 1319.33,803.202 1317.83,801.667 1316.36,800.175 1314.91,798.728 1313.48,797.323 1312.07,795.962 1310.69,794.642 1309.32,793.363 1307.98,792.125 
  1306.66,790.927 1305.36,789.768 1304.09,788.648 1302.83,787.566 1301.6,786.521 1300.39,785.512 1299.2,784.54 1298.03,783.603 1296.88,782.701 1295.76,781.833 
  1294.66,780.998 1293.58,780.196 1292.52,779.426 1291.48,778.687 1290.47,777.98 1289.48,777.302 1288.51,776.654 1287.56,776.034 1286.63,775.443 1285.72,774.879 
  1284.84,774.342 1283.98,773.832 1283.14,773.346 1282.32,772.886 1281.52,772.45 1280.75,772.037 1279.99,771.648 1279.26,771.28 1278.55,770.935 1277.87,770.61 
  1277.2,770.305 1276.56,770.02 1275.94,769.755 1275.34,769.507 1274.76,769.277 1274.2,769.064 1273.67,768.868 1273.15,768.687 1272.66,768.521 1272.19,768.37 
  1271.75,768.232 1271.32,768.108 1270.92,767.996 1270.54,767.895 1270.18,767.806 1269.84,767.728 1269.52,767.659 1269.23,767.599 1268.95,767.548 1268.7,767.505 
  1268.47,767.469 1268.27,767.439 1268.08,767.415 1267.92,767.397 1267.77,767.383 1267.65,767.373 1267.56,767.366 1267.48,767.362 1267.43,767.36 1267.39,767.36 
  1267.38,767.359 1267.39,767.359 1267.43,767.359 1267.48,767.356 1267.56,767.352 1267.65,767.346 1267.77,767.336 1267.92,767.322 1268.08,767.304 1268.27,767.28 
  1268.47,767.25 1268.7,767.214 1268.95,767.171 1269.23,767.12 1269.52,767.06 1269.84,766.991 1270.18,766.913 1270.54,766.823 1270.92,766.723 1271.32,766.611 
  1271.75,766.487 1272.19,766.349 1272.66,766.198 1273.15,766.032 1273.67,765.851 1274.2,765.655 1274.76,765.442 1275.34,765.212 1275.94,764.964 1276.56,764.698 
  1277.2,764.413 1277.87,764.109 1278.55,763.784 1279.26,763.438 1279.99,763.071 1280.75,762.681 1281.52,762.269 1282.32,761.833 1283.14,761.372 1283.98,760.887 
  1284.84,760.376 1285.72,759.84 1286.63,759.276 1287.56,758.685 1288.51,758.065 1289.48,757.417 1290.47,756.739 1291.48,756.031 1292.52,755.293 1293.58,754.523 
  1294.66,753.721 1295.76,752.886 1296.88,752.018 1298.03,751.116 1299.2,750.179 1300.39,749.207 1301.6,748.198 1302.83,747.153 1304.09,746.071 1305.36,744.951 
  1306.66,743.792 1307.98,742.594 1309.32,741.356 1310.69,740.077 1312.07,738.757 1313.48,737.396 1314.91,735.991 1316.36,734.544 1317.83,733.052 1319.33,731.516 
  1320.85,729.935 1322.38,728.308 1323.94,726.635 1325.53,724.914 1327.13,723.146 1328.76,721.329 1330.4,719.463 1332.07,717.548 1333.76,715.582 1335.48,713.565 
  1337.21,711.496 1338.97,709.375 1340.75,707.201 1342.55,704.973 1344.37,702.69 1346.21,700.353 1348.08,697.96 1349.97,695.511 1351.88,693.005 1353.81,690.441 
  1355.76,687.819 1357.73,685.138 1359.73,682.398 1361.75,679.597 1363.79,676.736 1365.85,673.813 1367.94,670.827 1370.04,667.779 1372.17,664.667 1374.32,661.492 
  1376.49,658.251 1378.68,654.945 1380.9,651.573 1383.14,648.134 1385.39,644.627 1387.67,641.053 1389.98,637.41 1392.3,633.697 1394.65,629.914 1397.01,626.061 
  1399.4,622.136 1401.81,618.139 1404.25,614.07 1406.7,609.927 1409.18,605.711 1411.68,601.419 1414.2,597.053 1416.74,592.61 1419.3,588.091 1421.89,583.494 
  1424.5,578.82 1427.13,574.067 1429.78,569.235 1432.45,564.323 1435.15,559.331 1437.86,554.257 1440.6,549.102 1443.36,543.864 1446.15,538.543 1448.95,533.138 
  1451.78,527.648 1454.62,522.074 1457.49,516.414 1460.38,510.667 1463.3,504.833 1466.23,498.912 1469.19,492.902 1472.17,486.803 1475.17,480.615 1478.19,474.336 
  1481.23,467.966 1484.3,461.505 1487.39,454.951 1490.5,448.304 1493.63,441.564 1496.78,434.729 1499.96,427.799 1503.15,420.774 1506.37,413.653 1509.61,406.434 
  1512.88,399.119 1516.16,391.705 1519.47,384.192 1522.79,376.579 1526.14,368.867 1529.51,361.053 1532.91,353.139 1536.32,345.122 1539.76,337.002 1543.22,328.779 
  1546.7,320.451 1550.2,312.019 1553.73,303.482 1557.27,294.839 1560.84,286.088 1564.43,277.231 1568.04,268.265 1571.67,259.191 1575.33,250.008 1579.01,240.714 
  1582.71,231.31 1586.43,221.794 1590.17,212.167 1593.93,202.427 1597.72,192.574 1601.53,182.607 1605.36,172.525 1609.21,162.328 1613.08,152.015 1616.98,141.586 
  1620.89,131.039 1624.83,120.375 1628.79,109.592 1632.78,98.6901 1636.78,87.6683 1640.81,76.5261 1644.85,65.2627 1648.92,53.8776 1653.01,42.37 1657.13,30.7394 
  1661.26,18.985 1665.42,7.10629 1669.6,-4.89749 1673.8,-17.027 1678.02,-29.2828 1682.27,-41.6656 1686.53,-54.1761 1690.82,-66.8149 1695.13,-79.5826 1699.46,-92.48 
  1703.82,-105.508 1708.19,-118.666 1712.59,-131.956 1717.01,-145.379 1721.45,-158.934 1725.91,-172.623 1730.39,-186.446 1734.9,-200.404 1739.43,-214.497 1743.98,-228.727 
  1748.55,-243.093 1753.14,-257.597 1757.76,-272.239 1762.4,-287.02 1767.05,-301.94 1771.74,-317.001 1776.44,-332.202 1781.16,-347.544 1785.91,-363.029 1790.68,-378.656 
  1795.47,-394.427 1800.28,-410.341 1805.11,-426.401 1809.97,-442.605 1814.84,-458.956 1819.74,-475.453 1824.66,-492.098 1829.61,-508.89 1834.57,-525.832 1839.56,-542.922 
  1844.57,-560.162 1849.6,-577.553 1854.65,-595.095 1859.72,-612.789 1864.82,-630.636 1869.93,-648.636 1875.07,-666.789 1880.23,-685.097 1885.42,-703.56 1890.62,-722.179 
  1895.85,-740.955 1901.09,-759.887 1906.36,-778.978 1911.66,-798.227 1916.97,-817.634 1922.31,-837.202 1927.66,-856.93 1933.04,-876.819 1938.44,-896.87 1943.86,-917.083 
  1949.31,-937.459 1954.78,-957.999 1960.26,-978.703 1965.77,-999.572 1971.31,-1020.61 1976.86,-1041.81 1982.43,-1063.18 1988.03,-1084.71 1993.65,-1106.41 1999.29,-1128.29 
  2004.95,-1150.33 2010.64,-1172.54 2016.35,-1194.93 2022.07,-1217.48 2027.82,-1240.21 2033.6,-1263.11 2039.39,-1286.18 2045.2,-1309.43 2051.04,-1332.85 2056.9,-1356.45 
  2062.78,-1380.22 2068.68,-1404.17 2074.61,-1428.3 2080.56,-1452.61 2086.52,-1477.09 2092.51,-1501.75 2098.53,-1526.6 2104.56,-1551.62 2110.62,-1576.83 2116.69,-1602.22 
  2122.79,-1627.79 2128.91,-1653.54 2135.06,-1679.48 2141.22,-1705.6 2147.41,-1731.91 2153.61,-1758.4 2159.84,-1785.08 2166.1,-1811.95 2172.37,-1839.01 2178.67,-1866.25 
  2184.98,-1893.68 2191.32,-1921.31 2197.68,-1949.12 2204.07,-1977.13 2210.47,-2005.32 2216.9,-2033.71 2223.35,-2062.29 2229.82,-2091.07 2236.31,-2120.04 2242.82,-2149.21 
  2249.36,-2178.57 2255.91,-2208.12 2262.49,-2237.88 2269.1,-2267.83 2275.72,-2297.98 2282.36,-2328.33 2289.03,-2358.88 2295.72,-2389.63 2302.43,-2420.58 2309.16,-2451.73 
  2315.91,-2483.09 2322.69,-2514.65 2329.49,-2546.41 2336.31,-2578.37 2343.15,-2610.54 2350.01,-2642.92 2356.89,-2675.5 2363.8,-2708.29 2370.73,-2741.29 2377.68,-2774.49 
  2384.65,-2807.9 2391.65,-2841.53 2398.66,-2875.36 2405.7,-2909.4 2412.76,-2943.66 2419.84,-2978.13 2426.94,-3012.81 2434.07,-3047.7 2441.21,-3082.81 2448.38,-3118.13 
  2455.57,-3153.67 2462.78,-3189.42 2470.02,-3225.39 2477.27,-3261.58 2484.55,-3297.99 2491.85,-3334.61 2499.17,-3371.45 2506.51,-3408.52 2513.88,-3445.8 2521.27,-3483.31 
  2528.67,-3521.04 2536.11,-3558.99 2543.56,-3597.16 2551.03,-3635.56 2558.53,-3674.18 2566.04,-3713.03 2573.58,-3752.1 2581.15,-3791.4 2588.73,-3830.93 2596.33,-3870.68 
  2603.96,-3910.66 2611.61,-3950.87 2619.28,-3991.32 2626.97,-4031.99 2634.68,-4072.89 2642.42,-4114.03 2650.18,-4155.39 2657.96,-4196.99 2665.76,-4238.83 2673.58,-4280.9 
  2681.43,-4323.2 2689.29,-4365.74 2697.18,-4408.52 2705.09,-4451.53 2713.02,-4494.78 2720.98,-4538.27 2728.95,-4581.99 2736.95,-4625.96 2744.97,-4670.17 2753.01,-4714.62 
  2761.08,-4759.31 2769.16,-4804.24 2777.27,-4849.41 2785.4,-4894.83 2793.55,-4940.5 2801.72,-4986.4 2809.91,-5032.56 2818.13,-5078.95 2826.37,-5125.6 2834.63,-5172.49 
  2842.91,-5219.64 2851.21,-5267.03 2859.54,-5314.67 2867.88,-5362.56 2876.25,-5410.7 2884.64,-5459.09 2893.05,-5507.73 2901.49,-5556.63 2909.94,-5605.78 2918.42,-5655.18 
  2926.92,-5704.84 2935.44,-5754.75 2943.99,-5804.92 2952.55,-5855.35 2961.14,-5906.03 2969.75,-5956.98 2978.38,-6008.18 2987.03,-6059.64 2995.7,-6111.36 3004.4,-6163.34 
  3013.12,-6215.58 3021.86,-6268.08 3030.62,-6320.85 3039.4,-6373.87 3048.21,-6427.17 3057.03,-6480.72 3065.88,-6534.55 3074.75,-6588.63 3083.64,-6642.99 3092.56,-6697.61 
  3101.49,-6752.5 3110.45,-6807.66 3119.43,-6863.08 3128.43,-6918.78 3137.46,-6974.75 3146.5,-7030.98 3155.57,-7087.49 3164.66,-7144.28 3173.77,-7201.33 3182.9,-7258.66 
  3192.05,-7316.26 3201.23,-7374.14 3210.43,-7432.29 3219.65,-7490.72 3228.89,-7549.43 3238.15,-7608.41 3247.44,-7667.68 3256.74,-7727.22 3266.07,-7787.04 3275.42,-7847.14 
  3284.8,-7907.52 3294.19,-7968.18 3303.61,-8029.13 3313.04,-8090.36 3322.5,-8151.87 3331.99,-8213.67 3341.49,-8275.75 3351.01,-8338.11 3360.56,-8400.76 3370.13,-8463.7 
  3379.72,-8526.93 3389.33,-8590.44 3398.97,-8654.25 3408.62,-8718.34 3418.3,-8782.72 3428,-8847.39 3437.72,-8912.36 3447.47,-8977.61 3457.23,-9043.16 3467.02,-9109.01 
  3476.83,-9175.14 3486.66,-9241.57 3496.51,-9308.3 3506.38,-9375.32 3516.28,-9442.64 3526.2,-9510.25 3536.14,-9578.17 3546.1,-9646.38 3556.08,-9714.89 3566.09,-9783.7 
  3576.12,-9852.81 3586.16,-9922.23 3596.23,-9991.94 3606.33,-10062 3616.44,-10132.3 3626.58,-10202.9 3636.74,-10273.8 3646.92,-10345.1 3657.12,-10416.6 3667.34,-10488.4 
  3677.59,-10560.6 3687.85,-10633.1 3698.14,-10705.8 3708.45,-10778.9 3718.79,-10852.3 3729.14,-10926 3739.52,-11000 3749.91,-11074.3 3760.33,-11149 3770.78,-11223.9 
  3781.24,-11299.2 3791.72,-11374.7 3802.23,-11450.6 3812.76,-11526.8 3823.31,-11603.3 3833.88,-11680.2 3844.48,-11757.3 3855.09,-11834.8 3865.73,-11912.6 3876.39,-11990.7 
  3887.07,-12069.1 3897.78,-12147.9 3908.5,-12227 3919.25,-12306.4 3930.02,-12386.1 3940.81,-12466.1 3951.62,-12546.5 3962.46,-12627.2 3973.31,-12708.2 3984.19,-12789.5 
  3995.09,-12871.2 4006.01,-12953.2 4016.96,-13035.5 4027.92,-13118.2 4038.91,-13201.1 4049.92,-13284.4 4060.95,-13368.1 4072,-13452.1 4083.08,-13536.4 4094.17,-13621 
  4105.29,-13706 4116.43,-13791.3 4127.59,-13876.9 4138.78,-13962.9 4149.98,-14049.2 4161.21,-14135.8 4172.46,-14222.8 4183.73,-14310.2 4195.02,-14397.8 4206.34,-14485.8 
  4217.67,-14574.2 4229.03,-14662.8 4240.41,-14751.9 4251.81,-14841.2 4263.24,-14930.9 4274.68,-15021 4286.15,-15111.4 4297.64,-15202.1 4309.15,-15293.2 4320.68,-15384.6 
  4332.24,-15476.4 4343.81,-15568.5 4355.41,-15661 4367.03,-15753.8 4378.67,-15846.9 4390.34,-15940.4 4402.02,-16034.3 4413.73,-16128.5 4425.46,-16223.1 4437.21,-16318 
  4448.98,-16413.3 4460.78,-16508.9 4472.59,-16604.9 4484.43,-16701.2 4496.29,-16797.9 4508.17,-16895 4520.08,-16992.4 4532,-17090.1 4543.95,-17188.2 4555.92,-17286.7 
  4567.91,-17385.5 4579.92,-17484.7 4591.96,-17584.3 4604.01,-17684.2 4616.09,-17784.5 4628.19,-17885.1 4640.31,-17986.1 4652.46,-18087.5 4664.62,-18189.3 4676.81,-18291.4 
  4689.02,-18393.8 4701.25,-18496.7 4713.5,-18599.9 4725.78,-18703.4 4738.08,-18807.4 4750.39,-18911.7 4762.73,-19016.3 4775.1,-19121.4 4787.48,-19226.8 4799.89,-19332.6 
  4812.31,-19438.7 4824.76,-19545.3 4837.23,-19652.2 4849.73,-19759.5 4862.24,-19867.1 4874.78,-19975.2 4887.34,-20083.6 4899.92,-20192.4 4912.52,-20301.5 4925.14,-20411.1 
  4937.79,-20521 4950.46,-20631.3 4963.14,-20742 4975.86,-20853 4988.59,-20964.5 5001.34,-21076.3 5014.12,-21188.5 5026.92,-21301.1 5039.74,-21414.1 5052.58,-21527.5 
  5065.44,-21641.2 5078.33,-21755.3 5091.24,-21869.9 5104.17,-21984.8 5117.12,-22100.1 5130.09,-22215.8 5143.09,-22331.8 5156.1,-22448.3 5169.14,-22565.2 5182.2,-22682.4 
  5195.28,-22800.1 5208.39,-22918.1 5221.51,-23036.5 5234.66,-23155.3 5247.83,-23274.5 5261.02,-23394.2 5274.23,-23514.2 5287.47,-23634.6 5300.73,-23755.4 5314,-23876.6 
  5327.3,-23998.2 5340.63,-24120.2 5353.97,-24242.6 5367.34,-24365.4 5380.72,-24488.6 5394.13,-24612.2 5407.56,-24736.2 5421.02,-24860.6 5434.49,-24985.4 5447.99,-25110.6 
  5461.51,-25236.2 5475.05,-25362.2 5488.61,-25488.7 5502.19,-25615.5 5515.8,-25742.8 5529.43,-25870.4 5543.08,-25998.5 5556.75,-26127 5570.44,-26255.9 5584.16,-26385.2 
  5597.89,-26514.9 5611.65,-26645 5625.43,-26775.5 5639.23,-26906.5 5653.06,-27037.8 5666.9,-27169.6 5680.77,-27301.8 5694.66,-27434.4 5708.57,-27567.4 5722.51,-27700.9 
  5736.46,-27834.7 5750.44,-27969 5764.44,-28103.7 5778.46,-28238.9 5792.5,-28374.4 5806.56,-28510.4 5820.65,-28646.7 5834.76,-28783.6 5848.89,-28920.8 5863.04,-29058.4 
  5877.21,-29196.5 5891.41,-29335 5905.62,-29474 5919.86,-29613.3 5934.12,-29753.1 5948.4,-29893.3 5962.71,-30034 5977.03,-30175.1 5991.38,-30316.6 6005.75,-30458.5 
  6020.14,-30600.9 6034.56,-30743.7 6048.99,-30886.9 6063.45,-31030.6 6077.93,-31174.7 6092.43,-31319.2 6106.95,-31464.2 6121.49,-31609.6 6136.06,-31755.4 6150.65,-31901.7 
  6165.26,-32048.4 6179.89,-32195.6 6194.54,-32343.2 6209.22,-32491.2 6223.91,-32639.7 6238.63,-32788.6 6253.37,-32937.9 6268.14,-33087.7 6282.92,-33238 6297.73,-33388.7 
  6312.55,-33539.8 6327.4,-33691.4 6342.27,-33843.4 6357.17,-33995.9 6372.08,-34148.8 6387.02,-34302.2 6401.98,-34456 6416.96,-34610.2 6431.96,-34764.9 6446.99,-34920.1 
  6462.03,-35075.7 6477.1,-35231.8 6492.19,-35388.3 6507.3,-35545.3 6522.43,-35702.7 6537.59,-35860.6 6552.77,-36018.9 6567.97,-36177.7 6583.19,-36337 6598.43,-36496.7 
  6613.69,-36656.8 6628.98,-36817.4 6644.29,-36978.5 6659.62,-37140 6674.97,-37302 6690.34,-37464.5 6705.74,-37627.4 6721.15,-37790.8 6736.59,-37954.6 6752.05,-38119 
  6767.54,-38283.7 6783.04,-38449 6798.57,-38614.7 6814.11,-38780.8 6829.68,-38947.5 6845.28,-39114.6 6860.89,-39282.1 6876.52,-39450.2 6892.18,-39618.7 6907.86,-39787.7 
  6923.56,-39957.1 6939.28,-40127 6955.03,-40297.4 6970.79,-40468.3 6986.58,-40639.6 7002.39,-40811.5 7018.22,-40983.7 7034.08,-41156.5 7049.95,-41329.7 7065.85,-41503.5 
  7081.77,-41677.7 7097.71,-41852.3 7113.67,-42027.5 7129.66,-42203.1 7145.66,-42379.2 7161.69,-42555.8 7177.74,-42732.9 7193.81,-42910.4 7209.9,-43088.5 7226.02,-43267 
  7242.16,-43446 7258.32,-43625.5 7274.5,-43805.4 7290.7,-43985.9 7306.92,-44166.8 7323.17,-44348.3 7339.44,-44530.2 7355.73,-44712.6 7372.04,-44895.5 7388.37,-45078.9 
  7404.73,-45262.7 7421.11,-45447.1 7437.5,-45632 7453.93,-45817.3 7470.37,-46003.2 7486.83,-46189.5 7503.32,-46376.3 7519.83,-46563.6 7536.36,-46751.5 7552.91,-46939.8 
  7569.48,-47128.6 7586.08,-47317.9 7602.69,-47507.7 7619.33,-47698 7635.99,-47888.8 7652.68,-48080.1 7669.38,-48272 7686.11,-48464.3 7702.86,-48657.1 7719.63,-48850.4 
  7736.42,-49044.2 7753.23,-49238.5 7770.07,-49433.4 7786.92,-49628.7 7803.8,-49824.5 7820.7,-50020.9 7837.63,-50217.7 7854.57,-50415.1 7871.54,-50613 7888.53,-50811.4 
  7905.54,-51010.2 7922.57,-51209.6 7939.62,-51409.6 7956.7,-51610 7973.79,-51810.9 7990.91,-52012.4 8008.05,-52214.3 8025.22,-52416.8 8042.4,-52619.8 8059.61,-52823.3 
  8076.84,-53027.3 8094.09,-53231.9 8111.36,-53436.9 8128.65,-53642.5 8145.97,-53848.6 8163.3,-54055.2 8180.66,-54262.4 8198.04,-54470 8215.45,-54678.2 8232.87,-54886.9 
  8250.32,-55096.1 8267.79,-55305.9 8285.28,-55516.2 8302.79,-55727 8320.32,-55938.3 8337.88,-56150.1 8355.46,-56362.5 8373.05,-56575.4 8390.68,-56788.9 8408.32,-57002.8 
  8425.98,-57217.3 8443.67,-57432.3 8461.38,-57647.9 8479.11,-57864 8496.86,-58080.6 8514.63,-58297.7 8532.43,-58515.4 8550.25,-58733.6 8568.09,-58952.4 8585.95,-59171.7 
  8603.83,-59391.5 8621.73,-59611.9 8639.66,-59832.8 8657.61,-60054.2 8675.58,-60276.2 8693.57,-60498.7 8711.58,-60721.8 8729.62,-60945.4 8747.68,-61169.5 8765.76,-61394.2 
  8783.86,-61619.4 8801.98,-61845.2 8820.13,-62071.5 8838.29,-62298.3 8856.48,-62525.7 8874.69,-62753.7 8892.92,-62982.2 8911.18,-63211.2 8929.45,-63440.8 8947.75,-63670.9 
  8966.07,-63901.6 8984.41,-64132.9 9002.77,-64364.6 9021.16,-64597 9039.56,-64829.9 9057.99,-65063.3 9076.44,-65297.3 9094.92,-65531.8 9113.41,-65767 9131.93,-66002.6 
  9150.46,-66238.8 9169.02,-66475.6 9187.6,-66712.9 9206.21,-66950.8 9224.83,-67189.3 9243.48,-67428.3 9262.15,-67667.8 9280.84,-67907.9 9299.55,-68148.6 9318.28,-68389.9 
  9337.04,-68631.7 9355.82,-68874.1 9374.61,-69117 9393.44,-69360.5 9412.28,-69604.6 9431.14,-69849.2 9450.03,-70094.4 9468.94,-70340.1 9487.87,-70586.5 9506.82,-70833.4 
  9525.8,-71080.8 9544.79,-71328.9 9563.81,-71577.5 9582.85,-71826.7 9601.91,-72076.4 9620.99,-72326.7 9640.1,-72577.6 9659.22,-72829.1 9678.37,-73081.1 9697.54,-73333.8 
  9716.74,-73586.9 9735.95,-73840.7 9755.18,-74095.1 9774.44,-74350 9793.72,-74605.5 9813.02,-74861.6 9832.35,-75118.2 9851.69,-75375.5 9871.06,-75633.3 9890.45,-75891.7 
  9909.86,-76150.7 9929.29,-76410.2 9948.74,-76670.4 9968.22,-76931.1 9987.72,-77192.4 10007.2,-77454.3 10026.8,-77716.8 10046.3,-77979.9 10065.9,-78243.6 10085.5,-78507.8 
  10105.2,-78772.7 10124.8,-79038.1 10144.5,-79304.1 10164.2,-79570.7 10183.9,-79837.9 10203.6,-80105.7 10223.4,-80374.1 10243.2,-80643.1 10263,-80912.6 10282.8,-81182.8 
  10302.6,-81453.6 10322.5,-81724.9 10342.4,-81996.9 10362.3,-82269.4 10382.3,-82542.6 10402.2,-82816.3 10422.2,-83090.6 10442.2,-83365.6 10462.2,-83641.1 10482.3,-83917.3 
  10502.3,-84194 10522.4,-84471.4 10542.5,-84749.3 10562.6,-85027.9 10582.8,-85307 10603,-85586.8 10623.2,-85867.2 10643.4,-86148.2 10663.6,-86429.7 10683.9,-86711.9 
  10704.2,-86994.7 10724.5,-87278.1 10744.8,-87562.2 10765.1,-87846.8 10785.5,-88132 10805.9,-88417.9 10826.3,-88704.3 10846.8,-88991.4 10867.2,-89279.1 10887.7,-89567.4 
  10908.2,-89856.3 10928.7,-90145.8 10949.3,-90436 10969.8,-90726.8 10990.4,-91018.1 11011,-91310.1 11031.7,-91602.8 11052.3,-91896 11073,-92189.9 11093.7,-92484.3 
  11114.4,-92779.4 11135.2,-93075.2 11155.9,-93371.5 11176.7,-93668.5 11197.5,-93966.1 11218.3,-94264.3 11239.2,-94563.1 11260.1,-94862.6 11281,-95162.7 11301.9,-95463.4 
  11322.8,-95764.8 11343.8,-96066.7 11364.8,-96369.3 11385.8,-96672.6 11406.8,-96976.4 11427.8,-97280.9 11448.9,-97586.1 11470,-97891.8 11491.1,-98198.2 11512.2,-98505.3 
  11533.4,-98812.9 11554.6,-99121.2 11575.8,-99430.1 11597,-99739.7 11618.2,-100050 11639.5,-100361 11660.8,-100672 11682.1,-100984 11703.4,-101297 11724.8,-101611 
  11746.2,-101925 11767.5,-102239 11789,-102555 11810.4,-102871 11831.9,-103187 11853.3,-103504 11874.9,-103822 11896.4,-104141 11917.9,-104460 11939.5,-104780 
  11961.1,-105100 11982.7,-105422 12004.3,-105743 12026,-106066 12047.7,-106389 12069.4,-106713 12091.1,-107037 12112.9,-107362 12134.6,-107688 12156.4,-108014 
  12178.2,-108341 12200.1,-108669 12221.9,-108997 12243.8,-109326 12265.7,-109656 12287.6,-109986 12309.5,-110317 12331.5,-110648 12353.5,-110981 12375.5,-111314 
  12397.5,-111647 12419.6,-111981 12441.7,-112316 12463.7,-112652 12485.9,-112988 12508,-113325 12530.2,-113662 12552.3,-114001 12574.5,-114340 12596.8,-114679 
  12619,-115019 12641.3,-115360 12663.6,-115702 12685.9,-116044 12708.2,-116387 12730.6,-116730 12753,-117075 12775.4,-117420 12797.8,-117765 12820.2,-118111 
  12842.7,-118458 12865.2,-118806 12887.7,-119154 12910.2,-119503 12932.8,-119853 12955.3,-120203 12977.9,-120554 13000.6,-120906 13023.2,-121258 13045.9,-121611 
  13068.5,-121965 13091.2,-122319 13114,-122674 13136.7,-123030 13159.5,-123386 13182.3,-123743 13205.1,-124101 13227.9,-124460 13250.8,-124819 13273.7,-125179 
  13296.6,-125539 13319.5,-125900 13342.5,-126262 13365.4,-126625 13388.4,-126988 13411.4,-127352 13434.5,-127717 13457.5,-128082 13480.6,-128448 13503.7,-128815 
  13526.8,-129182 13549.9,-129551 13573.1,-129919 13596.3,-130289 13619.5,-130659 13642.7,-131030 13666,-131402 13689.3,-131774 13712.5,-132147 13735.9,-132521 
  13759.2,-132895 13782.6,-133270 13805.9,-133646 13829.3,-134023 13852.8,-134400 13876.2,-134778 13899.7,-135156 13923.2,-135536 13946.7,-135916 13970.2,-136296 
  13993.8,-136678 14017.4,-137060 14041,-137443 14064.6,-137826 14088.2,-138211 14111.9,-138596 14135.6,-138981 14159.3,-139368 14183,-139755 14206.8,-140143 
  14230.5,-140531 14254.3,-140920 14278.2,-141310 14302,-141701 14325.9,-142092 14349.7,-142485 14373.7,-142877 14397.6,-143271 14421.5,-143665 14445.5,-144060 
  14469.5,-144456 14493.5,-144852 14517.5,-145249 14541.6,-145647 14565.7,-146046 14589.8,-146445 14613.9,-146845 14638.1,-147246 14662.2,-147648 14686.4,-148050 
  14710.6,-148453 14734.9,-148856 14759.1,-149261 14783.4,-149666 14807.7,-150072 14832,-150478 14856.4,-150886 14880.7,-151294 14905.1,-151702 14929.5,-152112 
  14953.9,-152522 14978.4,-152933 15002.9,-153345 15027.4,-153757 15051.9,-154170 15076.4,-154584 15101,-154999 15125.6,-155414 15150.2,-155830 15174.8,-156247 
  15199.4,-156665 15224.1,-157083 15248.8,-157502 15273.5,-157922 15298.2,-158343 15323,-158764 15347.8,-159186 15372.6,-159609 15397.4,-160032 15422.2,-160456 
  15447.1,-160882 15472,-161307 15496.9,-161734 15521.8,-162161 15546.8,-162589 15571.8,-163018 15596.8,-163447 15621.8,-163878 15646.8,-164309 15671.9,-164740 
  15697,-165173 15722.1,-165606 15747.2,-166040 15772.3,-166475 15797.5,-166910 15822.7,-167347 15847.9,-167784 15873.2,-168222 15898.4,-168660 15923.7,-169099 
  15949,-169539 15974.3,-169980 15999.7,-170422 16025,-170864 16050.4,-171307 16075.8,-171751 16101.3,-172196 16126.7,-172641 16152.2,-173087 16177.7,-173534 
  16203.2,-173982 16228.8,-174431 16254.3,-174880 16279.9,-175330 16305.5,-175780 16331.2,-176232 16356.8,-176684 16382.5,-177137 16408.2,-177591 16433.9,-178046 
  16459.6,-178501 16485.4,-178957 16511.2,-179414 16537,-179872 16562.8,-180330 16588.7,-180790 16614.5,-181250 16640.4,-181711 16666.3,-182172 16692.3,-182634 
  16718.2,-183098 16744.2,-183562 16770.2,-184026 16796.2,-184492 16822.3,-184958 16848.3,-185425 16874.4,-185893 16900.5,-186361 16926.7,-186831 16952.8,-187301 
  16979,-187772 17005.2,-188244 17031.4,-188716 17057.6,-189190 17083.9,-189664 17110.2,-190138 17136.5,-190614 17162.8,-191091 17189.2,-191568 17215.5,-192046 
  17241.9,-192525 17268.4,-193004 17294.8,-193485 17321.3,-193966 17347.7,-194448 17374.2,-194931 17400.8,-195414 17427.3,-195899 17453.9,-196384 17480.5,-196870 
  17507.1,-197357 17533.7,-197844 17560.4,-198333 17587,-198822 17613.7,-199312 17640.5,-199803 17667.2,-200294 17694,-200787 17720.8,-201280 17747.6,-201774 
  17774.4,-202269 17801.2,-202764 17828.1,-203261 17855,-203758 17881.9,-204256 17908.9,-204755 17935.8,-205255 17962.8,-205755 17989.8,-206256 18016.8,-206758 
  18043.9,-207261 18071,-207765 18098,-208270 18125.2,-208775 18152.3,-209281 18179.5,-209788 18206.6,-210296 18233.8,-210804 18261.1,-211314 18288.3,-211824 
  18315.6,-212335 18342.9,-212847 18370.2,-213359 18397.5,-213873 18424.8,-214387 18452.2,-214902 18479.6,-215418 18507,-215935 18534.5,-216453 18561.9,-216971 
  18589.4,-217490 18616.9,-218011 18644.5,-218531 18672,-219053 18699.6,-219576 18727.2,-220099 18754.8,-220623 18782.4,-221148 18810.1,-221674 18837.8,-222201 
  18865.5,-222728 18893.2,-223257 18920.9,-223786 18948.7,-224316 18976.5,-224847 19004.3,-225379 19032.1,-225911 19060,-226444 19087.9,-226979 19115.8,-227514 
  19143.7,-228050 19171.6,-228586 19199.6,-229124 19227.6,-229662 19255.6,-230201 19283.6,-230741 19311.7,-231282 19339.8,-231824 19367.9,-232367 19396,-232910 
  19424.1,-233454 19452.3,-234000 19480.5,-234545 19508.7,-235092 19536.9,-235640 19565.1,-236188 19593.4,-236738 19621.7,-237288 19650,-237839 19678.3,-238391 
  19706.7,-238944 19735.1,-239497 19763.5,-240052 19791.9,-240607 19820.3,-241163 19848.8,-241720 19877.3,-242278 19905.8,-242837 19934.3,-243396 19962.9,-243957 
  19991.5,-244518 20020.1,-245080 20048.7,-245643 20077.3,-246207 20106,-246772 20134.7,-247338 20163.4,-247904 20192.1,-248471 20220.9,-249039 20249.6,-249609 
  20278.4,-250178 20307.2,-250749 20336.1,-251321 20364.9,-251893 20393.8,-252467 20422.7,-253041 20451.6,-253616 20480.6,-254192 20509.6,-254769 20538.6,-255346 
  20567.6,-255925 20596.6,-256504 20625.7,-257085 20654.7,-257666 20683.8,-258248 20713,-258831 20742.1,-259415 20771.3,-259999 20800.4,-260585 20829.7,-261171 
  20858.9,-261759 20888.1,-262347 20917.4,-262936 20946.7,-263526 20976,-264117 21005.4,-264708 21034.7,-265301 21064.1,-265894 21093.5,-266489 21122.9,-267084 
  21152.4,-267680 21181.9,-268277 21211.3,-268875 21240.9,-269474 21270.4,-270073 21300,-270674 21329.5,-271275 21359.1,-271878 21388.8,-272481 21418.4,-273085 
  21448.1,-273690 21477.8,-274296 21507.5,-274903 21537.2,-275510 21567,-276119 21596.7,-276728 21626.5,-277339 21656.3,-277950 21686.2,-278562 21716,-279175 
  21745.9,-279789 21775.8,-280404 21805.8,-281019 21835.7,-281636 21865.7,-282253 21895.7,-282872 21925.7,-283491 21955.7,-284111 21985.8,-284732 22015.9,-285354 
  22046,-285977 22076.1,-286601 22106.3,-287226 22136.4,-287851 22166.6,-288478 22196.8,-289105 22227.1,-289734 22257.3,-290363 22287.6,-290993 22317.9,-291624 
  22348.2,-292256 22378.6,-292889 22408.9,-293523 22439.3,-294158 22469.7,-294793 22500.1,-295430 22530.6,-296067 22561.1,-296705 22591.6,-297345 22622.1,-297985 
  22652.6,-298626 22683.2,-299268 22713.8,-299911 22744.4,-300555 22775,-301200 22805.6,-301845 22836.3,-302492 22867,-303139 22897.7,-303788 22928.5,-304437 
  22959.2,-305088 22990,-305739 23020.8,-306391 23051.6,-307044 23082.5,-307698 23113.3,-308353 23144.2,-309009 23175.1,-309665 23206.1,-310323 23237,-310982 
  23268,-311641 23299,-312302 23330,-312963 23361.1,-313626 23392.1,-314289 23423.2,-314953 23454.3,-315618 23485.4,-316284 23516.6,-316951 23547.8,-317619 
  23579,-318288 23610.2,-318958 23641.4,-319629 23672.7,-320300 23703.9,-320973 23735.3,-321647 23766.6,-322321 23797.9,-322997 23829.3,-323673 23860.7,-324350 
  23892.1,-325029 23923.5,-325708 23955,-326388 23986.5,-327069 24018,-327751 24049.5,-328434 24081,-329118 24112.6,-329803 24144.2,-330489 24175.8,-331175 
  24207.4,-331863 24239.1,-332552 24270.7,-333241 24302.4,-333932 24334.2,-334624 24365.9,-335316 24397.7,-336009 24429.4,-336704 24461.2,-337399 24493.1,-338096 
  24524.9,-338793 24556.8,-339491 24588.7,-340190 24620.6,-340890 24652.5,-341591 24684.5,-342293 24716.5,-342996 24748.5,-343700 24780.5,-344405 24812.5,-345111 
  24844.6,-345818 24876.7,-346526 24908.8,-347234 24940.9,-347944 24973.1,-348655 25005.3,-349367 25037.5,-350079 25069.7,-350793 25101.9,-351507 25134.2,-352223 
  25166.5,-352939 25198.8,-353657 25231.1,-354375 25263.5,-355095 25295.8,-355815 25328.2,-356536 25360.7,-357259 25393.1,-357982 25425.5,-358706 25458,-359431 
  25490.5,-360158 25523.1,-360885 25555.6,-361613 25588.2,-362342 25620.8,-363072 25653.4,-363803 25686,-364535 25718.7,-365268 25751.3,-366002 25784,-366737 
  25816.8,-367473 25849.5,-368210 25882.3,-368948 25915.1,-369687 25947.9,-370427 25980.7,-371168 26013.6,-371910 26046.4,-372653 26079.3,-373397 26112.2,-374142 
  26145.2,-374887 26178.1,-375634 26211.1,-376382 26244.1,-377131 26277.2,-377881 26310.2,-378631 26343.3,-379383 26376.4,-380136 26409.5,-380890 26442.6,-381645 
  26475.8,-382400 26509,-383157 26542.2,-383915 26575.4,-384674 26608.6,-385433 26641.9,-386194 26675.2,-386956 26708.5,-387719 26741.8,-388482 26775.2,-389247 
  26808.6,-390013 26842,-390779 26875.4,-391547 26908.8,-392316 26942.3,-393086 26975.8,-393856 27009.3,-394628 27042.8,-395401 27076.4,-396175 27109.9,-396949 
  27143.5,-397725 27177.1,-398502 27210.8,-399280 27244.4,-400059 27278.1,-400838 27311.8,-401619 27345.6,-402401 27379.3,-403184 27413.1,-403968 27446.9,-404753 
  27480.7,-405539 27514.5,-406326 27548.4,-407113 27582.2,-407902 27616.1,-408692 27650.1,-409483 27684,-410275 27718,-411068 27752,-411862 27786,-412657 
  27820,-413453 27854.1,-414251 27888.1,-415049 27922.2,-415848 27956.3,-416648 27990.5,-417449 28024.6,-418251 28058.8,-419055 28093,-419859 28127.3,-420664 
  28161.5,-421470 28195.8,-422278 28230.1,-423086 28264.4,-423896 28298.7,-424706 28333.1,-425517 28367.5,-426330 28401.9,-427143 28436.3,-427958 28470.7,-428774 
  28505.2,-429590 28539.7,-430408 28574.2,-431226 28608.7,-432046 28643.3,-432867 28677.9,-433689 28712.5,-434512 28747.1,-435335 28781.7,-436160 28816.4,-436986 
  28851.1,-437813 28885.8,-438641 28920.5,-439470 28955.3,-440301 28990,-441132 29024.8,-441964 29059.6,-442797 29094.5,-443631 29129.3,-444467 29164.2,-445303 
  29199.1,-446141 29234.1,-446979 29269,-447819 29304,-448659 29339,-449501 29374,-450343 29409,-451187 29444.1,-452032 29479.1,-452878 29514.2,-453725 
  29549.4,-454573 29584.5,-455422 29619.7,-456272 29654.9,-457123 29690.1,-457975 29725.3,-458828 29760.6,-459682 29795.8,-460538 29831.1,-461394 29866.4,-462251 
  29901.8,-463110 29937.1,-463970 29972.5,-464830 30007.9,-465692 30043.4,-466555 30078.8,-467418 30114.3,-468283 30149.8,-469149 30185.3,-470016 30220.8,-470884 
  30256.4,-471753 30292,-472624 30327.6,-473495 30363.2,-474367 30398.8,-475241 30434.5,-476115 30470.2,-476991 30505.9,-477867 30541.6,-478745 30577.4,-479624 
  30613.2,-480504 30649,-481385 30684.8,-482266 30720.6,-483150 30756.5,-484034 30792.4,-484919 30828.3,-485805 30864.2,-486693 30900.2,-487581 30936.1,-488471 
  30972.1,-489361 31008.2,-490253 31044.2,-491146 31080.3,-492039 31116.3,-492934 31152.4,-493830 31188.6,-494727 31224.7,-495626 31260.9,-496525 31297.1,-497425 
  31333.3,-498327 31369.5,-499229 31405.8,-500133 31442.1,-501037 31478.4,-501943 31514.7,-502850 31551,-503758 31587.4,-504667 31623.8,-505577 31660.2,-506489 
  31696.6,-507401 31733.1,-508314 31769.5,-509229 31806,-510144 31842.6,-511061 31879.1,-511979 31915.7,-512898 31952.2,-513818 31988.9,-514739 32025.5,-515661 
  32062.1,-516584 32098.8,-517509 32135.5,-518434 32172.2,-519361 32208.9,-520289 32245.7,-521217 32282.5,-522147 32319.3,-523078 32356.1,-524010 32393,-524944 
  32429.8,-525878 32466.7,-526813 32503.6,-527750 32540.6,-528688 32577.5,-529626 32614.5,-530566 32651.5,-531507 32688.5,-532449 32725.6,-533392 32762.6,-534337 
  32799.7,-535282 32836.8,-536229 32873.9,-537176 32911.1,-538125 32948.3,-539075 32985.5,-540026 33022.7,-540978 33059.9,-541931 33097.2,-542886 33134.5,-543841 
  33171.8,-544798 33209.1,-545755 33246.4,-546714 33283.8,-547674 33321.2,-548635 33358.6,-549597 33396,-550561 33433.5,-551525 33471,-552490 33508.5,-553457 
  33546,-554425 33583.5,-555394 33621.1,-556364 33658.7,-557335 33696.3,-558307 33733.9,-559281 33771.6,-560255 33809.3,-561231 33847,-562208 33884.7,-563186 
  33922.4,-564165 33960.2,-565145 33998,-566127 34035.8,-567109 34073.6,-568093 34111.5,-569077 34149.3,-570063 34187.2,-571050 34225.1,-572038 34263.1,-573028 
  34301,-574018 34339,-575010 34377,-576003 34415,-576996 34453.1,-577991 34491.2,-578988 34529.2,-579985 34567.4,-580983 34605.5,-581983 34643.6,-582984 
  34681.8,-583985 34720,-584988 34758.2,-585993 34796.5,-586998 34834.8,-588004 34873,-589012 34911.3,-590021 34949.7,-591031 34988,-592042 35026.4,-593054 
  35064.8,-594067 35103.2,-595082 35141.7,-596097 35180.1,-597114 35218.6,-598132 35257.1,-599151 35295.6,-600171 35334.2,-601193 35372.7,-602215 35411.3,-603239 
  35449.9,-604264 35488.6,-605290 35527.2,-606317 35565.9,-607346 35604.6,-608375 35643.3,-609406 35682.1,-610438 35720.9,-611471 35759.6,-612505 35798.4,-613540 
  35837.3,-614577 35876.1,-615615 35915,-616653 35953.9,-617693 35992.8,-618735 36031.8,-619777 36070.7,-620820 36109.7,-621865 36148.7,-622911 36187.7,-623958 
  36226.8,-625006 36265.9,-626056 36305,-627106 36344.1,-628158 36383.2,-629211 36422.4,-630265 36461.6,-631320 36500.8,-632376 36540,-633434 36579.2,-634493 
  36618.5,-635553 36657.8,-636614 36697.1,-637676 36736.4,-638740 36775.8,-639804 36815.2,-640870 36854.6,-641937 36894,-643005 36933.4,-644075 36972.9,-645145 
  37012.4,-646217 37051.9,-647290 37091.4,-648364 37131,-649439 37170.5,-650516 37210.1,-651594 37249.8,-652673 37289.4,-653753 37329.1,-654834 37368.7,-655916 
  37408.4,-657000 37448.2,-658085 37487.9,-659171 37527.7,-660258 37567.5,-661346 37607.3,-662436 37647.1,-663527 37687,-664619 37726.9,-665712 37766.8,-666806 
  37806.7,-667902 37846.6,-668999 37886.6,-670097 37926.6,-671196 37966.6,-672296 38006.6,-673398 38046.7,-674501 38086.8,-675605 38126.9,-676710 38167,-677816 
  38207.1,-678924 38247.3,-680033 38287.5,-681143 38327.7,-682254 38367.9,-683366 38408.1,-684480 38448.4,-685595 38488.7,-686711 38529,-687828 38569.4,-688946 
  38609.7,-690066 38650.1,-691187 38690.5,-692309 38730.9,-693432 38771.4,-694557 38811.8,-695682 38852.3,-696809 38892.9,-697938 38933.4,-699067 38973.9,-700198 
  39014.5,-701329 39055.1,-702462 39095.7,-703597 39136.4,-704732 39177,-705869 39217.7,-707007 39258.4,-708146 39299.2,-709286 39339.9,-710428 39380.7,-711570 
  39421.5,-712714 39462.3,-713860 39503.1,-715006 39544,-716154 39584.9,-717303 39625.8,-718453 39666.7,-719604 39707.7,-720757 39748.6,-721911 39789.6,-723066 
  39830.6,-724222 39871.7,-725380 39912.7,-726538 39953.8,-727698 39994.9,-728859 40036,-730022 40077.2,-731186 40118.4,-732351 40159.5,-733517 40200.8,-734684 
  40242,-735853 40283.2,-737023 40324.5,-738194 40365.8,-739366 40407.1,-740540 40448.5,-741714 40489.8,-742890 40531.2,-744068 40572.6,-745246 40614.1,-746426 
  40655.5,-747607 40697,-748789 40738.5,-749973 40780,-751158 40821.5,-752344 40863.1,-753531 40904.7,-754719 40946.3,-755909 40987.9,-757100 41029.5,-758292 
  41071.2,-759486 41112.9,-760681 41154.6,-761876 41196.3,-763074 41238.1,-764272 41279.9,-765472 41321.7,-766673 41363.5,-767875 41405.3,-769079 41447.2,-770284 
  41489.1,-771490 41531,-772697 41572.9,-773905 41614.9,-775115 41656.9,-776326 41698.9,-777539 41740.9,-778752 41782.9,-779967 41825,-781183 41867.1,-782400 
  41909.2,-783619 41951.3,-784839 41993.4,-786060 42035.6,-787282 42077.8,-788506 42120,-789731 42162.3,-790957 42204.5,-792185 42246.8,-793414 42289.1,-794644 
  42331.4,-795875 42373.8,-797107 42416.1,-798341 42458.5,-799576 42500.9,-800813 42543.4,-802050 42585.8,-803289 42628.3,-804529 42670.8,-805771 42713.3,-807014 
  42755.8,-808258 42798.4,-809503 42841,-810750 42883.6,-811997 42926.2,-813246 42968.9,-814497 43011.6,-815749 43054.2,-817002 43097,-818256 43139.7,-819511 
  43182.5,-820768 43225.2,-822026 43268,-823286 43310.9,-824546 43353.7,-825808 43396.6,-827071 43439.5,-828336 43482.4,-829602 43525.3,-830869 43568.3,-832137 
  43611.3,-833407 43654.3,-834678 43697.3,-835950 43740.3,-837224 43783.4,-838499 43826.5,-839775 43869.6,-841052 43912.7,-842331 43955.9,-843611 43999,-844892 
  44042.2,-846175 44085.4,-847459 44128.7,-848744 44172,-850030 44215.2,-851318 44258.5,-852607 44301.9,-853897 44345.2,-855189 44388.6,-856482 44432,-857776 
  44475.4,-859072 44518.8,-860369 44562.3,-861667 44605.8,-862967 44649.3,-864267 44692.8,-865570 44736.3,-866873 44779.9,-868178 44823.5,-869484 44867.1,-870791 
  44910.7,-872100 
  "/>
<polygon clip-path="url(#clip6802)" style="fill:#000000; fill-opacity:0.4" points="
  1267.38,787.359 1250.06,777.359 1250.06,757.359 1267.38,747.359 1284.7,757.359 1284.7,777.359 
  "/>
<polygon clip-path="url(#clip6802)" style="fill:#008000; fill-opacity:0.9" points="
  1267.38,783.359 1253.53,775.359 1253.53,759.359 1267.38,751.359 1281.24,759.359 1281.24,775.359 
  "/>
<polygon clip-path="url(#clip6802)" style="fill:#000000; fill-opacity:0.4" points="
  1160.67,734.002 1143.35,724.002 1143.35,704.002 1160.67,694.002 1177.99,704.002 1177.99,724.002 
  "/>
<polygon clip-path="url(#clip6802)" style="fill:#0000ff; fill-opacity:0.9" points="
  1160.67,730.002 1146.81,722.002 1146.81,706.002 1160.67,698.002 1174.52,706.002 1174.52,722.002 
  "/>
<polyline clip-path="url(#clip6802)" style="stroke:#ffa500; stroke-width:4; stroke-opacity:1; fill:none" points="
  901.869,1304.72 1294.66,780.998 
  "/>
<polyline clip-path="url(#clip6802)" style="stroke:#ffa500; stroke-width:4; stroke-opacity:1; fill:none" points="
  914.273,1313.74 1291.48,778.687 
  "/>
<polyline clip-path="url(#clip6802)" style="stroke:#ffa500; stroke-width:4; stroke-opacity:1; fill:none" points="
  927.896,1323.03 1288.51,776.654 
  "/>
<polyline clip-path="url(#clip6802)" style="stroke:#ffa500; stroke-width:4; stroke-opacity:1; fill:none" points="
  942.778,1332.51 1285.72,774.879 
  "/>
<polyline clip-path="url(#clip6802)" style="stroke:#ffa500; stroke-width:4; stroke-opacity:1; fill:none" points="
  958.952,1342.09 1283.14,773.346 
  "/>
<polyline clip-path="url(#clip6802)" style="stroke:#ffa500; stroke-width:4; stroke-opacity:1; fill:none" points="
  976.444,1351.66 1280.75,772.037 
  "/>
<polyline clip-path="url(#clip6802)" style="stroke:#ffa500; stroke-width:4; stroke-opacity:1; fill:none" points="
  995.267,1361.12 1278.55,770.935 
  "/>
<polyline clip-path="url(#clip6802)" style="stroke:#ffa500; stroke-width:4; stroke-opacity:1; fill:none" points="
  1015.42,1370.33 1276.56,770.02 
  "/>
<polyline clip-path="url(#clip6802)" style="stroke:#ffa500; stroke-width:4; stroke-opacity:1; fill:none" points="
  1036.89,1379.19 1274.76,769.277 
  "/>
<polyline clip-path="url(#clip6802)" style="stroke:#ffa500; stroke-width:4; stroke-opacity:1; fill:none" points="
  1059.65,1387.54 1273.15,768.687 
  "/>
<polyline clip-path="url(#clip6802)" style="stroke:#ffa500; stroke-width:4; stroke-opacity:1; fill:none" points="
  1083.63,1395.27 1271.75,768.232 
  "/>
<polyline clip-path="url(#clip6802)" style="stroke:#ffa500; stroke-width:4; stroke-opacity:1; fill:none" points="
  1108.78,1402.25 1270.54,767.895 
  "/>
<polyline clip-path="url(#clip6802)" style="stroke:#ffa500; stroke-width:4; stroke-opacity:1; fill:none" points="
  1134.98,1408.33 1269.52,767.659 
  "/>
<polyline clip-path="url(#clip6802)" style="stroke:#ffa500; stroke-width:4; stroke-opacity:1; fill:none" points="
  1162.13,1413.42 1268.7,767.505 
  "/>
<polyline clip-path="url(#clip6802)" style="stroke:#ffa500; stroke-width:4; stroke-opacity:1; fill:none" points="
  1190.08,1417.4 1268.08,767.415 
  "/>
<polyline clip-path="url(#clip6802)" style="stroke:#ffa500; stroke-width:4; stroke-opacity:1; fill:none" points="
  1218.69,1420.19 1267.65,767.373 
  "/>
<polyline clip-path="url(#clip6802)" style="stroke:#ffa500; stroke-width:4; stroke-opacity:1; fill:none" points="
  1247.79,1421.72 1267.43,767.36 
  "/>
<polyline clip-path="url(#clip6802)" style="stroke:#ffa500; stroke-width:4; stroke-opacity:1; fill:none" points="
  1267.39,767.359 1257.57,112.783 
  "/>
<polyline clip-path="url(#clip6802)" style="stroke:#ffa500; stroke-width:4; stroke-opacity:1; fill:none" points="
  1267.56,767.352 1228.35,113.877 
  "/>
<polyline clip-path="url(#clip6802)" style="stroke:#ffa500; stroke-width:4; stroke-opacity:1; fill:none" points="
  1267.92,767.322 1199.55,116.251 
  "/>
<polyline clip-path="url(#clip6802)" style="stroke:#ffa500; stroke-width:4; stroke-opacity:1; fill:none" points="
  1268.47,767.25 1171.36,119.843 
  "/>
<polyline clip-path="url(#clip6802)" style="stroke:#ffa500; stroke-width:4; stroke-opacity:1; fill:none" points="
  1269.23,767.12 1143.93,124.572 
  "/>
<polyline clip-path="url(#clip6802)" style="stroke:#ffa500; stroke-width:4; stroke-opacity:1; fill:none" points="
  1270.18,766.913 1117.4,130.339 
  "/>
<polyline clip-path="url(#clip6802)" style="stroke:#ffa500; stroke-width:4; stroke-opacity:1; fill:none" points="
  1271.32,766.611 1091.89,137.03 
  "/>
<polyline clip-path="url(#clip6802)" style="stroke:#ffa500; stroke-width:4; stroke-opacity:1; fill:none" points="
  1272.66,766.198 1067.51,144.523 
  "/>
<polyline clip-path="url(#clip6802)" style="stroke:#ffa500; stroke-width:4; stroke-opacity:1; fill:none" points="
  1274.2,765.655 1044.34,152.686 
  "/>
<polyline clip-path="url(#clip6802)" style="stroke:#ffa500; stroke-width:4; stroke-opacity:1; fill:none" points="
  1275.94,764.964 1022.43,161.388 
  "/>
<polyline clip-path="url(#clip6802)" style="stroke:#ffa500; stroke-width:4; stroke-opacity:1; fill:none" points="
  1277.87,764.109 1001.84,170.497 
  "/>
<polyline clip-path="url(#clip6802)" style="stroke:#ffa500; stroke-width:4; stroke-opacity:1; fill:none" points="
  1279.99,763.071 982.57,179.885 
  "/>
<polyline clip-path="url(#clip6802)" style="stroke:#ffa500; stroke-width:4; stroke-opacity:1; fill:none" points="
  1282.32,761.833 964.636,189.43 
  "/>
<polyline clip-path="url(#clip6802)" style="stroke:#ffa500; stroke-width:4; stroke-opacity:1; fill:none" points="
  1284.84,760.376 948.025,199.018 
  "/>
<polyline clip-path="url(#clip6802)" style="stroke:#ffa500; stroke-width:4; stroke-opacity:1; fill:none" points="
  1287.56,758.685 932.715,208.544 
  "/>
<polyline clip-path="url(#clip6802)" style="stroke:#ffa500; stroke-width:4; stroke-opacity:1; fill:none" points="
  1290.47,756.739 918.677,217.91 
  "/>
<polyline clip-path="url(#clip6802)" style="stroke:#ffa500; stroke-width:4; stroke-opacity:1; fill:none" points="
  1293.58,754.523 905.871,227.029 
  "/>
<polygon clip-path="url(#clip6802)" style="fill:#000000; fill-opacity:0.4" points="
  1267.38,783.359 1253.53,775.359 1253.53,759.359 1267.38,751.359 1281.24,759.359 1281.24,775.359 
  "/>
<polygon clip-path="url(#clip6802)" style="fill:#ff0000; fill-opacity:0.9" points="
  1267.38,779.359 1256.99,773.359 1256.99,761.359 1267.38,755.359 1277.77,761.359 1277.77,773.359 
  "/>
</svg>
