<?xml version="1.0" encoding="utf-8"?>
<svg xmlns="http://www.w3.org/2000/svg" xmlns:xlink="http://www.w3.org/1999/xlink" width="600" height="400" viewBox="0 0 2400 1600">
<defs>
  <clipPath id="clip2800">
    <rect x="0" y="0" width="2400" height="1600"/>
  </clipPath>
</defs>
<path clip-path="url(#clip2800)" d="
M0 1600 L2400 1600 L2400 0 L0 0  Z
  " fill="#ffffff" fill-rule="evenodd" fill-opacity="1"/>
<defs>
  <clipPath id="clip2801">
    <rect x="480" y="0" width="1681" height="1600"/>
  </clipPath>
</defs>
<path clip-path="url(#clip2800)" d="
M547.267 1487.47 L1987.5 1487.47 L1987.5 47.2441 L547.267 47.2441  Z
  " fill="#ffffff" fill-rule="evenodd" fill-opacity="1"/>
<defs>
  <clipPath id="clip2802">
    <rect x="547" y="47" width="1441" height="1441"/>
  </clipPath>
</defs>
<polyline clip-path="url(#clip2802)" style="stroke:#000000; stroke-width:2; stroke-opacity:0.1; fill:none" points="
  583.272,1487.47 583.272,47.2441 
  "/>
<polyline clip-path="url(#clip2802)" style="stroke:#000000; stroke-width:2; stroke-opacity:0.1; fill:none" points="
  727.295,1487.47 727.295,47.2441 
  "/>
<polyline clip-path="url(#clip2802)" style="stroke:#000000; stroke-width:2; stroke-opacity:0.1; fill:none" points="
  907.324,1487.47 907.324,47.2441 
  "/>
<polyline clip-path="url(#clip2802)" style="stroke:#000000; stroke-width:2; stroke-opacity:0.1; fill:none" points="
  1087.35,1487.47 1087.35,47.2441 
  "/>
<polyline clip-path="url(#clip2802)" style="stroke:#000000; stroke-width:2; stroke-opacity:0.1; fill:none" points="
  1267.38,1487.47 1267.38,47.2441 
  "/>
<polyline clip-path="url(#clip2802)" style="stroke:#000000; stroke-width:2; stroke-opacity:0.1; fill:none" points="
  1447.41,1487.47 1447.41,47.2441 
  "/>
<polyline clip-path="url(#clip2802)" style="stroke:#000000; stroke-width:2; stroke-opacity:0.1; fill:none" points="
  1627.44,1487.47 1627.44,47.2441 
  "/>
<polyline clip-path="url(#clip2802)" style="stroke:#000000; stroke-width:2; stroke-opacity:0.1; fill:none" points="
  1807.47,1487.47 1807.47,47.2441 
  "/>
<polyline clip-path="url(#clip2802)" style="stroke:#000000; stroke-width:2; stroke-opacity:0.1; fill:none" points="
  547.267,1487.47 1987.5,1487.47 
  "/>
<polyline clip-path="url(#clip2802)" style="stroke:#000000; stroke-width:2; stroke-opacity:0.1; fill:none" points="
  547.267,1127.42 1987.5,1127.42 
  "/>
<polyline clip-path="url(#clip2802)" style="stroke:#000000; stroke-width:2; stroke-opacity:0.1; fill:none" points="
  547.267,767.359 1987.5,767.359 
  "/>
<polyline clip-path="url(#clip2802)" style="stroke:#000000; stroke-width:2; stroke-opacity:0.1; fill:none" points="
  547.267,407.302 1987.5,407.302 
  "/>
<polyline clip-path="url(#clip2802)" style="stroke:#000000; stroke-width:2; stroke-opacity:0.1; fill:none" points="
  547.267,47.2441 1987.5,47.2441 
  "/>
<polyline clip-path="url(#clip2800)" style="stroke:#000000; stroke-width:4; stroke-opacity:1; fill:none" points="
  547.267,1487.47 1987.5,1487.47 
  "/>
<polyline clip-path="url(#clip2800)" style="stroke:#000000; stroke-width:4; stroke-opacity:1; fill:none" points="
  547.267,1487.47 547.267,47.2441 
  "/>
<polyline clip-path="url(#clip2800)" style="stroke:#000000; stroke-width:4; stroke-opacity:1; fill:none" points="
  583.272,1487.47 583.272,1470.19 
  "/>
<polyline clip-path="url(#clip2800)" style="stroke:#000000; stroke-width:4; stroke-opacity:1; fill:none" points="
  727.295,1487.47 727.295,1470.19 
  "/>
<polyline clip-path="url(#clip2800)" style="stroke:#000000; stroke-width:4; stroke-opacity:1; fill:none" points="
  907.324,1487.47 907.324,1470.19 
  "/>
<polyline clip-path="url(#clip2800)" style="stroke:#000000; stroke-width:4; stroke-opacity:1; fill:none" points="
  1087.35,1487.47 1087.35,1470.19 
  "/>
<polyline clip-path="url(#clip2800)" style="stroke:#000000; stroke-width:4; stroke-opacity:1; fill:none" points="
  1267.38,1487.47 1267.38,1470.19 
  "/>
<polyline clip-path="url(#clip2800)" style="stroke:#000000; stroke-width:4; stroke-opacity:1; fill:none" points="
  1447.41,1487.47 1447.41,1470.19 
  "/>
<polyline clip-path="url(#clip2800)" style="stroke:#000000; stroke-width:4; stroke-opacity:1; fill:none" points="
  1627.44,1487.47 1627.44,1470.19 
  "/>
<polyline clip-path="url(#clip2800)" style="stroke:#000000; stroke-width:4; stroke-opacity:1; fill:none" points="
  1807.47,1487.47 1807.47,1470.19 
  "/>
<polyline clip-path="url(#clip2800)" style="stroke:#000000; stroke-width:4; stroke-opacity:1; fill:none" points="
  547.267,1487.47 564.549,1487.47 
  "/>
<polyline clip-path="url(#clip2800)" style="stroke:#000000; stroke-width:4; stroke-opacity:1; fill:none" points="
  547.267,1127.42 564.549,1127.42 
  "/>
<polyline clip-path="url(#clip2800)" style="stroke:#000000; stroke-width:4; stroke-opacity:1; fill:none" points="
  547.267,767.359 564.549,767.359 
  "/>
<polyline clip-path="url(#clip2800)" style="stroke:#000000; stroke-width:4; stroke-opacity:1; fill:none" points="
  547.267,407.302 564.549,407.302 
  "/>
<polyline clip-path="url(#clip2800)" style="stroke:#000000; stroke-width:4; stroke-opacity:1; fill:none" points="
  547.267,47.2441 564.549,47.2441 
  "/>
<g clip-path="url(#clip2800)">
<text style="fill:#000000; fill-opacity:1; font-family:Arial,Helvetica Neue,Helvetica,sans-serif; font-size:48px; text-anchor:middle;" transform="rotate(0, 583.272, 1541.47)" x="583.272" y="1541.47">-0.20</text>
</g>
<g clip-path="url(#clip2800)">
<text style="fill:#000000; fill-opacity:1; font-family:Arial,Helvetica Neue,Helvetica,sans-serif; font-size:48px; text-anchor:middle;" transform="rotate(0, 727.295, 1541.47)" x="727.295" y="1541.47">0.00</text>
</g>
<g clip-path="url(#clip2800)">
<text style="fill:#000000; fill-opacity:1; font-family:Arial,Helvetica Neue,Helvetica,sans-serif; font-size:48px; text-anchor:middle;" transform="rotate(0, 907.324, 1541.47)" x="907.324" y="1541.47">0.25</text>
</g>
<g clip-path="url(#clip2800)">
<text style="fill:#000000; fill-opacity:1; font-family:Arial,Helvetica Neue,Helvetica,sans-serif; font-size:48px; text-anchor:middle;" transform="rotate(0, 1087.35, 1541.47)" x="1087.35" y="1541.47">0.50</text>
</g>
<g clip-path="url(#clip2800)">
<text style="fill:#000000; fill-opacity:1; font-family:Arial,Helvetica Neue,Helvetica,sans-serif; font-size:48px; text-anchor:middle;" transform="rotate(0, 1267.38, 1541.47)" x="1267.38" y="1541.47">0.75</text>
</g>
<g clip-path="url(#clip2800)">
<text style="fill:#000000; fill-opacity:1; font-family:Arial,Helvetica Neue,Helvetica,sans-serif; font-size:48px; text-anchor:middle;" transform="rotate(0, 1447.41, 1541.47)" x="1447.41" y="1541.47">1.00</text>
</g>
<g clip-path="url(#clip2800)">
<text style="fill:#000000; fill-opacity:1; font-family:Arial,Helvetica Neue,Helvetica,sans-serif; font-size:48px; text-anchor:middle;" transform="rotate(0, 1627.44, 1541.47)" x="1627.44" y="1541.47">1.25</text>
</g>
<g clip-path="url(#clip2800)">
<text style="fill:#000000; fill-opacity:1; font-family:Arial,Helvetica Neue,Helvetica,sans-serif; font-size:48px; text-anchor:middle;" transform="rotate(0, 1807.47, 1541.47)" x="1807.47" y="1541.47">1.50</text>
</g>
<g clip-path="url(#clip2800)">
<text style="fill:#000000; fill-opacity:1; font-family:Arial,Helvetica Neue,Helvetica,sans-serif; font-size:48px; text-anchor:end;" transform="rotate(0, 523.267, 1504.97)" x="523.267" y="1504.97">-1.0</text>
</g>
<g clip-path="url(#clip2800)">
<text style="fill:#000000; fill-opacity:1; font-family:Arial,Helvetica Neue,Helvetica,sans-serif; font-size:48px; text-anchor:end;" transform="rotate(0, 523.267, 1144.92)" x="523.267" y="1144.92">-0.5</text>
</g>
<g clip-path="url(#clip2800)">
<text style="fill:#000000; fill-opacity:1; font-family:Arial,Helvetica Neue,Helvetica,sans-serif; font-size:48px; text-anchor:end;" transform="rotate(0, 523.267, 784.859)" x="523.267" y="784.859">0.0</text>
</g>
<g clip-path="url(#clip2800)">
<text style="fill:#000000; fill-opacity:1; font-family:Arial,Helvetica Neue,Helvetica,sans-serif; font-size:48px; text-anchor:end;" transform="rotate(0, 523.267, 424.802)" x="523.267" y="424.802">0.5</text>
</g>
<g clip-path="url(#clip2800)">
<text style="fill:#000000; fill-opacity:1; font-family:Arial,Helvetica Neue,Helvetica,sans-serif; font-size:48px; text-anchor:end;" transform="rotate(0, 523.267, 64.7441)" x="523.267" y="64.7441">1.0</text>
</g>
<polyline clip-path="url(#clip2802)" style="stroke:#009af9; stroke-width:4; stroke-opacity:1; fill:none" points="
  288773,5.76169e+06 288485,5.75305e+06 288198,5.74442e+06 287910,5.7358e+06 287622,5.72719e+06 287335,5.71859e+06 287048,5.71e+06 286761,5.70141e+06 286474,5.69283e+06 286187,5.68427e+06 
  285900,5.67571e+06 285614,5.66716e+06 285327,5.65861e+06 285041,5.65008e+06 284755,5.64156e+06 284469,5.63304e+06 284183,5.62453e+06 283897,5.61603e+06 283612,5.60754e+06 283327,5.59906e+06 
  283041,5.59058e+06 282756,5.58212e+06 282471,5.57366e+06 282186,5.56521e+06 281902,5.55678e+06 281617,5.54834e+06 281333,5.53992e+06 281049,5.53151e+06 280765,5.5231e+06 280481,5.51471e+06 
  280197,5.50632e+06 279913,5.49794e+06 279630,5.48957e+06 279346,5.4812e+06 279063,5.47285e+06 278780,5.4645e+06 278497,5.45617e+06 278214,5.44784e+06 277932,5.43952e+06 277649,5.4312e+06 
  277367,5.4229e+06 277085,5.41461e+06 276803,5.40632e+06 276521,5.39804e+06 276239,5.38977e+06 275957,5.38151e+06 275676,5.37326e+06 275394,5.36501e+06 275113,5.35678e+06 274832,5.34855e+06 
  274551,5.34033e+06 274270,5.33212e+06 273990,5.32392e+06 273709,5.31573e+06 273429,5.30754e+06 273149,5.29936e+06 272869,5.2912e+06 272589,5.28304e+06 272309,5.27488e+06 272029,5.26674e+06 
  271750,5.25861e+06 271471,5.25048e+06 271191,5.24236e+06 270912,5.23425e+06 270633,5.22615e+06 270355,5.21806e+06 270076,5.20997e+06 269798,5.2019e+06 269519,5.19383e+06 269241,5.18577e+06 
  268963,5.17772e+06 268685,5.16967e+06 268407,5.16164e+06 268130,5.15361e+06 267852,5.1456e+06 267575,5.13759e+06 267298,5.12958e+06 267021,5.12159e+06 266744,5.11361e+06 266467,5.10563e+06 
  266191,5.09766e+06 265914,5.0897e+06 265638,5.08175e+06 265362,5.07381e+06 265086,5.06587e+06 264810,5.05795e+06 264534,5.05003e+06 264258,5.04212e+06 263983,5.03422e+06 263708,5.02632e+06 
  263433,5.01844e+06 263158,5.01056e+06 262883,5.00269e+06 262608,4.99483e+06 262333,4.98698e+06 262059,4.97914e+06 261785,4.9713e+06 261511,4.96347e+06 261237,4.95565e+06 260963,4.94784e+06 
  260689,4.94004e+06 260415,4.93224e+06 260142,4.92446e+06 259869,4.91668e+06 259596,4.90891e+06 259323,4.90115e+06 259050,4.89339e+06 258777,4.88565e+06 258504,4.87791e+06 258232,4.87018e+06 
  257960,4.86246e+06 257688,4.85475e+06 257416,4.84704e+06 257144,4.83935e+06 256872,4.83166e+06 256600,4.82398e+06 256329,4.8163e+06 256058,4.80864e+06 255787,4.80098e+06 255516,4.79334e+06 
  255245,4.7857e+06 254974,4.77807e+06 254704,4.77044e+06 254433,4.76283e+06 254163,4.75522e+06 253893,4.74762e+06 253623,4.74003e+06 253353,4.73245e+06 253083,4.72487e+06 252814,4.71731e+06 
  252544,4.70975e+06 252275,4.7022e+06 252006,4.69465e+06 251737,4.68712e+06 251468,4.67959e+06 251200,4.67208e+06 250931,4.66457e+06 250663,4.65706e+06 250394,4.64957e+06 250126,4.64208e+06 
  249858,4.63461e+06 249591,4.62714e+06 249323,4.61967e+06 249055,4.61222e+06 248788,4.60477e+06 248521,4.59734e+06 248254,4.58991e+06 247987,4.58248e+06 247720,4.57507e+06 247453,4.56767e+06 
  247187,4.56027e+06 246920,4.55288e+06 246654,4.5455e+06 246388,4.53812e+06 246122,4.53076e+06 245856,4.5234e+06 245591,4.51605e+06 245325,4.50871e+06 245060,4.50137e+06 244795,4.49405e+06 
  244530,4.48673e+06 244265,4.47942e+06 244000,4.47212e+06 243735,4.46482e+06 243471,4.45754e+06 243206,4.45026e+06 242942,4.44299e+06 242678,4.43572e+06 242414,4.42847e+06 242150,4.42122e+06 
  241887,4.41398e+06 241623,4.40675e+06 241360,4.39953e+06 241097,4.39232e+06 240834,4.38511e+06 240571,4.37791e+06 240308,4.37072e+06 240045,4.36353e+06 239783,4.35636e+06 239520,4.34919e+06 
  239258,4.34203e+06 238996,4.33488e+06 238734,4.32774e+06 238473,4.3206e+06 238211,4.31347e+06 237949,4.30635e+06 237688,4.29924e+06 237427,4.29213e+06 237166,4.28504e+06 236905,4.27795e+06 
  236644,4.27086e+06 236384,4.26379e+06 236123,4.25673e+06 235863,4.24967e+06 235603,4.24262e+06 235343,4.23557e+06 235083,4.22854e+06 234823,4.22151e+06 234563,4.21449e+06 234304,4.20748e+06 
  234045,4.20048e+06 233785,4.19348e+06 233526,4.1865e+06 233268,4.17952e+06 233009,4.17254e+06 232750,4.16558e+06 232492,4.15862e+06 232233,4.15167e+06 231975,4.14473e+06 231717,4.1378e+06 
  231459,4.13087e+06 231202,4.12395e+06 230944,4.11704e+06 230687,4.11014e+06 230429,4.10325e+06 230172,4.09636e+06 229915,4.08948e+06 229658,4.08261e+06 229402,4.07574e+06 229145,4.06889e+06 
  228889,4.06204e+06 228632,4.0552e+06 228376,4.04836e+06 228120,4.04154e+06 227864,4.03472e+06 227609,4.02791e+06 227353,4.02111e+06 227098,4.01431e+06 226842,4.00753e+06 226587,4.00075e+06 
  226332,3.99397e+06 226077,3.98721e+06 225823,3.98045e+06 225568,3.9737e+06 225314,3.96696e+06 225059,3.96023e+06 224805,3.9535e+06 224551,3.94678e+06 224297,3.94007e+06 224044,3.93337e+06 
  223790,3.92667e+06 223537,3.91999e+06 223284,3.91331e+06 223030,3.90663e+06 222777,3.89997e+06 222525,3.89331e+06 222272,3.88666e+06 222019,3.88002e+06 221767,3.87338e+06 221515,3.86676e+06 
  221263,3.86014e+06 221011,3.85352e+06 220759,3.84692e+06 220507,3.84032e+06 220256,3.83373e+06 220004,3.82715e+06 219753,3.82057e+06 219502,3.81401e+06 219251,3.80745e+06 219000,3.8009e+06 
  218749,3.79435e+06 218499,3.78782e+06 218248,3.78129e+06 217998,3.77476e+06 217748,3.76825e+06 217498,3.76174e+06 217248,3.75524e+06 216999,3.74875e+06 216749,3.74227e+06 216500,3.73579e+06 
  216251,3.72932e+06 216002,3.72286e+06 215753,3.7164e+06 215504,3.70996e+06 215255,3.70352e+06 215007,3.69709e+06 214758,3.69066e+06 214510,3.68424e+06 214262,3.67783e+06 214014,3.67143e+06 
  213766,3.66504e+06 213519,3.65865e+06 213271,3.65227e+06 213024,3.6459e+06 212776,3.63953e+06 212529,3.63317e+06 212282,3.62682e+06 212036,3.62048e+06 211789,3.61414e+06 211543,3.60782e+06 
  211296,3.6015e+06 211050,3.59518e+06 210804,3.58888e+06 210558,3.58258e+06 210312,3.57629e+06 210067,3.57e+06 209821,3.56373e+06 209576,3.55746e+06 209331,3.5512e+06 209086,3.54494e+06 
  208841,3.53869e+06 208596,3.53245e+06 208351,3.52622e+06 208107,3.52e+06 207862,3.51378e+06 207618,3.50757e+06 207374,3.50137e+06 207130,3.49517e+06 206887,3.48898e+06 206643,3.4828e+06 
  206399,3.47663e+06 206156,3.47046e+06 205913,3.4643e+06 205670,3.45815e+06 205427,3.452e+06 205184,3.44587e+06 204942,3.43974e+06 204699,3.43361e+06 204457,3.4275e+06 204215,3.42139e+06 
  203973,3.41529e+06 203731,3.4092e+06 203489,3.40311e+06 203247,3.39703e+06 203006,3.39096e+06 202765,3.38489e+06 202523,3.37884e+06 202282,3.37279e+06 202042,3.36674e+06 201801,3.36071e+06 
  201560,3.35468e+06 201320,3.34866e+06 201080,3.34264e+06 200839,3.33664e+06 200599,3.33064e+06 200359,3.32464e+06 200120,3.31866e+06 199880,3.31268e+06 199641,3.30671e+06 199401,3.30074e+06 
  199162,3.29479e+06 198923,3.28884e+06 198684,3.2829e+06 198446,3.27696e+06 198207,3.27103e+06 197969,3.26511e+06 197730,3.2592e+06 197492,3.25329e+06 197254,3.24739e+06 197016,3.2415e+06 
  196779,3.23562e+06 196541,3.22974e+06 196304,3.22387e+06 196066,3.218e+06 195829,3.21215e+06 195592,3.2063e+06 195355,3.20045e+06 195119,3.19462e+06 194882,3.18879e+06 194646,3.18297e+06 
  194410,3.17716e+06 194173,3.17135e+06 193937,3.16555e+06 193702,3.15976e+06 193466,3.15397e+06 193230,3.14819e+06 192995,3.14242e+06 192760,3.13666e+06 192525,3.1309e+06 192290,3.12515e+06 
  192055,3.1194e+06 191820,3.11367e+06 191586,3.10794e+06 191351,3.10222e+06 191117,3.0965e+06 190883,3.09079e+06 190649,3.08509e+06 190415,3.0794e+06 190181,3.07371e+06 189948,3.06803e+06 
  189714,3.06236e+06 189481,3.05669e+06 189248,3.05103e+06 189015,3.04538e+06 188782,3.03974e+06 188550,3.0341e+06 188317,3.02847e+06 188085,3.02284e+06 187852,3.01722e+06 187620,3.01161e+06 
  187388,3.00601e+06 187157,3.00041e+06 186925,2.99483e+06 186693,2.98924e+06 186462,2.98367e+06 186231,2.9781e+06 186000,2.97254e+06 185769,2.96698e+06 185538,2.96143e+06 185307,2.95589e+06 
  185077,2.95036e+06 184846,2.94483e+06 184616,2.93931e+06 184386,2.9338e+06 184156,2.92829e+06 183926,2.92279e+06 183697,2.9173e+06 183467,2.91182e+06 183238,2.90634e+06 183009,2.90086e+06 
  182780,2.8954e+06 182551,2.88994e+06 182322,2.88449e+06 182093,2.87905e+06 181865,2.87361e+06 181636,2.86818e+06 181408,2.86275e+06 181180,2.85734e+06 180952,2.85193e+06 180725,2.84652e+06 
  180497,2.84113e+06 180269,2.83574e+06 180042,2.83035e+06 179815,2.82498e+06 179588,2.81961e+06 179361,2.81425e+06 179134,2.80889e+06 178908,2.80354e+06 178681,2.7982e+06 178455,2.79287e+06 
  178229,2.78754e+06 178002,2.78221e+06 177777,2.7769e+06 177551,2.77159e+06 177325,2.76629e+06 177100,2.761e+06 176874,2.75571e+06 176649,2.75043e+06 176424,2.74515e+06 176199,2.73989e+06 
  175975,2.73462e+06 175750,2.72937e+06 175525,2.72412e+06 175301,2.71888e+06 175077,2.71365e+06 174853,2.70842e+06 174629,2.7032e+06 174405,2.69799e+06 174182,2.69278e+06 173958,2.68758e+06 
  173735,2.68239e+06 173512,2.6772e+06 173289,2.67202e+06 173066,2.66685e+06 172843,2.66168e+06 172621,2.65652e+06 172398,2.65137e+06 172176,2.64622e+06 171954,2.64108e+06 171732,2.63595e+06 
  171510,2.63082e+06 171288,2.6257e+06 171067,2.62058e+06 170845,2.61548e+06 170624,2.61038e+06 170403,2.60528e+06 170182,2.6002e+06 169961,2.59512e+06 169740,2.59004e+06 169520,2.58498e+06 
  169299,2.57992e+06 169079,2.57486e+06 168859,2.56981e+06 168639,2.56477e+06 168419,2.55974e+06 168199,2.55471e+06 167980,2.54969e+06 167760,2.54468e+06 167541,2.53967e+06 167322,2.53467e+06 
  167103,2.52967e+06 166884,2.52469e+06 166665,2.5197e+06 166447,2.51473e+06 166228,2.50976e+06 166010,2.5048e+06 165792,2.49984e+06 165574,2.4949e+06 165356,2.48995e+06 165138,2.48502e+06 
  164921,2.48009e+06 164703,2.47517e+06 164486,2.47025e+06 164269,2.46534e+06 164052,2.46044e+06 163835,2.45554e+06 163619,2.45065e+06 163402,2.44577e+06 163186,2.44089e+06 162969,2.43602e+06 
  162753,2.43116e+06 162537,2.4263e+06 162321,2.42145e+06 162106,2.4166e+06 161890,2.41177e+06 161675,2.40693e+06 161460,2.40211e+06 161245,2.39729e+06 161030,2.39248e+06 160815,2.38767e+06 
  160600,2.38287e+06 160386,2.37808e+06 160171,2.37329e+06 159957,2.36851e+06 159743,2.36374e+06 159529,2.35897e+06 159315,2.35421e+06 159101,2.34946e+06 158888,2.34471e+06 158675,2.33997e+06 
  158461,2.33523e+06 158248,2.3305e+06 158035,2.32578e+06 157823,2.32106e+06 157610,2.31635e+06 157397,2.31165e+06 157185,2.30695e+06 156973,2.30226e+06 156761,2.29758e+06 156549,2.2929e+06 
  156337,2.28823e+06 156125,2.28357e+06 155914,2.27891e+06 155703,2.27425e+06 155491,2.26961e+06 155280,2.26497e+06 155069,2.26033e+06 154859,2.25571e+06 154648,2.25109e+06 154437,2.24647e+06 
  154227,2.24186e+06 154017,2.23726e+06 153807,2.23267e+06 153597,2.22808e+06 153387,2.22349e+06 153178,2.21892e+06 152968,2.21435e+06 152759,2.20978e+06 152549,2.20523e+06 152340,2.20067e+06 
  152132,2.19613e+06 151923,2.19159e+06 151714,2.18706e+06 151506,2.18253e+06 151297,2.17801e+06 151089,2.1735e+06 150881,2.16899e+06 150673,2.16449e+06 150465,2.15999e+06 150258,2.1555e+06 
  150050,2.15102e+06 149843,2.14654e+06 149636,2.14207e+06 149429,2.13761e+06 149222,2.13315e+06 149015,2.1287e+06 148809,2.12425e+06 148602,2.11981e+06 148396,2.11538e+06 148190,2.11095e+06 
  147984,2.10653e+06 147778,2.10212e+06 147572,2.09771e+06 147366,2.09331e+06 147161,2.08891e+06 146956,2.08452e+06 146751,2.08014e+06 146546,2.07576e+06 146341,2.07139e+06 146136,2.06702e+06 
  145931,2.06266e+06 145727,2.05831e+06 145523,2.05396e+06 145318,2.04962e+06 145114,2.04529e+06 144911,2.04096e+06 144707,2.03664e+06 144503,2.03232e+06 144300,2.02801e+06 144097,2.02371e+06 
  143893,2.01941e+06 143690,2.01512e+06 143488,2.01083e+06 143285,2.00655e+06 143082,2.00228e+06 142880,1.99801e+06 142678,1.99375e+06 142475,1.98949e+06 142273,1.98524e+06 142072,1.981e+06 
  141870,1.97676e+06 141668,1.97253e+06 141467,1.96831e+06 141266,1.96409e+06 141065,1.95988e+06 140864,1.95567e+06 140663,1.95147e+06 140462,1.94727e+06 140261,1.94308e+06 140061,1.9389e+06 
  139861,1.93472e+06 139661,1.93055e+06 139461,1.92639e+06 139261,1.92223e+06 139061,1.91807e+06 138862,1.91393e+06 138662,1.90979e+06 138463,1.90565e+06 138264,1.90152e+06 138065,1.8974e+06 
  137866,1.89328e+06 137667,1.88917e+06 137469,1.88507e+06 137270,1.88097e+06 137072,1.87687e+06 136874,1.87279e+06 136676,1.8687e+06 136478,1.86463e+06 136281,1.86056e+06 136083,1.8565e+06 
  135886,1.85244e+06 135688,1.84839e+06 135491,1.84434e+06 135294,1.8403e+06 135098,1.83627e+06 134901,1.83224e+06 134704,1.82822e+06 134508,1.8242e+06 134312,1.82019e+06 134116,1.81618e+06 
  133920,1.81219e+06 133724,1.80819e+06 133528,1.80421e+06 133333,1.80022e+06 133137,1.79625e+06 132942,1.79228e+06 132747,1.78832e+06 132552,1.78436e+06 132357,1.78041e+06 132163,1.77646e+06 
  131968,1.77252e+06 131774,1.76859e+06 131580,1.76466e+06 131386,1.76074e+06 131192,1.75682e+06 130998,1.75291e+06 130804,1.749e+06 130611,1.7451e+06 130417,1.74121e+06 130224,1.73732e+06 
  130031,1.73344e+06 129838,1.72956e+06 129646,1.72569e+06 129453,1.72183e+06 129260,1.71797e+06 129068,1.71412e+06 128876,1.71027e+06 128684,1.70643e+06 128492,1.70259e+06 128300,1.69876e+06 
  128108,1.69494e+06 127917,1.69112e+06 127726,1.68731e+06 127534,1.6835e+06 127343,1.6797e+06 127153,1.6759e+06 126962,1.67211e+06 126771,1.66833e+06 126581,1.66455e+06 126390,1.66078e+06 
  126200,1.65701e+06 126010,1.65325e+06 125820,1.64949e+06 125631,1.64574e+06 125441,1.642e+06 125251,1.63826e+06 125062,1.63453e+06 124873,1.6308e+06 124684,1.62708e+06 124495,1.62336e+06 
  124306,1.61965e+06 124118,1.61595e+06 123929,1.61225e+06 123741,1.60856e+06 123553,1.60487e+06 123365,1.60119e+06 123177,1.59751e+06 122989,1.59384e+06 122802,1.59017e+06 122614,1.58651e+06 
  122427,1.58286e+06 122240,1.57921e+06 122053,1.57557e+06 121866,1.57193e+06 121679,1.5683e+06 121492,1.56468e+06 121306,1.56106e+06 121120,1.55744e+06 120934,1.55383e+06 120748,1.55023e+06 
  120562,1.54663e+06 120376,1.54304e+06 120190,1.53945e+06 120005,1.53587e+06 119820,1.5323e+06 119635,1.52873e+06 119450,1.52516e+06 119265,1.5216e+06 119080,1.51805e+06 118895,1.5145e+06 
  118711,1.51096e+06 118527,1.50742e+06 118343,1.50389e+06 118159,1.50036e+06 117975,1.49684e+06 117791,1.49333e+06 117607,1.48982e+06 117424,1.48632e+06 117241,1.48282e+06 117058,1.47933e+06 
  116875,1.47584e+06 116692,1.47236e+06 116509,1.46888e+06 116327,1.46541e+06 116144,1.46195e+06 115962,1.45849e+06 115780,1.45503e+06 115598,1.45158e+06 115416,1.44814e+06 115234,1.4447e+06 
  115053,1.44127e+06 114871,1.43784e+06 114690,1.43442e+06 114509,1.431e+06 114328,1.42759e+06 114147,1.42419e+06 113967,1.42079e+06 113786,1.41739e+06 113606,1.414e+06 113425,1.41062e+06 
  113245,1.40724e+06 113065,1.40387e+06 112886,1.4005e+06 112706,1.39714e+06 112526,1.39378e+06 112347,1.39043e+06 112168,1.38709e+06 111989,1.38375e+06 111810,1.38041e+06 111631,1.37708e+06 
  111452,1.37376e+06 111274,1.37044e+06 111095,1.36712e+06 110917,1.36382e+06 110739,1.36051e+06 110561,1.35721e+06 110383,1.35392e+06 110206,1.35064e+06 110028,1.34735e+06 109851,1.34408e+06 
  109674,1.34081e+06 109496,1.33754e+06 109320,1.33428e+06 109143,1.33102e+06 108966,1.32778e+06 108790,1.32453e+06 108613,1.32129e+06 108437,1.31806e+06 108261,1.31483e+06 108085,1.31161e+06 
  107909,1.30839e+06 107734,1.30517e+06 107558,1.30197e+06 107383,1.29876e+06 107208,1.29557e+06 107033,1.29238e+06 106858,1.28919e+06 106683,1.28601e+06 106508,1.28283e+06 106334,1.27966e+06 
  106159,1.2765e+06 105985,1.27334e+06 105811,1.27018e+06 105637,1.26703e+06 105463,1.26389e+06 105290,1.26075e+06 105116,1.25761e+06 104943,1.25448e+06 104770,1.25136e+06 104597,1.24824e+06 
  104424,1.24513e+06 104251,1.24202e+06 104079,1.23892e+06 103906,1.23582e+06 103734,1.23272e+06 103562,1.22964e+06 103390,1.22655e+06 103218,1.22348e+06 103046,1.2204e+06 102874,1.21734e+06 
  102703,1.21428e+06 102532,1.21122e+06 102360,1.20817e+06 102189,1.20512e+06 102018,1.20208e+06 101848,1.19904e+06 101677,1.19601e+06 101507,1.19299e+06 101336,1.18997e+06 101166,1.18695e+06 
  100996,1.18394e+06 100826,1.18093e+06 100657,1.17793e+06 100487,1.17494e+06 100318,1.17195e+06 100148,1.16896e+06 99979.1,1.16598e+06 99810.1,1.16301e+06 99641.2,1.16004e+06 99472.5,1.15707e+06 
  99303.9,1.15411e+06 99135.4,1.15116e+06 98967.2,1.14821e+06 98799,1.14526e+06 98631,1.14232e+06 98463.1,1.13939e+06 98295.4,1.13646e+06 98127.9,1.13354e+06 97960.4,1.13062e+06 97793.2,1.1277e+06 
  97626,1.12479e+06 97459,1.12189e+06 97292.2,1.11899e+06 97125.5,1.11609e+06 96958.9,1.1132e+06 96792.5,1.11032e+06 96626.2,1.10744e+06 96460.1,1.10457e+06 96294.1,1.1017e+06 96128.2,1.09883e+06 
  95962.5,1.09597e+06 95797,1.09312e+06 95631.6,1.09027e+06 95466.3,1.08742e+06 95301.2,1.08458e+06 95136.2,1.08175e+06 94971.4,1.07892e+06 94806.7,1.07609e+06 94642.1,1.07327e+06 94477.7,1.07046e+06 
  94313.5,1.06765e+06 94149.4,1.06484e+06 93985.4,1.06204e+06 93821.6,1.05925e+06 93657.9,1.05646e+06 93494.4,1.05367e+06 93331,1.05089e+06 93167.7,1.04812e+06 93004.6,1.04535e+06 92841.6,1.04258e+06 
  92678.8,1.03982e+06 92516.1,1.03706e+06 92353.6,1.03431e+06 92191.2,1.03157e+06 92029,1.02882e+06 91866.9,1.02609e+06 91704.9,1.02336e+06 91543.1,1.02063e+06 91381.5,1.01791e+06 91219.9,1.01519e+06 
  91058.6,1.01248e+06 90897.3,1.00977e+06 90736.2,1.00707e+06 90575.3,1.00437e+06 90414.5,1.00168e+06 90253.8,998988 90093.3,996305 89932.9,993626 89772.7,990953 89612.6,988284 
  89452.7,985619 89292.9,982960 89133.3,980305 88973.8,977656 88814.4,975011 88655.2,972370 88496.1,969735 88337.2,967104 88178.4,964478 88019.7,961857 
  87861.2,959241 87702.9,956629 87544.7,954022 87386.6,951420 87228.7,948823 87070.9,946230 86913.3,943642 86755.8,941059 86598.5,938480 86441.3,935907 
  86284.2,933338 86127.3,930773 85970.5,928214 85813.9,925659 85657.4,923108 85501.1,920563 85344.9,918022 85188.8,915486 85032.9,912954 84877.2,910427 
  84721.5,907905 84566.1,905388 84410.7,902875 84255.6,900367 84100.5,897863 83945.6,895364 83790.9,892870 83636.3,890381 83481.8,887896 83327.5,885415 
  83173.3,882940 83019.3,880469 82865.4,878002 82711.6,875540 82558,873083 82404.6,870630 82251.3,868182 82098.1,865739 81945.1,863300 81792.2,860866 
  81639.5,858436 81486.9,856011 81334.4,853591 81182.1,851175 81029.9,848763 80877.9,846357 80726.1,843954 80574.3,841557 80422.7,839163 80271.3,836775 
  80120,834391 79968.9,832011 79817.8,829636 79667,827266 79516.3,824900 79365.7,822539 79215.3,820182 79065,817829 78914.8,815481 78764.8,813138 
  78615,810799 78465.3,808465 78315.7,806135 78166.3,803809 78017,801489 77867.8,799172 77718.9,796860 77570,794553 77421.3,792250 77272.7,789951 
  77124.3,787657 76976.1,785367 76827.9,783082 76679.9,780801 76532.1,778525 76384.4,776253 76236.9,773985 76089.5,771722 75942.2,769464 75795.1,767209 
  75648.1,764959 75501.3,762714 75354.6,760473 75208,758236 75061.6,756004 74915.4,753776 74769.3,751553 74623.3,749334 74477.5,747119 74331.8,744909 
  74186.3,742703 74040.9,740501 73895.6,738304 73750.5,736111 73605.6,733923 73460.7,731739 73316.1,729559 73171.5,727383 73027.2,725212 72882.9,723045 
  72738.8,720883 72594.9,718724 72451.1,716571 72307.4,714421 72163.9,712276 72020.5,710135 71877.3,707998 71734.2,705866 71591.3,703738 71448.5,701614 
  71305.8,699495 71163.3,697379 71020.9,695268 70878.7,693162 70736.6,691059 70594.7,688961 70452.9,686867 70311.2,684778 70169.7,682692 70028.4,680611 
  69887.2,678534 69746.1,676461 69605.2,674393 69464.4,672329 69323.8,670269 69183.3,668213 69042.9,666161 68902.7,664114 68762.6,662071 68622.7,660032 
  68482.9,657997 68343.3,655967 68203.8,653940 68064.5,651918 67925.3,649900 67786.2,647886 67647.3,645876 67508.6,643871 67369.9,641870 67231.5,639872 
  67093.1,637879 66954.9,635890 66816.9,633906 66679,631925 66541.2,629949 66403.6,627976 66266.1,626008 66128.8,624044 65991.6,622084 65854.6,620128 
  65717.7,618176 65581,616229 65444.3,614285 65307.9,612346 65171.6,610410 65035.4,608479 64899.4,606552 64763.5,604629 64627.7,602710 64492.1,600795 
  64356.7,598884 64221.4,596977 64086.2,595074 63951.2,593175 63816.3,591281 63681.6,589390 63547,587503 63412.5,585621 63278.2,583742 63144.1,581868 
  63010.1,579997 62876.2,578131 62742.5,576268 62608.9,574410 62475.5,572555 62342.2,570705 62209,568858 62076,567016 61943.1,565178 61810.4,563343 
  61677.9,561513 61545.4,559686 61413.1,557863 61281,556045 61149,554230 61017.2,552420 60885.4,550613 60753.9,548810 60622.5,547011 60491.2,545216 
  60360,543425 60229.1,541638 60098.2,539855 59967.5,538076 59837,536301 59706.5,534530 59576.3,532762 59446.1,530999 59316.2,529239 59186.3,527483 
  59056.6,525731 58927.1,523983 58797.7,522239 58668.4,520499 58539.3,518763 58410.3,517031 58281.5,515302 58152.8,513577 58024.3,511856 57895.9,510139 
  57767.6,508426 57639.5,506717 57511.6,505012 57383.7,503310 57256.1,501612 57128.5,499918 57001.1,498228 56873.9,496542 56746.8,494859 56619.8,493181 
  56493,491506 56366.4,489835 56239.8,488167 56113.5,486504 55987.2,484844 55861.1,483188 55735.2,481536 55609.4,479888 55483.7,478243 55358.2,476603 
  55232.8,474965 55107.6,473332 54982.5,471703 54857.6,470077 54732.8,468455 54608.1,466837 54483.6,465222 54359.3,463611 54235,462004 54111,460401 
  53987,458801 53863.2,457205 53739.6,455613 53616.1,454024 53492.7,452440 53369.5,450858 53246.5,449281 53123.5,447707 53000.8,446137 52878.1,444571 
  52755.6,443008 52633.3,441449 52511.1,439894 52389,438342 52267.1,436794 52145.3,435250 52023.7,433709 51902.2,432172 51780.9,430639 51659.7,429109 
  51538.6,427583 51417.7,426060 51297,424541 51176.3,423026 51055.9,421514 50935.5,420006 50815.3,418502 50695.3,417001 50575.4,415504 50455.7,414010 
  50336,412520 50216.6,411033 50097.2,409551 49978.1,408071 49859,406596 49740.1,405123 49621.4,403655 49502.8,402190 49384.3,400728 49266,399270 
  49147.8,397816 49029.8,396365 48911.9,394918 48794.2,393474 48676.6,392034 48559.2,390597 48441.8,389164 48324.7,387734 48207.7,386308 48090.8,384885 
  47974.1,383466 47857.5,382051 47741,380638 47624.7,379230 47508.6,377825 47392.6,376423 47276.7,375025 47161,373630 47045.4,372239 46930,370851 
  46814.7,369466 46699.5,368086 46584.5,366708 46469.7,365334 46355,363964 46240.4,362596 46126,361233 46011.7,359872 45897.5,358516 45783.5,357162 
  45669.7,355812 45556,354466 45442.4,353123 45329,351783 45215.7,350446 45102.6,349114 44989.6,347784 44876.8,346458 44764.1,345135 44651.5,343816 
  44539.1,342500 44426.8,341187 44314.7,339878 44202.7,338572 44090.9,337269 43979.2,335970 43867.7,334674 43756.3,333381 43645,332092 43533.9,330806 
  43422.9,329524 43312.1,328245 43201.4,326969 43090.9,325696 42980.5,324427 42870.2,323161 42760.1,321898 42650.2,320639 42540.4,319383 42430.7,318130 
  42321.2,316881 42211.8,315635 42102.5,314392 41993.4,313152 41884.5,311916 41775.7,310683 41667,309453 41558.5,308226 41450.1,307003 41341.9,305783 
  41233.8,304566 41125.8,303352 41018,302142 40910.4,300935 40802.9,299731 40695.5,298530 40588.3,297333 40481.2,296139 40374.3,294948 40267.5,293760 
  40160.8,292575 40054.3,291394 39947.9,290216 39841.7,289041 39735.7,287869 39629.7,286700 39523.9,285535 39418.3,284372 39312.8,283213 39207.4,282057 
  39102.2,280904 38997.2,279755 38892.3,278608 38787.5,277465 38682.8,276325 38578.4,275188 38474,274054 38369.8,272923 38265.8,271795 38161.8,270670 
  38058.1,269549 37954.4,268431 37851,267315 37747.6,266203 37644.4,265094 37541.4,263988 37438.5,262885 37335.7,261785 37233.1,260689 37130.6,259595 
  37028.3,258505 36926.1,257417 36824.1,256333 36722.2,255251 36620.4,254173 36518.8,253098 36417.4,252025 36316,250956 36214.9,249890 36113.8,248827 
  36012.9,247767 35912.2,246710 35811.6,245656 35711.1,244605 35610.8,243557 35510.7,242512 35410.6,241470 35310.8,240431 35211,239395 35111.4,238362 
  35012,237332 34912.7,236305 34813.5,235281 34714.5,234259 34615.6,233241 34516.9,232226 34418.3,231214 34319.9,230205 34221.6,229198 34123.4,228195 
  34025.4,227195 33927.6,226197 33829.8,225203 33732.3,224211 33634.8,223222 33537.5,222237 33440.4,221254 33343.4,220274 33246.6,219297 33149.8,218323 
  33053.3,217351 32956.8,216383 32860.6,215418 32764.4,214455 32668.4,213495 32572.6,212539 32476.9,211585 32381.3,210634 32285.9,209685 32190.6,208740 
  32095.5,207798 32000.5,206858 31905.7,205921 31811,204987 31716.4,204056 31622,203128 31527.8,202203 31433.7,201280 31339.7,200360 31245.9,199443 
  31152.2,198529 31058.6,197618 30965.2,196709 30872,195803 30778.9,194900 30685.9,194000 30593.1,193103 30500.4,192208 30407.9,191317 30315.5,190428 
  30223.2,189541 30131.1,188658 30039.2,187777 29947.3,186899 29855.7,186024 29764.1,185151 29672.8,184282 29581.5,183415 29490.4,182550 29399.5,181689 
  29308.7,180830 29218,179974 29127.5,179121 29037.1,178270 28946.9,177422 28856.8,176577 28766.9,175734 28677.1,174894 28587.4,174057 28497.9,173223 
  28408.5,172391 28319.3,171562 28230.2,170735 28141.3,169912 28052.5,169091 27963.9,168272 27875.4,167456 27787,166643 27698.8,165833 27610.7,165025 
  27522.8,164220 27435,163417 27347.4,162617 27259.9,161820 27172.5,161025 27085.3,160233 26998.3,159444 26911.3,158657 26824.6,157873 26737.9,157091 
  26651.4,156312 26565.1,155536 26478.9,154762 26392.9,153991 26306.9,153222 26221.2,152456 26135.6,151692 26050.1,150931 25964.7,150173 25879.6,149417 
  25794.5,148664 25709.6,147913 25624.9,147165 25540.2,146419 25455.8,145676 25371.4,144936 25287.3,144198 25203.2,143462 25119.3,142729 25035.6,141998 
  24952,141270 24868.5,140545 24785.2,139822 24702,139102 24619,138384 24536.1,137668 24453.4,136955 24370.8,136244 24288.3,135536 24206,134831 
  24123.8,134128 24041.8,133427 23959.9,132729 23878.2,132033 23796.6,131340 23715.2,130649 23633.9,129960 23552.7,129274 23471.7,128591 23390.8,127910 
  23310.1,127231 23229.5,126555 23149.1,125881 23068.8,125210 22988.7,124541 22908.6,123874 22828.8,123210 22749.1,122548 22669.5,121888 22590.1,121231 
  22510.8,120577 22431.6,119924 22352.6,119274 22273.8,118627 22195.1,117981 22116.5,117339 22038.1,116698 21959.8,116060 21881.7,115424 21803.7,114791 
  21725.9,114160 21648.2,113531 21570.6,112904 21493.2,112280 21415.9,111658 21338.8,111039 21261.8,110422 21185,109807 21108.3,109194 21031.7,108584 
  20955.3,107976 20879.1,107370 20803,106767 20727,106166 20651.2,105567 20575.5,104970 20499.9,104376 20424.5,103784 20349.3,103194 20274.2,102607 
  20199.2,102021 20124.4,101438 20049.7,100858 19975.2,100279 19900.8,99702.6 19826.6,99128.5 19752.5,98556.7 19678.5,97987 19604.7,97419.6 19531,96854.4 
  19457.5,96291.4 19384.1,95730.6 19310.9,95172 19237.8,94615.6 19164.8,94061.3 19092,93509.3 19019.4,92959.4 18946.9,92411.8 18874.5,91866.3 18802.3,91322.9 
  18730.2,90781.8 18658.2,90242.8 18586.4,89705.9 18514.8,89171.2 18443.3,88638.7 18371.9,88108.3 18300.7,87580 18229.6,87053.8 18158.7,86529.8 18087.9,86008 
  18017.3,85488.2 17946.8,84970.6 17876.4,84455 17806.2,83941.6 17736.1,83430.3 17666.2,82921.1 17596.4,82414 17526.8,81908.9 17457.3,81406 17388,80905.1 
  17318.8,80406.4 17249.7,79909.6 17180.8,79415 17112,78922.4 17043.4,78431.9 16974.9,77943.5 16906.6,77457.1 16838.4,76972.7 16770.3,76490.4 16702.4,76010.1 
  16634.6,75531.9 16567,75055.7 16499.5,74581.5 16432.2,74109.3 16365,73639.2 16298,73171.1 16231.1,72705 16164.3,72240.9 16097.7,71778.7 16031.3,71318.6 
  15964.9,70860.5 15898.8,70404.4 15832.7,69950.2 15766.8,69498 15701.1,69047.8 15635.5,68599.6 15570,68153.3 15504.7,67709 15439.5,67266.7 15374.5,66826.3 
  15309.6,66387.9 15244.9,65951.4 15180.3,65516.8 15115.8,65084.2 15051.5,64653.5 14987.4,64224.7 14923.4,63797.9 14859.5,63373 14795.8,62950 14732.2,62528.9 
  14668.7,62109.7 14605.4,61692.4 14542.3,61277 14479.3,60863.5 14416.4,60451.9 14353.7,60042.1 14291.1,59634.3 14228.7,59228.3 14166.4,58824.2 14104.2,58421.9 
  14042.2,58021.6 13980.4,57623 13918.7,57226.4 13857.1,56831.6 13795.7,56438.6 13734.4,56047.5 13673.2,55658.2 13612.2,55270.7 13551.4,54885.1 13490.7,54501.3 
  13430.1,54119.3 13369.7,53739.1 13309.4,53360.7 13249.3,52984.2 13189.3,52609.4 13129.5,52236.4 13069.8,51865.3 13010.2,51495.9 12950.8,51128.3 12891.6,50762.5 
  12832.4,50398.4 12773.5,50036.2 12714.6,49675.7 12655.9,49316.9 12597.4,48959.9 12539,48604.7 12480.7,48251.2 12422.6,47899.5 12364.6,47549.5 12306.8,47201.3 
  12249.1,46854.7 12191.6,46509.9 12134.2,46166.9 12077,45825.5 12019.9,45485.9 11962.9,45148 11906.1,44811.8 11849.4,44477.2 11792.9,44144.4 11736.5,43813.3 
  11680.2,43483.9 11624.2,43156.1 11568.2,42830.1 11512.4,42505.7 11456.7,42183 11401.2,41861.9 11345.8,41542.5 11290.6,41224.8 11235.5,40908.7 11180.6,40594.3 
  11125.8,40281.5 11071.1,39970.4 11016.6,39660.9 10962.2,39353 10908,39046.8 10853.9,38742.2 10800,38439.2 10746.2,38137.8 10692.5,37838.1 10639,37539.9 
  10585.7,37243.4 10532.5,36948.4 10479.4,36655 10426.5,36363.3 10373.7,36073.1 10321,35784.5 10268.5,35497.5 10216.2,35212 10164,34928.1 10111.9,34645.8 
  10060,34365.1 10008.2,34085.9 9956.58,33808.2 9905.09,33532.1 9853.75,33257.5 9802.55,32984.5 9751.49,32713 9700.58,32443.1 9649.81,32174.6 9599.19,31907.7 
  9548.71,31642.3 9498.37,31378.4 9448.18,31116 9398.13,30855.2 9348.23,30595.8 9298.47,30337.9 9248.85,30081.5 9199.38,29826.6 9150.05,29573.2 9100.87,29321.2 
  9051.83,29070.8 9002.93,28821.8 8954.18,28574.2 8905.57,28328.2 8857.11,28083.5 8808.79,27840.4 8760.61,27598.6 8712.58,27358.4 8664.69,27119.5 8616.95,26882.1 
  8569.35,26646.1 8521.9,26411.6 8474.58,26178.5 8427.42,25946.8 8380.39,25716.5 8333.51,25487.6 8286.78,25260.1 8240.19,25034 8193.74,24809.3 8147.44,24586 
  8101.28,24364.1 8055.26,24143.6 8009.39,23924.4 7963.66,23706.6 7918.08,23490.2 7872.64,23275.2 7827.34,23061.5 7782.19,22849.2 7737.19,22638.2 7692.32,22428.6 
  7647.6,22220.3 7603.03,22013.4 7558.6,21807.8 7514.31,21603.5 7470.17,21400.5 7426.17,21198.9 7382.31,20998.6 7338.6,20799.6 7295.04,20601.9 7251.61,20405.6 
  7208.33,20210.5 7165.2,20016.7 7122.21,19824.2 7079.36,19633 7036.66,19443.1 6994.1,19254.4 6951.68,19067.1 6909.41,18881 6867.29,18696.1 6825.3,18512.6 
  6783.47,18330.3 6741.77,18149.2 6700.22,17969.4 6658.81,17790.8 6617.55,17613.5 6576.43,17437.4 6535.46,17262.5 6494.63,17088.9 6453.94,16916.5 6413.4,16745.3 
  6373,16575.3 6332.75,16406.6 6292.63,16239 6252.67,16072.6 6212.85,15907.5 6173.17,15743.5 6133.63,15580.7 6094.24,15419.1 6055,15258.7 6015.89,15099.5 
  5976.94,14941.4 5938.12,14784.5 5899.45,14628.7 5860.93,14474.2 5822.54,14320.7 5784.31,14168.4 5746.21,14017.3 5708.26,13867.3 5670.46,13718.4 5632.79,13570.7 
  5595.28,13424.1 5557.9,13278.6 5520.67,13134.3 5483.59,12991 5446.64,12848.9 5409.85,12707.9 5373.19,12567.9 5336.68,12429.1 5300.32,12291.4 5264.09,12154.7 
  5228.02,12019.2 5192.08,11884.7 5156.29,11751.3 5120.65,11618.9 5085.15,11487.7 5049.79,11357.5 5014.57,11228.3 4979.5,11100.2 4944.58,10973.2 4909.8,10847.2 
  4875.16,10722.2 4840.67,10598.3 4806.32,10475.4 4772.11,10353.6 4738.05,10232.7 4704.13,10112.9 4670.36,9994.13 4636.73,9876.34 4603.24,9759.56 4569.9,9643.78 
  4536.71,9529 4503.65,9415.22 4470.74,9302.42 4437.98,9190.61 4405.36,9079.78 4372.88,8969.92 4340.55,8861.04 4308.36,8753.13 4276.31,8646.18 4244.41,8540.18 
  4212.65,8435.15 4181.04,8331.06 4149.57,8227.92 4118.25,8125.72 4087.07,8024.46 4056.03,7924.14 4025.14,7824.74 3994.39,7726.26 3963.78,7628.71 3933.32,7532.07 
  3903,7436.35 3872.83,7341.53 3842.8,7247.61 3812.92,7154.6 3783.18,7062.48 3753.58,6971.24 3724.13,6880.9 3694.82,6791.43 3665.65,6702.84 3636.63,6615.13 
  3607.76,6528.28 3579.02,6442.3 3550.44,6357.18 3521.99,6272.91 3493.69,6189.49 3465.53,6106.92 3437.52,6025.2 3409.65,5944.31 3381.93,5864.25 3354.35,5785.03 
  3326.91,5706.63 3299.62,5629.05 3272.47,5552.29 3245.47,5476.34 3218.61,5401.2 3191.89,5326.86 3165.32,5253.32 3138.89,5180.58 3112.61,5108.62 3086.47,5037.46 
  3060.47,4967.07 3034.62,4897.46 3008.91,4828.63 2983.34,4760.57 2957.92,4693.27 2932.65,4626.73 2907.52,4560.94 2882.53,4495.91 2857.68,4431.63 2832.98,4368.09 
  2808.43,4305.29 2784.02,4243.22 2759.75,4181.88 2735.63,4121.27 2711.65,4061.38 2687.81,4002.21 2664.12,3943.75 2640.57,3886 2617.17,3828.95 2593.91,3772.6 
  2570.79,3716.95 2547.82,3661.99 2524.99,3607.72 2502.31,3554.13 2479.77,3501.22 2457.37,3448.98 2435.12,3397.41 2413.01,3346.51 2391.05,3296.27 2369.23,3246.68 
  2347.55,3197.75 2326.02,3149.46 2304.64,3101.82 2283.39,3054.82 2262.29,3008.46 2241.34,2962.72 2220.53,2917.61 2199.86,2873.13 2179.34,2829.26 2158.96,2786 
  2138.72,2743.36 2118.63,2701.31 2098.68,2659.87 2078.88,2619.03 2059.22,2578.78 2039.71,2539.11 2020.33,2500.03 2001.11,2461.53 1982.02,2423.6 1963.09,2386.24 
  1944.29,2349.45 1925.64,2313.22 1907.13,2277.55 1888.77,2242.43 1870.55,2207.86 1852.48,2173.83 1834.54,2140.35 1816.76,2107.4 1799.12,2074.98 1781.62,2043.09 
  1764.26,2011.72 1747.05,1980.87 1729.98,1950.53 1713.06,1920.71 1696.28,1891.38 1679.65,1862.56 1663.16,1834.24 1646.81,1806.41 1630.61,1779.07 1614.55,1752.21 
  1598.64,1725.83 1582.86,1699.93 1567.24,1674.5 1551.76,1649.53 1536.42,1625.03 1521.22,1600.98 1506.17,1577.39 1491.27,1554.25 1476.5,1531.55 1461.89,1509.29 
  1447.41,1487.47 1433.08,1466.09 1418.89,1445.13 1404.85,1424.59 1390.95,1404.47 1377.2,1384.77 1363.59,1365.48 1350.12,1346.59 1336.8,1328.1 1323.62,1310.02 
  1310.59,1292.32 1297.7,1275.02 1284.95,1258.1 1272.35,1241.56 1259.89,1225.39 1247.58,1209.6 1235.41,1194.17 1223.38,1179.11 1211.5,1164.41 1199.76,1150.06 
  1188.17,1136.06 1176.72,1122.4 1165.41,1109.09 1154.25,1096.12 1143.23,1083.47 1132.36,1071.16 1121.63,1059.17 1111.04,1047.5 1100.6,1036.14 1090.31,1025.1 
  1080.15,1014.36 1070.14,1003.92 1060.28,993.787 1050.56,983.943 1040.98,974.39 1031.54,965.121 1022.25,956.133 1013.11,947.422 1004.11,938.983 995.25,930.812 
  986.537,922.904 977.968,915.256 969.542,907.863 961.261,900.72 953.124,893.823 945.13,887.169 937.281,880.752 929.576,874.568 922.015,868.613 914.597,862.883 
  907.324,857.374 900.195,852.08 893.21,846.998 886.369,842.124 879.672,837.453 873.119,832.98 866.71,828.702 860.445,824.614 854.324,820.711 848.347,816.99 
  842.514,813.447 836.825,810.076 831.28,806.874 825.879,803.835 820.622,800.957 815.51,798.234 810.541,795.663 805.716,793.238 801.035,790.956 796.499,788.812 
  792.106,786.803 787.857,784.922 783.753,783.167 779.792,781.533 775.975,780.016 772.303,778.611 768.774,777.314 765.39,776.121 762.149,775.027 759.053,774.028 
  756.1,773.12 753.292,772.299 750.627,771.559 748.107,770.897 745.73,770.309 743.498,769.79 741.41,769.335 739.465,768.942 737.665,768.604 736.009,768.318 
  734.497,768.08 733.128,767.884 731.904,767.728 730.824,767.606 729.888,767.515 729.096,767.449 728.448,767.405 727.944,767.379 727.584,767.365 727.368,767.36 
  727.295,767.359 727.368,767.359 727.584,767.354 727.944,767.34 728.448,767.313 729.096,767.269 729.888,767.204 730.824,767.112 731.904,766.991 733.128,766.834 
  734.497,766.639 736.009,766.401 737.665,766.115 739.465,765.777 741.41,765.383 743.498,764.929 745.73,764.41 748.107,763.821 750.627,763.16 753.292,762.42 
  756.1,761.598 759.053,760.69 762.149,759.692 765.39,758.598 768.774,757.405 772.303,756.108 775.975,754.703 779.792,753.185 783.753,751.551 787.857,749.797 
  792.106,747.916 796.499,745.906 801.035,743.763 805.716,741.481 810.541,739.056 815.51,736.484 820.622,733.762 825.879,730.883 831.28,727.845 836.825,724.643 
  842.514,721.272 848.347,717.728 854.324,714.008 860.445,710.105 866.71,706.017 873.119,701.739 879.672,697.266 886.369,692.595 893.21,687.72 900.195,682.639 
  907.324,677.345 914.597,671.835 922.015,666.105 929.576,660.151 937.281,653.967 945.13,647.55 953.124,640.896 961.261,633.999 969.542,626.856 977.968,619.463 
  986.537,611.815 995.25,603.907 1004.11,595.736 1013.11,587.297 1022.25,578.586 1031.54,569.598 1040.98,560.329 1050.56,550.775 1060.28,540.932 1070.14,530.795 
  1080.15,520.36 1090.31,509.622 1100.6,498.578 1111.04,487.222 1121.63,475.551 1132.36,463.561 1143.23,451.246 1154.25,438.603 1165.41,425.627 1176.72,412.314 
  1188.17,398.66 1199.76,384.661 1211.5,370.311 1223.38,355.607 1235.41,340.544 1247.58,325.119 1259.89,309.326 1272.35,293.161 1284.95,276.621 1297.7,259.7 
  1310.59,242.395 1323.62,224.701 1336.8,206.614 1350.12,188.13 1363.59,169.243 1377.2,149.951 1390.95,130.247 1404.85,110.13 1418.89,89.5926 1433.08,68.6322 
  1447.41,47.2441 1461.89,25.4239 1476.5,3.16728 1491.27,-19.53 1506.17,-42.6724 1521.22,-66.2641 1536.42,-90.3095 1551.76,-114.813 1567.24,-139.778 1582.86,-165.211 
  1598.64,-191.114 1614.55,-217.493 1630.61,-244.351 1646.81,-271.693 1663.16,-299.523 1679.65,-327.846 1696.28,-356.666 1713.06,-385.987 1729.98,-415.813 1747.05,-446.149 
  1764.26,-477 1781.62,-508.369 1799.12,-540.261 1816.76,-572.679 1834.54,-605.63 1852.48,-639.116 1870.55,-673.142 1888.77,-707.713 1907.13,-742.832 1925.64,-778.504 
  1944.29,-814.734 1963.09,-851.525 1982.02,-888.883 2001.11,-926.811 2020.33,-965.313 2039.71,-1004.39 2059.22,-1044.06 2078.88,-1084.31 2098.68,-1125.16 2118.63,-1166.6 
  2138.72,-1208.64 2158.96,-1251.28 2179.34,-1294.54 2199.86,-1338.41 2220.53,-1382.89 2241.34,-1428 2262.29,-1473.74 2283.39,-1520.1 2304.64,-1567.1 2326.02,-1614.75 
  2347.55,-1663.03 2369.23,-1711.96 2391.05,-1761.55 2413.01,-1811.79 2435.12,-1862.69 2457.37,-1914.26 2479.77,-1966.5 2502.31,-2019.41 2524.99,-2073 2547.82,-2127.27 
  2570.79,-2182.23 2593.91,-2237.88 2617.17,-2294.23 2640.57,-2351.28 2664.12,-2409.03 2687.81,-2467.49 2711.65,-2526.66 2735.63,-2586.55 2759.75,-2647.16 2784.02,-2708.5 
  2808.43,-2770.57 2832.98,-2833.37 2857.68,-2896.91 2882.53,-2961.19 2907.52,-3026.23 2932.65,-3092.01 2957.92,-3158.55 2983.34,-3225.85 3008.91,-3293.91 3034.62,-3362.75 
  3060.47,-3432.35 3086.47,-3502.74 3112.61,-3573.9 3138.89,-3645.86 3165.32,-3718.6 3191.89,-3792.14 3218.61,-3866.48 3245.47,-3941.62 3272.47,-4017.57 3299.62,-4094.33 
  3326.91,-4171.91 3354.35,-4250.31 3381.93,-4329.54 3409.65,-4409.59 3437.52,-4490.48 3465.53,-4572.21 3493.69,-4654.77 3521.99,-4738.19 3550.44,-4822.46 3579.02,-4907.58 
  3607.76,-4993.56 3636.63,-5080.41 3665.65,-5168.12 3694.82,-5256.71 3724.13,-5346.18 3753.58,-5436.52 3783.18,-5527.76 3812.92,-5619.88 3842.8,-5712.89 3872.83,-5806.81 
  3903,-5901.63 3933.32,-5997.35 3963.78,-6093.99 3994.39,-6191.54 4025.14,-6290.02 4056.03,-6389.42 4087.07,-6489.74 4118.25,-6591 4149.57,-6693.2 4181.04,-6796.34 
  4212.65,-6900.43 4244.41,-7005.47 4276.31,-7111.46 4308.36,-7218.41 4340.55,-7326.32 4372.88,-7435.2 4405.36,-7545.06 4437.98,-7655.89 4470.74,-7767.7 4503.65,-7880.5 
  4536.71,-7994.28 4569.9,-8109.06 4603.24,-8224.84 4636.73,-8341.62 4670.36,-8459.41 4704.13,-8578.21 4738.05,-8698.02 4772.11,-8818.85 4806.32,-8940.71 4840.67,-9063.6 
  4875.16,-9187.51 4909.8,-9312.47 4944.58,-9438.47 4979.5,-9565.51 5014.57,-9693.6 5049.79,-9822.75 5085.15,-9952.95 5120.65,-10084.2 5156.29,-10216.6 5192.08,-10350 
  5228.02,-10484.4 5264.09,-10620 5300.32,-10756.7 5336.68,-10894.4 5373.19,-11033.2 5409.85,-11173.1 5446.64,-11314.2 5483.59,-11456.3 5520.67,-11599.5 5557.9,-11743.9 
  5595.28,-11889.4 5632.79,-12036 5670.46,-12183.7 5708.26,-12332.6 5746.21,-12482.6 5784.31,-12633.7 5822.54,-12786 5860.93,-12939.4 5899.45,-13094 5938.12,-13249.8 
  5976.94,-13406.7 6015.89,-13564.7 6055,-13724 6094.24,-13884.4 6133.63,-14046 6173.17,-14208.8 6212.85,-14372.8 6252.67,-14537.9 6292.63,-14704.3 6332.75,-14871.8 
  6373,-15040.6 6413.4,-15210.6 6453.94,-15381.8 6494.63,-15554.2 6535.46,-15727.8 6576.43,-15902.7 6617.55,-16078.8 6658.81,-16256.1 6700.22,-16434.7 6741.77,-16614.5 
  6783.47,-16795.5 6825.3,-16977.8 6867.29,-17161.4 6909.41,-17346.2 6951.68,-17532.3 6994.1,-17719.7 7036.66,-17908.4 7079.36,-18098.3 7122.21,-18289.5 7165.2,-18482 
  7208.33,-18675.8 7251.61,-18870.8 7295.04,-19067.2 7338.6,-19264.9 7382.31,-19463.9 7426.17,-19664.2 7470.17,-19865.8 7514.31,-20068.8 7558.6,-20273.1 7603.03,-20478.7 
  7647.6,-20685.6 7692.32,-20893.9 7737.19,-21103.5 7782.19,-21314.5 7827.34,-21526.8 7872.64,-21740.5 7918.08,-21955.5 7963.66,-22171.9 8009.39,-22389.7 8055.26,-22608.9 
  8101.28,-22829.4 8147.44,-23051.3 8193.74,-23274.6 8240.19,-23499.3 8286.78,-23725.4 8333.51,-23952.8 8380.39,-24181.7 8427.42,-24412 8474.58,-24643.7 8521.9,-24876.9 
  8569.35,-25111.4 8616.95,-25347.4 8664.69,-25584.8 8712.58,-25823.6 8760.61,-26063.9 8808.79,-26305.6 8857.11,-26548.8 8905.57,-26793.4 8954.18,-27039.5 9002.93,-27287.1 
  9051.83,-27536.1 9100.87,-27786.5 9150.05,-28038.5 9199.38,-28291.9 9248.85,-28546.8 9298.47,-28803.2 9348.23,-29061.1 9398.13,-29320.4 9448.18,-29581.3 9498.37,-29843.7 
  9548.71,-30107.6 9599.19,-30373 9649.81,-30639.9 9700.58,-30908.3 9751.49,-31178.3 9802.55,-31449.8 9853.75,-31722.8 9905.09,-31997.4 9956.58,-32273.5 10008.2,-32551.1 
  10060,-32830.3 10111.9,-33111.1 10164,-33393.4 10216.2,-33677.3 10268.5,-33962.8 10321,-34249.8 10373.7,-34538.4 10426.5,-34828.6 10479.4,-35120.3 10532.5,-35413.7 
  10585.7,-35708.6 10639,-36005.2 10692.5,-36303.3 10746.2,-36603.1 10800,-36904.5 10853.9,-37207.5 10908,-37512.1 10962.2,-37818.3 11016.6,-38126.2 11071.1,-38435.7 
  11125.8,-38746.8 11180.6,-39059.6 11235.5,-39374 11290.6,-39690.1 11345.8,-40007.8 11401.2,-40327.2 11456.7,-40648.2 11512.4,-40971 11568.2,-41295.3 11624.2,-41621.4 
  11680.2,-41949.2 11736.5,-42278.6 11792.9,-42609.7 11849.4,-42942.5 11906.1,-43277 11962.9,-43613.3 12019.9,-43951.2 12077,-44290.8 12134.2,-44632.2 12191.6,-44975.2 
  12249.1,-45320 12306.8,-45666.5 12364.6,-46014.8 12422.6,-46364.8 12480.7,-46716.5 12539,-47070 12597.4,-47425.2 12655.9,-47782.2 12714.6,-48140.9 12773.5,-48501.4 
  12832.4,-48863.7 12891.6,-49227.7 12950.8,-49593.6 13010.2,-49961.2 13069.8,-50330.5 13129.5,-50701.7 13189.3,-51074.7 13249.3,-51449.4 13309.4,-51826 13369.7,-52204.4 
  13430.1,-52584.5 13490.7,-52966.5 13551.4,-53350.3 13612.2,-53736 13673.2,-54123.4 13734.4,-54512.7 13795.7,-54903.9 13857.1,-55296.8 13918.7,-55691.7 13980.4,-56088.3 
  14042.2,-56486.8 14104.2,-56887.2 14166.4,-57289.5 14228.7,-57693.6 14291.1,-58099.6 14353.7,-58507.4 14416.4,-58917.1 14479.3,-59328.8 14542.3,-59742.3 14605.4,-60157.7 
  14668.7,-60574.9 14732.2,-60994.1 14795.8,-61415.2 14859.5,-61838.2 14923.4,-62263.2 14987.4,-62690 15051.5,-63118.8 15115.8,-63549.5 15180.3,-63982.1 15244.9,-64416.7 
  15309.6,-64853.1 15374.5,-65291.6 15439.5,-65732 15504.7,-66174.3 15570,-66618.6 15635.5,-67064.9 15701.1,-67513.1 15766.8,-67963.3 15832.7,-68415.5 15898.8,-68869.6 
  15964.9,-69325.8 16031.3,-69783.9 16097.7,-70244 16164.3,-70706.1 16231.1,-71170.2 16298,-71636.4 16365,-72104.5 16432.2,-72574.6 16499.5,-73046.8 16567,-73521 
  16634.6,-73997.2 16702.4,-74475.4 16770.3,-74955.7 16838.4,-75438 16906.6,-75922.3 16974.9,-76408.7 17043.4,-76897.2 17112,-77387.7 17180.8,-77880.3 17249.7,-78374.9 
  17318.8,-78871.6 17388,-79370.4 17457.3,-79871.3 17526.8,-80374.2 17596.4,-80879.2 17666.2,-81386.4 17736.1,-81895.6 17806.2,-82406.9 17876.4,-82920.3 17946.8,-83435.8 
  18017.3,-83953.5 18087.9,-84473.2 18158.7,-84995.1 18229.6,-85519.1 18300.7,-86045.3 18371.9,-86573.5 18443.3,-87103.9 18514.8,-87636.5 18586.4,-88171.2 18658.2,-88708 
  18730.2,-89247.1 18802.3,-89788.2 18874.5,-90331.6 18946.9,-90877.1 19019.4,-91424.7 19092,-91974.6 19164.8,-92526.6 19237.8,-93080.8 19310.9,-93637.2 19384.1,-94195.9 
  19457.5,-94756.7 19531,-95319.7 19604.7,-95884.9 19678.5,-96452.3 19752.5,-97022 19826.6,-97593.8 19900.8,-98167.9 19975.2,-98744.2 20049.7,-99322.8 20124.4,-99903.6 
  20199.2,-100487 20274.2,-101072 20349.3,-101659 20424.5,-102249 20499.9,-102841 20575.5,-103436 20651.2,-104032 20727,-104631 20803,-105232 20879.1,-105836 
  20955.3,-106441 21031.7,-107049 21108.3,-107660 21185,-108272 21261.8,-108887 21338.8,-109504 21415.9,-110124 21493.2,-110745 21570.6,-111370 21648.2,-111996 
  21725.9,-112625 21803.7,-113256 21881.7,-113889 21959.8,-114525 22038.1,-115163 22116.5,-115804 22195.1,-116447 22273.8,-117092 22352.6,-117740 22431.6,-118390 
  22510.8,-119042 22590.1,-119697 22669.5,-120354 22749.1,-121013 22828.8,-121675 22908.6,-122339 22988.7,-123006 23068.8,-123675 23149.1,-124346 23229.5,-125020 
  23310.1,-125696 23390.8,-126375 23471.7,-127056 23552.7,-127740 23633.9,-128426 23715.2,-129114 23796.6,-129805 23878.2,-130498 23959.9,-131194 24041.8,-131892 
  24123.8,-132593 24206,-133296 24288.3,-134002 24370.8,-134710 24453.4,-135420 24536.1,-136133 24619,-136849 24702,-137567 24785.2,-138287 24868.5,-139010 
  24952,-139736 25035.6,-140464 25119.3,-141194 25203.2,-141927 25287.3,-142663 25371.4,-143401 25455.8,-144141 25540.2,-144885 25624.9,-145630 25709.6,-146378 
  25794.5,-147129 25879.6,-147882 25964.7,-148638 26050.1,-149397 26135.6,-150158 26221.2,-150921 26306.9,-151687 26392.9,-152456 26478.9,-153227 26565.1,-154001 
  26651.4,-154778 26737.9,-155557 26824.6,-156338 26911.3,-157122 26998.3,-157909 27085.3,-158699 27172.5,-159491 27259.9,-160285 27347.4,-161083 27435,-161883 
  27522.8,-162685 27610.7,-163490 27698.8,-164298 27787,-165109 27875.4,-165922 27963.9,-166737 28052.5,-167556 28141.3,-168377 28230.2,-169201 28319.3,-170027 
  28408.5,-170856 28497.9,-171688 28587.4,-172523 28677.1,-173360 28766.9,-174200 28856.8,-175042 28946.9,-175887 29037.1,-176735 29127.5,-177586 29218,-178439 
  29308.7,-179295 29399.5,-180154 29490.4,-181016 29581.5,-181880 29672.8,-182747 29764.1,-183617 29855.7,-184489 29947.3,-185364 30039.2,-186242 30131.1,-187123 
  30223.2,-188007 30315.5,-188893 30407.9,-189782 30500.4,-190674 30593.1,-191568 30685.9,-192466 30778.9,-193366 30872,-194269 30965.2,-195174 31058.6,-196083 
  31152.2,-196994 31245.9,-197908 31339.7,-198825 31433.7,-199745 31527.8,-200668 31622,-201593 31716.4,-202521 31811,-203453 31905.7,-204387 32000.5,-205323 
  32095.5,-206263 32190.6,-207205 32285.9,-208151 32381.3,-209099 32476.9,-210050 32572.6,-211004 32668.4,-211961 32764.4,-212920 32860.6,-213883 32956.8,-214848 
  33053.3,-215817 33149.8,-216788 33246.6,-217762 33343.4,-218739 33440.4,-219719 33537.5,-220702 33634.8,-221688 33732.3,-222676 33829.8,-223668 33927.6,-224662 
  34025.4,-225660 34123.4,-226660 34221.6,-227664 34319.9,-228670 34418.3,-229679 34516.9,-230691 34615.6,-231707 34714.5,-232725 34813.5,-233746 34912.7,-234770 
  35012,-235797 35111.4,-236827 35211,-237860 35310.8,-238896 35410.6,-239935 35510.7,-240977 35610.8,-242022 35711.1,-243070 35811.6,-244121 35912.2,-245175 
  36012.9,-246232 36113.8,-247292 36214.9,-248355 36316,-249422 36417.4,-250491 36518.8,-251563 36620.4,-252638 36722.2,-253717 36824.1,-254798 36926.1,-255882 
  37028.3,-256970 37130.6,-258060 37233.1,-259154 37335.7,-260251 37438.5,-261351 37541.4,-262453 37644.4,-263559 37747.6,-264668 37851,-265781 37954.4,-266896 
  38058.1,-268014 38161.8,-269136 38265.8,-270260 38369.8,-271388 38474,-272519 38578.4,-273653 38682.8,-274790 38787.5,-275930 38892.3,-277074 38997.2,-278220 
  39102.2,-279370 39207.4,-280523 39312.8,-281679 39418.3,-282838 39523.9,-284000 39629.7,-285165 39735.7,-286334 39841.7,-287506 39947.9,-288681 40054.3,-289859 
  40160.8,-291041 40267.5,-292225 40374.3,-293413 40481.2,-294604 40588.3,-295798 40695.5,-296996 40802.9,-298196 40910.4,-299400 41018,-300607 41125.8,-301818 
  41233.8,-303031 41341.9,-304248 41450.1,-305468 41558.5,-306691 41667,-307918 41775.7,-309148 41884.5,-310381 41993.4,-311617 42102.5,-312857 42211.8,-314100 
  42321.2,-315346 42430.7,-316595 42540.4,-317848 42650.2,-319104 42760.1,-320364 42870.2,-321626 42980.5,-322892 43090.9,-324161 43201.4,-325434 43312.1,-326710 
  43422.9,-327989 43533.9,-329272 43645,-330557 43756.3,-331847 43867.7,-333139 43979.2,-334435 44090.9,-335734 44202.7,-337037 44314.7,-338343 44426.8,-339652 
  44539.1,-340965 44651.5,-342281 44764.1,-343600 44876.8,-344923 44989.6,-346249 45102.6,-347579 45215.7,-348912 45329,-350248 45442.4,-351588 45556,-352931 
  45669.7,-354278 45783.5,-355628 45897.5,-356981 46011.7,-358338 46126,-359698 46240.4,-361062 46355,-362429 46469.7,-363799 46584.5,-365173 46699.5,-366551 
  46814.7,-367932 46930,-369316 47045.4,-370704 47161,-372095 47276.7,-373490 47392.6,-374888 47508.6,-376290 47624.7,-377695 47741,-379104 47857.5,-380516 
  47974.1,-381931 48090.8,-383351 48207.7,-384773 48324.7,-386199 48441.8,-387629 48559.2,-389062 48676.6,-390499 48794.2,-391939 48911.9,-393383 49029.8,-394830 
  49147.8,-396281 49266,-397736 49384.3,-399194 49502.8,-400655 49621.4,-402120 49740.1,-403589 49859,-405061 49978.1,-406537 50097.2,-408016 50216.6,-409499 
  50336,-410985 50455.7,-412475 50575.4,-413969 50695.3,-415466 50815.3,-416967 50935.5,-418471 51055.9,-419979 51176.3,-421491 51297,-423006 51417.7,-424525 
  51538.6,-426048 51659.7,-427574 51780.9,-429104 51902.2,-430637 52023.7,-432174 52145.3,-433715 52267.1,-435259 52389,-436807 52511.1,-438359 52633.3,-439914 
  52755.6,-441473 52878.1,-443036 53000.8,-444603 53123.5,-446173 53246.5,-447746 53369.5,-449324 53492.7,-450905 53616.1,-452490 53739.6,-454078 53863.2,-455670 
  53987,-457266 54111,-458866 54235,-460469 54359.3,-462076 54483.6,-463687 54608.1,-465302 54732.8,-466920 54857.6,-468542 54982.5,-470168 55107.6,-471797 
  55232.8,-473431 55358.2,-475068 55483.7,-476709 55609.4,-478353 55735.2,-480002 55861.1,-481654 55987.2,-483310 56113.5,-484969 56239.8,-486633 56366.4,-488300 
  56493,-489971 56619.8,-491646 56746.8,-493325 56873.9,-495007 57001.1,-496693 57128.5,-498384 57256.1,-500077 57383.7,-501775 57511.6,-503477 57639.5,-505182 
  57767.6,-506892 57895.9,-508605 58024.3,-510322 58152.8,-512043 58281.5,-513767 58410.3,-515496 58539.3,-517228 58668.4,-518965 58797.7,-520705 58927.1,-522449 
  59056.6,-524197 59186.3,-525949 59316.2,-527704 59446.1,-529464 59576.3,-531227 59706.5,-532995 59837,-534766 59967.5,-536541 60098.2,-538321 60229.1,-540104 
  60360,-541891 60491.2,-543682 60622.5,-545476 60753.9,-547275 60885.4,-549078 61017.2,-550885 61149,-552695 61281,-554510 61413.1,-556329 61545.4,-558151 
  61677.9,-559978 61810.4,-561808 61943.1,-563643 62076,-565481 62209,-567324 62342.2,-569170 62475.5,-571021 62608.9,-572875 62742.5,-574734 62876.2,-576596 
  63010.1,-578462 63144.1,-580333 63278.2,-582207 63412.5,-584086 63547,-585969 63681.6,-587855 63816.3,-589746 63951.2,-591641 64086.2,-593539 64221.4,-595442 
  64356.7,-597349 64492.1,-599260 64627.7,-601175 64763.5,-603094 64899.4,-605017 65035.4,-606944 65171.6,-608875 65307.9,-610811 65444.3,-612750 65581,-614694 
  65717.7,-616642 65854.6,-618593 65991.6,-620549 66128.8,-622509 66266.1,-624473 66403.6,-626441 66541.2,-628414 66679,-630390 66816.9,-632371 66954.9,-634356 
  67093.1,-636345 67231.5,-638338 67369.9,-640335 67508.6,-642336 67647.3,-644342 67786.2,-646351 67925.3,-648365 68064.5,-650383 68203.8,-652405 68343.3,-654432 
  68482.9,-656462 68622.7,-658497 68762.6,-660536 68902.7,-662579 69042.9,-664627 69183.3,-666678 69323.8,-668734 69464.4,-670794 69605.2,-672858 69746.1,-674927 
  69887.2,-676999 70028.4,-679076 70169.7,-681157 70311.2,-683243 70452.9,-685333 70594.7,-687426 70736.6,-689525 70878.7,-691627 71020.9,-693734 71163.3,-695845 
  71305.8,-697960 71448.5,-700079 71591.3,-702203 71734.2,-704331 71877.3,-706463 72020.5,-708600 72163.9,-710741 72307.4,-712886 72451.1,-715036 72594.9,-717190 
  72738.8,-719348 72882.9,-721510 73027.2,-723677 73171.5,-725848 73316.1,-728024 73460.7,-730204 73605.6,-732388 73750.5,-734576 73895.6,-736769 74040.9,-738967 
  74186.3,-741168 74331.8,-743374 74477.5,-745584 74623.3,-747799 74769.3,-750018 74915.4,-752242 75061.6,-754469 75208,-756702 75354.6,-758938 75501.3,-761179 
  75648.1,-763425 75795.1,-765675 75942.2,-767929 76089.5,-770187 76236.9,-772451 76384.4,-774718 76532.1,-776990 76679.9,-779266 76827.9,-781547 76976.1,-783832 
  77124.3,-786122 77272.7,-788416 77421.3,-790715 77570,-793018 77718.9,-795325 77867.8,-797637 78017,-799954 78166.3,-802275 78315.7,-804600 78465.3,-806930 
  78615,-809264 78764.8,-811603 78914.8,-813947 79065,-816295 79215.3,-818647 79365.7,-821004 79516.3,-823365 79667,-825731 79817.8,-828102 79968.9,-830477 
  80120,-832856 80271.3,-835240 80422.7,-837629 80574.3,-840022 80726.1,-842420 80877.9,-844822 81029.9,-847229 81182.1,-849640 81334.4,-852056 81486.9,-854476 
  81639.5,-856902 81792.2,-859331 81945.1,-861765 82098.1,-864204 82251.3,-866648 82404.6,-869096 82558,-871548 82711.6,-874006 82865.4,-876467 83019.3,-878934 
  83173.3,-881405 83327.5,-883881 83481.8,-886361 83636.3,-888846 83790.9,-891335 83945.6,-893830 84100.5,-896329 84255.6,-898832 84410.7,-901340 84566.1,-903853 
  84721.5,-906371 84877.2,-908893 85032.9,-911420 85188.8,-913951 85344.9,-916487 85501.1,-919028 85657.4,-921574 85813.9,-924124 85970.5,-926679 86127.3,-929239 
  86284.2,-931803 86441.3,-934372 86598.5,-936946 86755.8,-939524 86913.3,-942107 87070.9,-944695 87228.7,-947288 87386.6,-949885 87544.7,-952488 87702.9,-955094 
  87861.2,-957706 88019.7,-960323 88178.4,-962944 88337.2,-965570 88496.1,-968200 88655.2,-970836 88814.4,-973476 88973.8,-976121 89133.3,-978771 89292.9,-981425 
  89452.7,-984085 89612.6,-986749 89772.7,-989418 89932.9,-992092 90093.3,-994770 90253.8,-997454 90414.5,-1.00014e+06 90575.3,-1.00283e+06 90736.2,-1.00553e+06 90897.3,-1.00824e+06 
  91058.6,-1.01094e+06 91219.9,-1.01366e+06 91381.5,-1.01637e+06 91543.1,-1.01909e+06 91704.9,-1.02182e+06 91866.9,-1.02455e+06 92029,-1.02729e+06 92191.2,-1.03003e+06 92353.6,-1.03278e+06 92516.1,-1.03553e+06 
  92678.8,-1.03828e+06 92841.6,-1.04105e+06 93004.6,-1.04381e+06 93167.7,-1.04658e+06 93331,-1.04936e+06 93494.4,-1.05214e+06 93657.9,-1.05492e+06 93821.6,-1.05771e+06 93985.4,-1.06051e+06 94149.4,-1.06331e+06 
  94313.5,-1.06612e+06 94477.7,-1.06893e+06 94642.1,-1.07174e+06 94806.7,-1.07456e+06 94971.4,-1.07738e+06 95136.2,-1.08021e+06 95301.2,-1.08305e+06 95466.3,-1.08589e+06 95631.6,-1.08873e+06 95797,-1.09158e+06 
  95962.5,-1.09444e+06 96128.2,-1.0973e+06 96294.1,-1.10016e+06 96460.1,-1.10303e+06 96626.2,-1.10591e+06 96792.5,-1.10879e+06 96958.9,-1.11167e+06 97125.5,-1.11456e+06 97292.2,-1.11745e+06 97459,-1.12035e+06 
  97626,-1.12326e+06 97793.2,-1.12617e+06 97960.4,-1.12908e+06 98127.9,-1.132e+06 98295.4,-1.13493e+06 98463.1,-1.13786e+06 98631,-1.14079e+06 98799,-1.14373e+06 98967.2,-1.14667e+06 99135.4,-1.14962e+06 
  99303.9,-1.15258e+06 99472.5,-1.15554e+06 99641.2,-1.1585e+06 99810.1,-1.16147e+06 99979.1,-1.16445e+06 100148,-1.16743e+06 100318,-1.17041e+06 100487,-1.1734e+06 100657,-1.1764e+06 100826,-1.1794e+06 
  100996,-1.18241e+06 101166,-1.18542e+06 101336,-1.18843e+06 101507,-1.19145e+06 101677,-1.19448e+06 101848,-1.19751e+06 102018,-1.20055e+06 102189,-1.20359e+06 102360,-1.20663e+06 102532,-1.20968e+06 
  102703,-1.21274e+06 102874,-1.2158e+06 103046,-1.21887e+06 103218,-1.22194e+06 103390,-1.22502e+06 103562,-1.2281e+06 103734,-1.23119e+06 103906,-1.23428e+06 104079,-1.23738e+06 104251,-1.24048e+06 
  104424,-1.24359e+06 104597,-1.24671e+06 104770,-1.24982e+06 104943,-1.25295e+06 105116,-1.25608e+06 105290,-1.25921e+06 105463,-1.26235e+06 105637,-1.2655e+06 105811,-1.26865e+06 105985,-1.2718e+06 
  106159,-1.27496e+06 106334,-1.27813e+06 106508,-1.2813e+06 106683,-1.28447e+06 106858,-1.28765e+06 107033,-1.29084e+06 107208,-1.29403e+06 107383,-1.29723e+06 107558,-1.30043e+06 107734,-1.30364e+06 
  107909,-1.30685e+06 108085,-1.31007e+06 108261,-1.31329e+06 108437,-1.31652e+06 108613,-1.31976e+06 108790,-1.323e+06 108966,-1.32624e+06 109143,-1.32949e+06 109320,-1.33275e+06 109496,-1.33601e+06 
  109674,-1.33927e+06 109851,-1.34254e+06 110028,-1.34582e+06 110206,-1.3491e+06 110383,-1.35239e+06 110561,-1.35568e+06 110739,-1.35898e+06 110917,-1.36228e+06 111095,-1.36559e+06 111274,-1.3689e+06 
  111452,-1.37222e+06 111631,-1.37555e+06 111810,-1.37888e+06 111989,-1.38221e+06 112168,-1.38555e+06 112347,-1.3889e+06 112526,-1.39225e+06 112706,-1.39561e+06 112886,-1.39897e+06 113065,-1.40234e+06 
  113245,-1.40571e+06 113425,-1.40909e+06 113606,-1.41247e+06 113786,-1.41586e+06 113967,-1.41925e+06 114147,-1.42265e+06 114328,-1.42606e+06 114509,-1.42947e+06 114690,-1.43289e+06 114871,-1.43631e+06 
  115053,-1.43973e+06 115234,-1.44317e+06 115416,-1.4466e+06 115598,-1.45005e+06 115780,-1.4535e+06 115962,-1.45695e+06 116144,-1.46041e+06 116327,-1.46388e+06 116509,-1.46735e+06 116692,-1.47082e+06 
  116875,-1.4743e+06 117058,-1.47779e+06 117241,-1.48128e+06 117424,-1.48478e+06 117607,-1.48829e+06 117791,-1.4918e+06 117975,-1.49531e+06 118159,-1.49883e+06 118343,-1.50236e+06 118527,-1.50589e+06 
  118711,-1.50942e+06 118895,-1.51297e+06 119080,-1.51651e+06 119265,-1.52007e+06 119450,-1.52363e+06 119635,-1.52719e+06 119820,-1.53076e+06 120005,-1.53434e+06 120190,-1.53792e+06 120376,-1.5415e+06 
  120562,-1.5451e+06 120748,-1.54869e+06 120934,-1.5523e+06 121120,-1.55591e+06 121306,-1.55952e+06 121492,-1.56314e+06 121679,-1.56677e+06 121866,-1.5704e+06 122053,-1.57404e+06 122240,-1.57768e+06 
  122427,-1.58133e+06 122614,-1.58498e+06 122802,-1.58864e+06 122989,-1.5923e+06 123177,-1.59597e+06 123365,-1.59965e+06 123553,-1.60333e+06 123741,-1.60702e+06 123929,-1.61071e+06 124118,-1.61441e+06 
  124306,-1.61812e+06 124495,-1.62183e+06 124684,-1.62554e+06 124873,-1.62927e+06 125062,-1.63299e+06 125251,-1.63673e+06 125441,-1.64046e+06 125631,-1.64421e+06 125820,-1.64796e+06 126010,-1.65171e+06 
  126200,-1.65547e+06 126390,-1.65924e+06 126581,-1.66301e+06 126771,-1.66679e+06 126962,-1.67058e+06 127153,-1.67437e+06 127343,-1.67816e+06 127534,-1.68196e+06 127726,-1.68577e+06 127917,-1.68958e+06 
  128108,-1.6934e+06 128300,-1.69723e+06 128492,-1.70106e+06 128684,-1.70489e+06 128876,-1.70873e+06 129068,-1.71258e+06 129260,-1.71643e+06 129453,-1.72029e+06 129646,-1.72416e+06 129838,-1.72803e+06 
  130031,-1.7319e+06 130224,-1.73579e+06 130417,-1.73967e+06 130611,-1.74357e+06 130804,-1.74747e+06 130998,-1.75137e+06 131192,-1.75528e+06 131386,-1.7592e+06 131580,-1.76312e+06 131774,-1.76705e+06 
  131968,-1.77099e+06 132163,-1.77493e+06 132357,-1.77887e+06 132552,-1.78282e+06 132747,-1.78678e+06 132942,-1.79075e+06 133137,-1.79471e+06 133333,-1.79869e+06 133528,-1.80267e+06 133724,-1.80666e+06 
  133920,-1.81065e+06 134116,-1.81465e+06 134312,-1.81865e+06 134508,-1.82266e+06 134704,-1.82668e+06 134901,-1.8307e+06 135098,-1.83473e+06 135294,-1.83877e+06 135491,-1.84281e+06 135688,-1.84685e+06 
  135886,-1.8509e+06 136083,-1.85496e+06 136281,-1.85902e+06 136478,-1.86309e+06 136676,-1.86717e+06 136874,-1.87125e+06 137072,-1.87534e+06 137270,-1.87943e+06 137469,-1.88353e+06 137667,-1.88764e+06 
  137866,-1.89175e+06 138065,-1.89586e+06 138264,-1.89999e+06 138463,-1.90412e+06 138662,-1.90825e+06 138862,-1.91239e+06 139061,-1.91654e+06 139261,-1.92069e+06 139461,-1.92485e+06 139661,-1.92902e+06 
  139861,-1.93319e+06 140061,-1.93737e+06 140261,-1.94155e+06 140462,-1.94574e+06 140663,-1.94993e+06 140864,-1.95413e+06 141065,-1.95834e+06 141266,-1.96255e+06 141467,-1.96677e+06 141668,-1.971e+06 
  141870,-1.97523e+06 142072,-1.97947e+06 142273,-1.98371e+06 142475,-1.98796e+06 142678,-1.99221e+06 142880,-1.99648e+06 143082,-2.00074e+06 143285,-2.00502e+06 143488,-2.0093e+06 143690,-2.01358e+06 
  143893,-2.01788e+06 144097,-2.02217e+06 144300,-2.02648e+06 144503,-2.03079e+06 144707,-2.0351e+06 144911,-2.03943e+06 145114,-2.04375e+06 145318,-2.04809e+06 145523,-2.05243e+06 145727,-2.05678e+06 
  145931,-2.06113e+06 146136,-2.06549e+06 146341,-2.06985e+06 146546,-2.07423e+06 146751,-2.0786e+06 146956,-2.08299e+06 147161,-2.08738e+06 147366,-2.09177e+06 147572,-2.09618e+06 147778,-2.10058e+06 
  147984,-2.105e+06 148190,-2.10942e+06 148396,-2.11385e+06 148602,-2.11828e+06 148809,-2.12272e+06 149015,-2.12716e+06 149222,-2.13162e+06 149429,-2.13607e+06 149636,-2.14054e+06 149843,-2.14501e+06 
  150050,-2.14949e+06 150258,-2.15397e+06 150465,-2.15846e+06 150673,-2.16295e+06 150881,-2.16745e+06 151089,-2.17196e+06 151297,-2.17648e+06 151506,-2.181e+06 151714,-2.18552e+06 151923,-2.19006e+06 
  152132,-2.19459e+06 152340,-2.19914e+06 152549,-2.20369e+06 152759,-2.20825e+06 152968,-2.21281e+06 153178,-2.21738e+06 153387,-2.22196e+06 153597,-2.22654e+06 153807,-2.23113e+06 154017,-2.23573e+06 
  154227,-2.24033e+06 154437,-2.24494e+06 154648,-2.24955e+06 154859,-2.25417e+06 155069,-2.2588e+06 155280,-2.26343e+06 155491,-2.26807e+06 155703,-2.27272e+06 155914,-2.27737e+06 156125,-2.28203e+06 
  156337,-2.2867e+06 156549,-2.29137e+06 156761,-2.29604e+06 156973,-2.30073e+06 157185,-2.30542e+06 157397,-2.31012e+06 157610,-2.31482e+06 157823,-2.31953e+06 158035,-2.32425e+06 158248,-2.32897e+06 
  158461,-2.3337e+06 158675,-2.33843e+06 158888,-2.34317e+06 159101,-2.34792e+06 159315,-2.35268e+06 159529,-2.35744e+06 159743,-2.3622e+06 159957,-2.36698e+06 160171,-2.37176e+06 160386,-2.37654e+06 
  160600,-2.38134e+06 160815,-2.38614e+06 161030,-2.39094e+06 161245,-2.39575e+06 161460,-2.40057e+06 161675,-2.4054e+06 161890,-2.41023e+06 162106,-2.41507e+06 162321,-2.41991e+06 162537,-2.42476e+06 
  162753,-2.42962e+06 162969,-2.43449e+06 163186,-2.43936e+06 163402,-2.44423e+06 163619,-2.44912e+06 163835,-2.45401e+06 164052,-2.4589e+06 164269,-2.46381e+06 164486,-2.46872e+06 164703,-2.47363e+06 
  164921,-2.47855e+06 165138,-2.48348e+06 165356,-2.48842e+06 165574,-2.49336e+06 165792,-2.49831e+06 166010,-2.50327e+06 166228,-2.50823e+06 166447,-2.5132e+06 166665,-2.51817e+06 166884,-2.52315e+06 
  167103,-2.52814e+06 167322,-2.53313e+06 167541,-2.53814e+06 167760,-2.54314e+06 167980,-2.54816e+06 168199,-2.55318e+06 168419,-2.55821e+06 168639,-2.56324e+06 168859,-2.56828e+06 169079,-2.57333e+06 
  169299,-2.57838e+06 169520,-2.58344e+06 169740,-2.58851e+06 169961,-2.59358e+06 170182,-2.59866e+06 170403,-2.60375e+06 170624,-2.60884e+06 170845,-2.61394e+06 171067,-2.61905e+06 171288,-2.62416e+06 
  171510,-2.62928e+06 171732,-2.63441e+06 171954,-2.63954e+06 172176,-2.64468e+06 172398,-2.64983e+06 172621,-2.65498e+06 172843,-2.66014e+06 173066,-2.66531e+06 173289,-2.67048e+06 173512,-2.67567e+06 
  173735,-2.68085e+06 173958,-2.68605e+06 174182,-2.69125e+06 174405,-2.69645e+06 174629,-2.70167e+06 174853,-2.70689e+06 175077,-2.71211e+06 175301,-2.71735e+06 175525,-2.72259e+06 175750,-2.72784e+06 
  175975,-2.73309e+06 176199,-2.73835e+06 176424,-2.74362e+06 176649,-2.74889e+06 176874,-2.75417e+06 177100,-2.75946e+06 177325,-2.76476e+06 177551,-2.77006e+06 177777,-2.77537e+06 178002,-2.78068e+06 
  178229,-2.786e+06 178455,-2.79133e+06 178681,-2.79667e+06 178908,-2.80201e+06 179134,-2.80736e+06 179361,-2.81271e+06 179588,-2.81807e+06 179815,-2.82344e+06 180042,-2.82882e+06 180269,-2.8342e+06 
  180497,-2.83959e+06 180725,-2.84499e+06 180952,-2.85039e+06 181180,-2.8558e+06 181408,-2.86122e+06 181636,-2.86664e+06 181865,-2.87207e+06 182093,-2.87751e+06 182322,-2.88296e+06 182551,-2.88841e+06 
  182780,-2.89387e+06 183009,-2.89933e+06 183238,-2.9048e+06 183467,-2.91028e+06 183697,-2.91577e+06 183926,-2.92126e+06 184156,-2.92676e+06 184386,-2.93226e+06 184616,-2.93778e+06 184846,-2.9433e+06 
  185077,-2.94882e+06 185307,-2.95436e+06 185538,-2.9599e+06 185769,-2.96545e+06 186000,-2.971e+06 186231,-2.97656e+06 186462,-2.98213e+06 186693,-2.98771e+06 186925,-2.99329e+06 187157,-2.99888e+06 
  187388,-3.00448e+06 187620,-3.01008e+06 187852,-3.01569e+06 188085,-3.02131e+06 188317,-3.02693e+06 188550,-3.03256e+06 188782,-3.0382e+06 189015,-3.04385e+06 189248,-3.0495e+06 189481,-3.05516e+06 
  189714,-3.06082e+06 189948,-3.0665e+06 190181,-3.07218e+06 190415,-3.07786e+06 190649,-3.08356e+06 190883,-3.08926e+06 191117,-3.09497e+06 191351,-3.10068e+06 191586,-3.1064e+06 191820,-3.11213e+06 
  192055,-3.11787e+06 192290,-3.12361e+06 192525,-3.12936e+06 192760,-3.13512e+06 192995,-3.14089e+06 193230,-3.14666e+06 193466,-3.15244e+06 193702,-3.15822e+06 193937,-3.16401e+06 194173,-3.16981e+06 
  194410,-3.17562e+06 194646,-3.18143e+06 194882,-3.18726e+06 195119,-3.19308e+06 195355,-3.19892e+06 195592,-3.20476e+06 195829,-3.21061e+06 196066,-3.21647e+06 196304,-3.22233e+06 196541,-3.2282e+06 
  196779,-3.23408e+06 197016,-3.23997e+06 197254,-3.24586e+06 197492,-3.25176e+06 197730,-3.25766e+06 197969,-3.26358e+06 198207,-3.2695e+06 198446,-3.27543e+06 198684,-3.28136e+06 198923,-3.2873e+06 
  199162,-3.29325e+06 199401,-3.29921e+06 199641,-3.30517e+06 199880,-3.31114e+06 200120,-3.31712e+06 200359,-3.32311e+06 200599,-3.3291e+06 200839,-3.3351e+06 201080,-3.34111e+06 201320,-3.34712e+06 
  201560,-3.35314e+06 201801,-3.35917e+06 202042,-3.36521e+06 202282,-3.37125e+06 202523,-3.3773e+06 202765,-3.38336e+06 203006,-3.38942e+06 203247,-3.3955e+06 203489,-3.40157e+06 203731,-3.40766e+06 
  203973,-3.41375e+06 204215,-3.41986e+06 204457,-3.42596e+06 204699,-3.43208e+06 204942,-3.4382e+06 205184,-3.44433e+06 205427,-3.45047e+06 205670,-3.45661e+06 205913,-3.46277e+06 206156,-3.46893e+06 
  206399,-3.47509e+06 206643,-3.48127e+06 206887,-3.48745e+06 207130,-3.49364e+06 207374,-3.49983e+06 207618,-3.50603e+06 207862,-3.51224e+06 208107,-3.51846e+06 208351,-3.52469e+06 208596,-3.53092e+06 
  208841,-3.53716e+06 209086,-3.54341e+06 209331,-3.54966e+06 209576,-3.55592e+06 209821,-3.56219e+06 210067,-3.56847e+06 210312,-3.57475e+06 210558,-3.58104e+06 210804,-3.58734e+06 211050,-3.59365e+06 
  211296,-3.59996e+06 211543,-3.60628e+06 211789,-3.61261e+06 212036,-3.61895e+06 212282,-3.62529e+06 212529,-3.63164e+06 212776,-3.638e+06 213024,-3.64436e+06 213271,-3.65073e+06 213519,-3.65711e+06 
  213766,-3.6635e+06 214014,-3.6699e+06 214262,-3.6763e+06 214510,-3.68271e+06 214758,-3.68913e+06 215007,-3.69555e+06 215255,-3.70198e+06 215504,-3.70842e+06 215753,-3.71487e+06 216002,-3.72132e+06 
  216251,-3.72779e+06 216500,-3.73426e+06 216749,-3.74073e+06 216999,-3.74722e+06 217248,-3.75371e+06 217498,-3.76021e+06 217748,-3.76671e+06 217998,-3.77323e+06 218248,-3.77975e+06 218499,-3.78628e+06 
  218749,-3.79282e+06 219000,-3.79936e+06 219251,-3.80591e+06 219502,-3.81247e+06 219753,-3.81904e+06 220004,-3.82561e+06 220256,-3.8322e+06 220507,-3.83879e+06 220759,-3.84538e+06 221011,-3.85199e+06 
  221263,-3.8586e+06 221515,-3.86522e+06 221767,-3.87185e+06 222019,-3.87848e+06 222272,-3.88513e+06 222525,-3.89178e+06 222777,-3.89843e+06 223030,-3.9051e+06 223284,-3.91177e+06 223537,-3.91845e+06 
  223790,-3.92514e+06 224044,-3.93184e+06 224297,-3.93854e+06 224551,-3.94525e+06 224805,-3.95197e+06 225059,-3.95869e+06 225314,-3.96543e+06 225568,-3.97217e+06 225823,-3.97892e+06 226077,-3.98568e+06 
  226332,-3.99244e+06 226587,-3.99921e+06 226842,-4.00599e+06 227098,-4.01278e+06 227353,-4.01957e+06 227609,-4.02638e+06 227864,-4.03319e+06 228120,-4.04e+06 228376,-4.04683e+06 228632,-4.05366e+06 
  228889,-4.0605e+06 229145,-4.06735e+06 229402,-4.07421e+06 229658,-4.08107e+06 229915,-4.08795e+06 230172,-4.09482e+06 230429,-4.10171e+06 230687,-4.10861e+06 230944,-4.11551e+06 231202,-4.12242e+06 
  231459,-4.12934e+06 231717,-4.13626e+06 231975,-4.1432e+06 232233,-4.15014e+06 232492,-4.15709e+06 232750,-4.16404e+06 233009,-4.17101e+06 233268,-4.17798e+06 233526,-4.18496e+06 233785,-4.19195e+06 
  234045,-4.19895e+06 234304,-4.20595e+06 234563,-4.21296e+06 234823,-4.21998e+06 235083,-4.22701e+06 235343,-4.23404e+06 235603,-4.24108e+06 235863,-4.24813e+06 236123,-4.25519e+06 236384,-4.26226e+06 
  236644,-4.26933e+06 236905,-4.27641e+06 237166,-4.2835e+06 237427,-4.2906e+06 237688,-4.2977e+06 237949,-4.30482e+06 238211,-4.31194e+06 238473,-4.31906e+06 238734,-4.3262e+06 238996,-4.33334e+06 
  239258,-4.3405e+06 239520,-4.34766e+06 239783,-4.35482e+06 240045,-4.362e+06 240308,-4.36918e+06 240571,-4.37637e+06 240834,-4.38357e+06 241097,-4.39078e+06 241360,-4.398e+06 241623,-4.40522e+06 
  241887,-4.41245e+06 242150,-4.41969e+06 242414,-4.42694e+06 242678,-4.43419e+06 242942,-4.44145e+06 243206,-4.44872e+06 243471,-4.456e+06 243735,-4.46329e+06 244000,-4.47058e+06 244265,-4.47788e+06 
  244530,-4.48519e+06 244795,-4.49251e+06 245060,-4.49984e+06 245325,-4.50717e+06 245591,-4.51451e+06 245856,-4.52186e+06 246122,-4.52922e+06 246388,-4.53659e+06 246654,-4.54396e+06 246920,-4.55134e+06 
  247187,-4.55873e+06 247453,-4.56613e+06 247720,-4.57354e+06 247987,-4.58095e+06 248254,-4.58837e+06 248521,-4.5958e+06 248788,-4.60324e+06 249055,-4.61069e+06 249323,-4.61814e+06 249591,-4.6256e+06 
  249858,-4.63307e+06 250126,-4.64055e+06 250394,-4.64803e+06 250663,-4.65553e+06 250931,-4.66303e+06 251200,-4.67054e+06 251468,-4.67806e+06 251737,-4.68559e+06 252006,-4.69312e+06 252275,-4.70066e+06 
  252544,-4.70821e+06 252814,-4.71577e+06 253083,-4.72334e+06 253353,-4.73091e+06 253623,-4.7385e+06 253893,-4.74609e+06 254163,-4.75369e+06 254433,-4.76129e+06 254704,-4.76891e+06 254974,-4.77653e+06 
  255245,-4.78416e+06 255516,-4.7918e+06 255787,-4.79945e+06 256058,-4.80711e+06 256329,-4.81477e+06 256600,-4.82244e+06 256872,-4.83012e+06 257144,-4.83781e+06 257416,-4.84551e+06 257688,-4.85321e+06 
  257960,-4.86092e+06 258232,-4.86865e+06 258504,-4.87638e+06 258777,-4.88411e+06 259050,-4.89186e+06 259323,-4.89961e+06 259596,-4.90737e+06 259869,-4.91514e+06 260142,-4.92292e+06 260415,-4.93071e+06 
  260689,-4.9385e+06 260963,-4.94631e+06 261237,-4.95412e+06 261511,-4.96194e+06 261785,-4.96976e+06 262059,-4.9776e+06 262333,-4.98544e+06 262608,-4.9933e+06 262883,-5.00116e+06 263158,-5.00903e+06 
  263433,-5.0169e+06 263708,-5.02479e+06 263983,-5.03268e+06 264258,-5.04058e+06 264534,-5.04849e+06 264810,-5.05641e+06 265086,-5.06434e+06 265362,-5.07227e+06 265638,-5.08022e+06 265914,-5.08817e+06 
  266191,-5.09613e+06 266467,-5.1041e+06 266744,-5.11207e+06 267021,-5.12006e+06 267298,-5.12805e+06 267575,-5.13605e+06 267852,-5.14406e+06 268130,-5.15208e+06 268407,-5.16011e+06 268685,-5.16814e+06 
  268963,-5.17618e+06 269241,-5.18423e+06 269519,-5.19229e+06 269798,-5.20036e+06 270076,-5.20844e+06 270355,-5.21652e+06 270633,-5.22462e+06 270912,-5.23272e+06 271191,-5.24083e+06 271471,-5.24894e+06 
  271750,-5.25707e+06 272029,-5.26521e+06 272309,-5.27335e+06 272589,-5.2815e+06 272869,-5.28966e+06 273149,-5.29783e+06 273429,-5.30601e+06 273709,-5.31419e+06 273990,-5.32239e+06 274270,-5.33059e+06 
  274551,-5.3388e+06 274832,-5.34702e+06 275113,-5.35524e+06 275394,-5.36348e+06 275676,-5.37172e+06 275957,-5.37998e+06 276239,-5.38824e+06 276521,-5.39651e+06 276803,-5.40479e+06 277085,-5.41307e+06 
  277367,-5.42137e+06 277649,-5.42967e+06 277932,-5.43798e+06 278214,-5.4463e+06 278497,-5.45463e+06 278780,-5.46297e+06 279063,-5.47131e+06 279346,-5.47967e+06 279630,-5.48803e+06 279913,-5.4964e+06 
  280197,-5.50478e+06 280481,-5.51317e+06 280765,-5.52157e+06 281049,-5.52997e+06 281333,-5.53839e+06 281617,-5.54681e+06 281902,-5.55524e+06 282186,-5.56368e+06 282471,-5.57213e+06 282756,-5.58058e+06 
  283041,-5.58905e+06 283327,-5.59752e+06 283612,-5.60601e+06 283897,-5.6145e+06 284183,-5.623e+06 284469,-5.6315e+06 284755,-5.64002e+06 285041,-5.64855e+06 285327,-5.65708e+06 285614,-5.66562e+06 
  285900,-5.67417e+06 286187,-5.68273e+06 286474,-5.6913e+06 286761,-5.69988e+06 287048,-5.70846e+06 287335,-5.71706e+06 287622,-5.72566e+06 287910,-5.73427e+06 288198,-5.74289e+06 288485,-5.75152e+06 
  288773,-5.76016e+06 
  "/>
<polygon clip-path="url(#clip2802)" style="fill:#000000; fill-opacity:0.4" points="
  727.295,787.359 709.975,777.359 709.975,757.359 727.295,747.359 744.615,757.359 744.615,777.359 
  "/>
<polygon clip-path="url(#clip2802)" style="fill:#008000; fill-opacity:0.9" points="
  727.295,783.359 713.439,775.359 713.439,759.359 727.295,751.359 741.151,759.359 741.151,775.359 
  "/>
<polyline clip-path="url(#clip2802)" style="stroke:#ffa500; stroke-width:4; stroke-opacity:1; fill:none" points="
  4473.43,3205.18 -2124.21,-2375.56 
  "/>
<polyline clip-path="url(#clip2802)" style="stroke:#ffa500; stroke-width:4; stroke-opacity:1; fill:none" points="
  -2124.21,3910.28 4473.43,-1670.46 
  "/>
<polyline clip-path="url(#clip2802)" style="stroke:#40e0d0; stroke-width:4; stroke-opacity:1; fill:none" stroke-dasharray="16, 10" points="
  1174.61,-1025.42 1174.61,2560.14 
  "/>
<polygon clip-path="url(#clip2802)" style="fill:#000000; fill-opacity:0.4" points="
  1174.61,430.811 1160.75,422.811 1160.75,406.811 1174.61,398.811 1188.47,406.811 1188.47,422.811 
  "/>
<polygon clip-path="url(#clip2802)" style="fill:#ffa500; fill-opacity:0.9" points="
  1174.61,426.811 1164.22,420.811 1164.22,408.811 1174.61,402.811 1185,408.811 1185,420.811 
  "/>
<polygon clip-path="url(#clip2802)" style="fill:#000000; fill-opacity:0.4" points="
  1174.61,1135.91 1160.75,1127.91 1160.75,1111.91 1174.61,1103.91 1188.47,1111.91 1188.47,1127.91 
  "/>
<polygon clip-path="url(#clip2802)" style="fill:#ffa500; fill-opacity:0.9" points="
  1174.61,1131.91 1164.22,1125.91 1164.22,1113.91 1174.61,1107.91 1185,1113.91 1185,1125.91 
  "/>
<polygon clip-path="url(#clip2802)" style="fill:#000000; fill-opacity:0.4" points="
  1591.43,787.359 1574.11,777.359 1574.11,757.359 1591.43,747.359 1608.75,757.359 1608.75,777.359 
  "/>
<polygon clip-path="url(#clip2802)" style="fill:#0000ff; fill-opacity:0.9" points="
  1591.43,783.359 1577.58,775.359 1577.58,759.359 1591.43,751.359 1605.29,759.359 1605.29,775.359 
  "/>
<polygon clip-path="url(#clip2802)" style="fill:#000000; fill-opacity:0.4" points="
  1174.61,783.359 1160.75,775.359 1160.75,759.359 1174.61,751.359 1188.47,759.359 1188.47,775.359 
  "/>
<polygon clip-path="url(#clip2802)" style="fill:#ff0000; fill-opacity:0.9" points="
  1174.61,779.359 1164.22,773.359 1164.22,761.359 1174.61,755.359 1185,761.359 1185,773.359 
  "/>
</svg>
